<svg id="Слой_1" data-name="Слой 1" xmlns="http://www.w3.org/2000/svg" viewBox="0 0 1229.06 454.69"><defs><style>.cls-2{fill:#ff821a}.cls-3{fill:#f25a27}.cls-9{fill:#19d26e}.cls-10{fill:#899182}.cls-11{fill:#a30759;opacity:.5}</style></defs><path d="M.06 189.38s186-43.47 371.67-11.69C568.27 211.33 741 257 826.06 232.72s140-46.32 225.13-122.8c27.42-24.64 39.08-32.95 56.4-49 1.06-1-98.48 62.1-97.53 61.19.6-.57 119.08-85.08 119.71-85.54 12.17-8.92 10.67-7.72 3.63-5.63-10.93 3.25-66.85 30.74-65.58 30 25.37-15.31 74.27-40.22 76.79-41.62 19.5-10.78 19.75-11.7 27.71-14.56 41.38-14.87 64.36 6.7 54.46 41.6-8.54 30.1-83.54 126.91-91.54 138.61-4.93 7.22 26-49.61 19.82-42-32.2 39.62-39.14 39.4-55.57 54.16-24.74 22.22-159.42 158-298.74 168s-183.12-14.36-282.22-26.57S239.15 328.51 177.42 353C64.89 397.65.06 454.69.06 454.69z" fill="#ffda3e"/><path class="cls-2" d="M.06 439.44l.6-.63c32.1-33.63 75.15-73 116.8-93.35 51.52-25.13 182.4-63.19 283.12-48.65s255.88 48 321.18 45.42c127.82-5 173.49-19.2 261.9-83.58 59.76-43.52 123.88-99.52 167.36-140.35 2.33-2.19-29.94 41.2-27.72 39.1s48.2-53.74 50.3-55.75c21.27-20.44 26.24-31.4 29.31-36.33 16.43-26.39-.63-58.21-31-43.33a194.49 194.49 0 00-41.82 28.21q-1.29 1.12-2.57 2.26-1.74 1.55-3.45 3.12c-34.88 32.1-61.77 72.84-97.1 101.74-24.4 20-39 38.51-113.1 74-57.46 27.51-102.23 32.11-175.79 34.86-85.5 3.2-240.72-30.31-317.66-48.15-64.5-15-173.51-29.39-260.84-21.35-54.29 5-118 8.54-159.5 21-.13 0 0 21.39 0 21.39z"/><path class="cls-3" d="M.06 278.2l.22-.1c19.82-8.78 40.1-15.75 40.1-15.75s-16.61 1.33-40 9.26l-.28.09V262l.31-.1a221.39 221.39 0 0132.83-7.8c44.52-6.82 112.74-21.18 141.83-23s82.93-8.24 205.34 7.9c124.31 16.4 207.54 35.73 262.47 43.27s128.05 22.43 207.18-8.44c124.23-48.47 181.5-102 196-113.82s34.51-18.85 22.26-4.31-37.32 48.85-99.42 89.78c-58.33 38.44-123.73 71.41-202.15 81.87-53.86 7.18-138.42-7.9-200.35-23.52S400.87 271 324 271c-65.82 0-106.82 6.37-182.58 44.43-65.16 32.74-95 45.69-140.21 88.78l-.83.79-.32.31v-16.78l.12-.1q2.64-2.15 5.37-4.35c34.47-27.73 94.07-59.6 94.07-59.6L139.57 303S75.21 323 31.4 349.61A344 344 0 00.33 371.13l-.27.21z"/><path d="M1132.52 91.88c-2.76-1-8.92-8.32-1.92-19.36s19.53-28.91 31.38-35.91 15.51-9.09 22.24-6.13 13.2 13.2 8.35 22.89-21.63 30.43-31.69 35.55-25.61 3.94-28.36 2.96zm-25.59 9.96s2.42-1.62 14-3 20.74-.27 22.08 1.48-.27 13.06-8.35 14.95-22.62 6.19-27.74-1.08.01-12.35.01-12.35zm-17.77 23.43s-3 8.35 2.42 10.77 10 3.77 13.08 0 2-12.93-3.11-15.35-12.39 4.58-12.39 4.58z" fill="#965317"/><path d="M1130.09 77.61l25.49-1.13 5.3 10v2.42s-6.51 3.86-17.44 3.41l-10.93-.45s-5.1-4.39-5-8.64 2.58-5.61 2.58-5.61zm27.74-1.98l16.97-6.91 14.54-17.24-4.99 12.93-18.85 19.93-7.67-8.71zm-51.45 35.64s2.71 4.71 5.27 5.25 18-1.08 21.81-2.63 6.73-3.07 6.73-5.61-31.81-3.61-33.81 2.99zm-15.9 22.73l8-.24 4.46 3.17s-4.6 3.37-12.46-2.93z" fill="#8c4438"/><path d="M1157.83 41.65s12-10.1 15.89-10.1 10 1.75 10 1.75l5.66 5.25z" fill="#a86916"/><path d="M986 145.91s-155.67 91.91-302 63.65S274.7 153 274.7 153s206.47 19.62 355.67 58c84.51 21.77 220.36 31 355.63-65.09z" fill="#ffdd50"/><path class="cls-2" d="M201 328.6s92-26.84 166.49-19.67c12.79 1.23 23.92 2.28 33.54 3.17 36.92 3.42 64 3.08 64 3.08s-34.33-3.33-61.92-7.46-61-7.63-84.33-5.13C290.31 305.65 201 328.6 201 328.6z"/><path d="M1132.35 90.31s13.88-.58 17.38-1.83 8.5-.5 8.5-.5a39.14 39.14 0 01-8.75 3c-3.75.58-11.87.83-14.5 0s-2.63-.67-2.63-.67zm-21.57 25.04s10.72-.45 13.43-1.42a16.34 16.34 0 016.57-.39 30.25 30.25 0 01-6.76 2.32c-2.9.45-9.18.64-11.21 0s-2.03-.51-2.03-.51zm-17.6 19.57a33.93 33.93 0 004.74 2.18 6.31 6.31 0 012.26 1.17 11.69 11.69 0 01-2.71-.57 14.81 14.81 0 01-3.72-2.22c-.54-.6-.57-.56-.57-.56z" fill="#936a18"/><path class="cls-9" d="M221.82 157.32a19.61 19.61 0 00-2.2-13.39c-.63-1.1-1.54-2.24-2.8-2.3s-2.45 1.2-2.88 2.49-.44 2.7-.9 4c-1.36 3.82-6.12 5.37-8.06 8.93-1.48 2.71-1 6.13.28 8.93 1.82 3.91 6.53 7 10.33 3.48 2.91-2.72 5.48-8.34 6.23-12.14z"/><path class="cls-10" d="M209.54 163a3.62 3.62 0 11-.17 5.12 3.62 3.62 0 01.17-5.12zm3.83 4.1a2 2 0 10-2.81-.09 2 2 0 002.81.1zm.83-17.1a2.66 2.66 0 11.05 3.57 2.54 2.54 0 01-.05-3.57zm2.5 2.67a1.05 1.05 0 10-1.25-.21.93.93 0 001.25.17z"/><path class="cls-9" d="M206 122a6.44 6.44 0 00-2.1-3.88 3.16 3.16 0 00-4.1.06c-.84.9-.87 2.24-1.13 3.44a19.31 19.31 0 01-1.92 4.6c-1.9 3.74-1.62 12.45 4.7 9.41 4.3-2.09 5.43-9.71 4.55-13.63zm-15.38 32.92a6.48 6.48 0 008.48-8.09 3.43 3.43 0 00-1.33-1.89 1.8 1.8 0 00-2.17.14 6.81 6.81 0 00-.81 1.62c-.87 1.58-3.09 1.69-4.54 2.76a4.06 4.06 0 00-.06 6.18l1.57-.45m52.82 4.81a6.57 6.57 0 00-2.65-3.82 3.31 3.31 0 00-4.28.62c-.9 1.26-.49 3-.95 4.51-.56 1.8-2.3 3-3.16 4.63a5.79 5.79 0 001.93 7.09c8.41 5.85 10.83-7.61 9.11-13.03zM58 416.72a19.61 19.61 0 00-2.2-13.39c-.63-1.1-1.54-2.24-2.8-2.3s-2.45 1.2-2.88 2.49-.44 2.7-.9 4c-1.36 3.82-6.12 5.37-8.06 8.93-1.48 2.71-1 6.13.28 8.93 1.82 3.91 6.53 7 10.33 3.48 2.95-2.72 5.52-8.33 6.23-12.14z"/><path class="cls-10" d="M45.76 422.42a3.62 3.62 0 11-.17 5.12 3.62 3.62 0 01.17-5.12zm3.83 4.1a2 2 0 10-2.81-.09 2 2 0 002.82.08zm.83-17.15a2.66 2.66 0 11.05 3.57 2.54 2.54 0 01-.05-3.57zm2.5 2.67a1.05 1.05 0 10-1.25-.21.93.93 0 001.25.17z"/><path class="cls-9" d="M42.27 381.37a6.44 6.44 0 00-2.1-3.88 3.16 3.16 0 00-4.1.06c-.84.9-.87 2.24-1.13 3.44a19.31 19.31 0 01-1.92 4.6c-1.9 3.74-1.62 12.45 4.7 9.41 4.28-2.05 5.38-9.68 4.55-13.63zm-15.43 32.96a6.48 6.48 0 008.48-8.09 3.43 3.43 0 00-1.32-1.89 1.8 1.8 0 00-2.17.14 6.81 6.81 0 00-.81 1.62c-.87 1.58-3.09 1.69-4.54 2.76a4.06 4.06 0 00-.06 6.18l1.58-.45m52.8 4.77a6.57 6.57 0 00-2.65-3.82 3.31 3.31 0 00-4.28.62c-.9 1.26-.49 3-.95 4.51-.56 1.8-2.3 3-3.16 4.63a5.79 5.79 0 001.93 7.09c8.41 5.89 10.83-7.57 9.11-13.03zm853.12-74.59a19.61 19.61 0 00-8.55-10.54c-1.09-.64-2.45-1.18-3.57-.61s-1.53 2.25-1.26 3.59 1 2.57 1.19 3.91c.71 4-2.65 7.7-2.57 11.75.06 3.09 2.15 5.83 4.67 7.62 3.52 2.5 9.16 2.87 10.7-2.1 1.18-3.8.63-9.95-.61-13.62z"/><path class="cls-10" d="M926.08 355.81a3.62 3.62 0 112.39 4.53 3.62 3.62 0 01-2.39-4.53zm5.36 1.66a2 2 0 10-2.49 1.31 2 2 0 002.49-1.31zm-7.78-15.31a2.66 2.66 0 111.82 3.08 2.54 2.54 0 01-1.82-3.08zm3.5 1.08a1.05 1.05 0 10-1.2.44.93.93 0 001.2-.43z"/><path class="cls-9" d="M902.69 321.89a6.44 6.44 0 00-3.74-2.33 3.16 3.16 0 00-3.53 2.09c-.28 1.19.36 2.38.73 3.55a19.31 19.31 0 01.62 4.94c.21 4.19 4.77 11.62 8.75 5.84 2.66-3.88-.14-11.07-2.83-14.09zm2.95 36.28a6.48 6.48 0 003.36-11.23 3.43 3.43 0 00-2.09-1 1.8 1.8 0 00-1.82 1.2 6.81 6.81 0 00.1 1.81c0 1.8-1.85 3-2.57 4.65a4.06 4.06 0 003 5.39l1.14-1.17M955 335.79a6.57 6.57 0 00-4.19-2 3.31 3.31 0 00-3.41 2.66c-.15 1.54 1.08 2.87 1.41 4.38.41 1.84-.53 3.71-.45 5.59a5.79 5.79 0 005.19 5.2c10.22.95 5.65-11.94 1.45-15.83z"/><path class="cls-11" d="M.06 305.81s64.5-33.16 150.5-47.16 118-16.31 186-9.66 157 22.66 216 32.66c26.51 4.49 115.63 34.6 186 31 86.25-4.42 153.33-43.33 153.33-43.33s-81.79 46-163.33 46c-99 0-154-21.67-295-44.67-154.34-25.18-247.47-15.9-303.5 1C12.06 307.23.06 350 .06 350z"/><path class="cls-3" d="M1089.53 149.72c-4.29 12.31-19.2 28.54-25.21 30.47s10-12.53 13.5-21.41 16-21.37 11.71-9.06z"/><path class="cls-11" d="M127.56 250.9s40.71-9.75 71.86-10.25 57.39.5 63.64 0-75.25 2.36-91.5 5.05-44 5.2-44 5.2z"/></svg>