<svg id="Слой_1" data-name="Слой 1" xmlns="http://www.w3.org/2000/svg" viewBox="0 0 97.82 165.14"><defs><style>.cls-3{fill:#19d26e}.cls-4{fill:#6ed7e5}.cls-5{fill:#1ebaa3}.cls-6{fill:#eaac78}.cls-7{fill:#85a188}</style></defs><ellipse cx="48.91" cy="116.45" rx="47.6" ry="47.33" transform="rotate(-14.6 48.916 116.434)" fill="#a4ffff"/><path d="M48.7 165.13a48.77 48.77 0 01-47.12-36.35 48.2 48.2 0 015.19-36.9 49.09 49.09 0 0166.94-17.44A48.46 48.46 0 0191 141a48.72 48.72 0 01-29.87 22.5 49.47 49.47 0 01-12.43 1.63zm.42-94.74a46.79 46.79 0 00-11.81 1.52A46.11 46.11 0 009 93.21a45.84 45.84 0 0016.4 63 46.47 46.47 0 0063.35-16.5 45.59 45.59 0 004.91-34.91 45.59 45.59 0 00-21.28-28.09 46.07 46.07 0 00-23.26-6.32z" fill="#8de7ff"/><path class="cls-3" d="M74.43 90.09a15.79 15.79 0 00.82 9.23c1.41 3.86 3.81 8 2.28 11.78-.88 2.2-2.89 3.69-4.53 5.4-4.68 4.88-6.51 12-6.19 18.71s2.6 13.25 5.23 19.47a42.93 42.93 0 0111.4-19.49c3.93-3.84 9.06-8.09 8.12-13.49-.55-3.16-3.22-5.92-2.8-9.1s3.65-5 6.61-6.38c-.13-.58-.26-1.17-.41-1.75a46.91 46.91 0 00-13.07-22.24l-1.45 1.19a9.17 9.17 0 00-6.01 6.67z"/><path class="cls-3" d="M72 156a1.31 1.31 0 01-1.21-.8c-2.44-5.78-5-12.66-5.33-19.92-.37-7.78 2-15 6.55-19.69.41-.43.84-.84 1.28-1.26a11.56 11.56 0 003-3.72c1-2.6-.15-5.51-1.41-8.6-.31-.75-.61-1.5-.89-2.24a16.84 16.84 0 01-.86-10 10.55 10.55 0 016.66-7.52l1.24-1a1.31 1.31 0 011.74.07 48.34 48.34 0 0113.44 22.84c.15.58.28 1.17.41 1.76a1.36 1.36 0 01-.73 1.52c-2.7 1.22-5.51 2.81-5.85 5.35-.2 1.49.52 3 1.29 4.6a16 16 0 011.5 4.1c1 5.57-3.45 9.81-7.34 13.54l-1.16 1.12a41.41 41.41 0 00-11 18.89 1.31 1.31 0 01-1.18 1zm3.7-65.59a14.49 14.49 0 00.78 8.45c.26.71.55 1.43.85 2.15 1.34 3.27 2.86 7 1.42 10.57a13.65 13.65 0 01-3.6 4.63c-.41.39-.81.78-1.2 1.18-4 4.21-6.16 10.68-5.82 17.74a50.64 50.64 0 003.76 15.66 44 44 0 0110.64-16.55l1.18-1.13c3.59-3.44 7.3-7 6.57-11.2a13.84 13.84 0 00-1.28-3.43c-.89-1.88-1.82-3.82-1.52-6.07.46-3.45 3.49-5.53 6.4-6.95-.05-.23-.11-.45-.17-.68A45.72 45.72 0 0081.82 84l-.54.44a1.33 1.33 0 01-.48.25 7.83 7.83 0 00-5.1 5.73zM2.85 128.44a47.18 47.18 0 0028.08 31.89l2.24-19.74c.37-3.26.73-6.59 0-9.78s-2.76-6.29-5.85-7.38c-5.61-2-12.2 3.14-17.51.45-4.16-2.1-4.47-9-.53-11.5 3.12-2 7.15-1 10.77-.33s8 .75 10.24-2.18c1.68-2.22 1.43-5.27 1.87-8 .59-3.7 2.54-7 3.95-10.49s2.27-7.5.7-10.9-6.81-6.69-9.57-4.19l-1.74-1a47.39 47.39 0 00-22.65 53.15z"/><path class="cls-3" d="M30.93 161.65a1.31 1.31 0 01-.49-.1 48.17 48.17 0 01-28.86-32.77 48.73 48.73 0 0123.27-54.64 1.32 1.32 0 011.3 0l1 .58a5.29 5.29 0 013.78-.5A11 11 0 0138 79.91c1.48 3.19 1.25 7.21-.67 11.95-.41 1-.86 2-1.31 3a28.77 28.77 0 00-2.56 7.23c-.11.7-.18 1.41-.24 2.13-.2 2.23-.41 4.54-1.88 6.47-2.14 2.82-6 3.72-11.53 2.68l-.69-.13c-3.27-.63-6.65-1.27-9.14.29a5.67 5.67 0 00.42 9.22c2.35 1.19 5.17.53 8.15-.16s6.16-1.43 9.2-.36c3.22 1.14 5.79 4.33 6.7 8.33.78 3.45.38 7 0 10.22l-2.24 19.74a1.31 1.31 0 01-1.3 1.16zM25.5 76.8a46.1 46.1 0 00-21.38 51.31 45.52 45.52 0 0025.7 30.33l2-18c.35-3.11.72-6.33 0-9.35-.56-2.45-2.17-5.43-5-6.43-2.32-.82-4.95-.21-7.73.44-3.31.77-6.73 1.57-9.93-.05a8.27 8.27 0 01-.63-13.79c3.36-2.11 7.43-1.33 11-.64l.69.13c3.06.58 7.1.75 9-1.69 1-1.33 1.18-3.17 1.36-5.12.07-.78.14-1.56.26-2.31a31.15 31.15 0 012.76-7.9c.43-1 .87-1.91 1.26-2.88 1.64-4 1.88-7.35.72-9.85a8.39 8.39 0 00-5.22-4.21 2.52 2.52 0 00-2.3.46 1.31 1.31 0 01-1.53.16z"/><path class="cls-4" d="M96 123.27c-23.45 10.64-54.83 21.31-85.7 20.93A47.7 47.7 0 0096 123.27z"/><path class="cls-4" d="M48.62 165.14A48.49 48.49 0 019.22 145a1.31 1.31 0 011.06-2.08c31.57.38 63.73-11.1 85.15-20.81a1.31 1.31 0 011.84 1.39 48.85 48.85 0 01-36.11 40.06 49.79 49.79 0 01-12.54 1.58zm-35.67-19.62a46.41 46.41 0 0081.32-20c-21 9.27-51.27 19.75-81.32 20z"/><path class="cls-5" d="M30.93 160.34l2-17.68a147.53 147.53 0 01-22.65 1.54 47.49 47.49 0 0020.65 16.14z"/><path class="cls-5" d="M30.93 161.65a1.31 1.31 0 01-.49-.1A48.71 48.71 0 019.22 145a1.31 1.31 0 01-.1-1.37 1.37 1.37 0 011.18-.71 147.49 147.49 0 0022.45-1.53 1.31 1.31 0 011.49 1.45l-2 17.68a1.31 1.31 0 01-1.3 1.16zM13 145.52a46.07 46.07 0 0016.87 12.92l1.62-14.25A150.89 150.89 0 0113 145.52zm78.3-20.17c-7.54 3.27-15.79 6.47-24.49 9.28v.57c.32 6.75 2.6 13.25 5.23 19.47a42.93 42.93 0 0111.4-19.49c3-2.93 6.69-6.1 7.86-9.83z"/><path class="cls-5" d="M72 156a1.31 1.31 0 01-1.21-.8c-2.44-5.78-5-12.66-5.33-19.92v-.59a1.31 1.31 0 01.91-1.29c8-2.57 16.16-5.68 24.37-9.24a1.31 1.31 0 011.77 1.6c-1.13 3.59-4.28 6.62-7.05 9.28l-1.14 1.1a41.41 41.41 0 00-11 18.89 1.31 1.31 0 01-1.18 1zm-3.89-20.41a51.38 51.38 0 003.73 15.22 44 44 0 0110.64-16.55l1.15-1.11a39.54 39.54 0 004.83-5.15 282.1 282.1 0 01-20.31 7.58z"/><ellipse class="cls-6" cx="19.42" cy="14.45" rx="12.94" ry="13.14"/><path class="cls-6" d="M19.42 28.91A14.37 14.37 0 015.16 14.45 14.37 14.37 0 0119.42 0a14.37 14.37 0 0114.25 14.45 14.37 14.37 0 01-14.25 14.46zm0-26.28A11.75 11.75 0 007.78 14.45a11.75 11.75 0 0011.64 11.83A11.75 11.75 0 0031 14.45 11.75 11.75 0 0019.42 2.62z"/><path class="cls-7" d="M9.32 22.67a12.84 12.84 0 0010.1 4.93 13 13 0 0012.5-9.77 70.89 70.89 0 01-22.6 4.84z"/><path class="cls-7" d="M19.42 28.91A14.13 14.13 0 018.3 23.49l-1.63-2.06 2.62-.07a69.2 69.2 0 0022.16-4.76l2.37-.89-.64 2.45a14.3 14.3 0 01-13.76 10.75zm-7.1-5.09a11.44 11.44 0 007.1 2.46A11.61 11.61 0 0029.67 20a72.42 72.42 0 01-17.35 3.82z"/></svg>