<svg data-name="Слой 1" xmlns="http://www.w3.org/2000/svg" viewBox="0 0 50.38 50.38"><circle cx="25.19" cy="25.19" r="25.19" fill="#f27c79"/><path d="M25.19 50.38A24.86 24.86 0 0050.3 25.51a27.38 27.38 0 00-1-7.51A78.31 78.31 0 017.73 43.34a25.1 25.1 0 0017.46 7.04z" fill="#e65b57"/><path d="M11.11 45.93a.79.79 0 01-.27-1.53c3-1.09 5.89-2.14 8.66-3.17a254.77 254.77 0 0126.12-8.57.79.79 0 01.38 1.52 250 250 0 00-26 8.53c-2.77 1-5.63 2.09-8.67 3.17a.79.79 0 01-.22.05zM18.68 49a.79.79 0 01-.32-1.51l.45-.2c7.85-3.47 15.27-6.75 24.08-7.82a.79.79 0 11.19 1.57c-8.57 1-15.55 4.12-23.63 7.69l-.45.2a.79.79 0 01-.32.07zM5.45 39.83a.79.79 0 01-.21-1.55c12.88-3.5 27-7.48 43.28-12.81A.79.79 0 0149 27c-16.26 5.32-30.44 9.3-43.34 12.8z" fill="#ffc83e"/></svg>