<svg id="Слой_1" data-name="Слой 1" xmlns="http://www.w3.org/2000/svg" viewBox="0 0 70.23 81"><defs><style>.cls-3{fill:#fff}.cls-5{fill:#04875e}</style></defs><path d="M29.27 13.62s12.93-1.8 23 3.83 21.92 9.22 25.15 24.79A32.23 32.23 0 0159 78.41c-13.29 5.75-31.62 1.08-39.28-5.75S5.08 53 9 38.29c3.69-13.65 10.21-21.8 20.27-24.67z" transform="translate(-7.89)" fill="#ff8926"/><path d="M23.24 35.25s-9.9 12.62-3.51 26.51 20 11.5 29.54 10.86 16.13-2.56 19-5.59 6.87-11 2.87-17.57-25.93-18.68-25.93-18.68-12.7-7.66-21.97 4.47z" transform="translate(-7.89)" fill="#f04b27"/><path class="cls-3" d="M49.28 40.66a1 1 0 01-.59-.71l-1.14-5a2 2 0 10-4 .91l1.14 5a1 1 0 01-.23.9 4.16 4.16 0 00-.94 3.7 4.2 4.2 0 008.2-1.88 4.16 4.16 0 00-2.44-2.92z" transform="translate(-7.89)"/><path d="M59.39 18.36L26 26a3.37 3.37 0 00-2.53 4l7 30.68a3.37 3.37 0 004 2.53l33.4-7.66a3.37 3.37 0 002.53-4l-7-30.68a3.37 3.37 0 00-4.01-2.51zM49 50.6a6.23 6.23 0 01-6.42-9.76l-1-4.5a4.07 4.07 0 117.94-1.82l1 4.5A6.23 6.23 0 0149 50.6z" transform="translate(-7.89)" fill="#19d26e"/><path class="cls-5" d="M50.56 39l-1-4.5a4.07 4.07 0 10-7.94 1.82l1 4.5A6.24 6.24 0 1050.56 39zm-2 9.6a4.21 4.21 0 01-5-3.16 4.16 4.16 0 01.94-3.7 1 1 0 00.23-.9l-1.14-5a2 2 0 114-.91l1.14 5a1 1 0 00.59.71 4.16 4.16 0 012.46 2.92 4.21 4.21 0 01-3.2 5.06z" transform="translate(-7.89)"/><path class="cls-3" d="M59.89 20.55a1.13 1.13 0 011.35.84l7 30.68a1.13 1.13 0 01-.84 1.35L34 61.08a1.13 1.13 0 01-1.35-.84l-7-30.68a1.13 1.13 0 01.84-1.35l33.4-7.66m-.5-2.19L26 26a3.37 3.37 0 00-2.53 4l7 30.68a3.37 3.37 0 004 2.53l33.4-7.66a3.37 3.37 0 002.53-4l-7-30.68a3.37 3.37 0 00-4-2.53z" transform="translate(-7.89)"/><path class="cls-5" d="M31.77 34.95a3.24 3.24 0 01-3.87-2.43.85.85 0 011.65-.38 1.54 1.54 0 101.15-1.84.85.85 0 01-.38-1.65 3.23 3.23 0 011.44 6.3zm22.78-8.59A3.24 3.24 0 0157 22.52a.85.85 0 01.36 1.65 1.54 1.54 0 101.83 1.18.85.85 0 011.68-.35 3.23 3.23 0 01-6.32 1.36zM39.74 55.29a3.24 3.24 0 01-2.37 3.91.85.85 0 01-.4-1.64 1.54 1.54 0 10-1.86-1.13.85.85 0 01-1.64.4 3.23 3.23 0 016.28-1.54zm22.47-8.92a3.24 3.24 0 014 2.13.85.85 0 01-1.62.5 1.54 1.54 0 10-1 1.93.85.85 0 01.5 1.62 3.23 3.23 0 01-1.91-6.18z" transform="translate(-7.89)"/><path class="cls-5" d="M68.31 57.44l-33.64 7.71a5.06 5.06 0 01-6.06-3.8l-7-30.68a5.06 5.06 0 013.8-6.06L59 16.9a5.06 5.06 0 016.06 3.8l7 30.68a5.06 5.06 0 01-3.75 6.06zM25.83 26.6a3 3 0 00-2.27 3.62l7 30.68a3 3 0 003.62 2.27l33.63-7.71a3 3 0 002.27-3.62l-7-30.68a3 3 0 00-3.62-2.27z" transform="translate(-7.89)"/><path class="cls-5" d="M37.53.39A15.24 15.24 0 0025.88 18.5l1.42 6.2a1.4 1.4 0 002.7-.63l-1.42-6.2a12.6 12.6 0 0124.47-5.93 1.4 1.4 0 002.72-.69A15.33 15.33 0 0037.53.39z" transform="translate(-7.89)"/></svg>