<svg id="Слой_1" data-name="Слой 1" xmlns="http://www.w3.org/2000/svg" viewBox="0 0 86 73.02"><defs><style>.cls-3{fill:#fff}.cls-3,.cls-5,.cls-6{fill-rule:evenodd}.cls-4,.cls-5{fill:#04875e}.cls-6{fill:#19d26e}</style></defs><path d="M14.74 14.71S29.32 1.14 44.58 4.53s26.11 14.41 29.84 22S80 46 76 53c-5.26 9.1-11.7 16.28-21.53 21s-17.3 3.05-23.57 0-19-11.7-23.23-22.21-3.31-28.56 7.07-37.08z" transform="translate(0 -3.99)" fill="#ff8926"/><path d="M16.47 22.8s-6.58 6.83-4.28 19c1.8 9.51 6.65 16.64 13 19.13s18.49 6.44 28.29-3.53 5.86-24.07 1.87-32.4c-5.07-10.67-22.76-22-38.88-2.2z" transform="translate(0 -3.99)" fill="#f04b27"/><path class="cls-3" d="M47 28l-.28-.91.95-.78 7.58-6.26a2.64 2.64 0 01.29-1 2.12 2.12 0 01.92-.9 2 2 0 011.35-.15L71.06 7l.89-.74.06-.06h.06c1.18-.86 3.23-.45 5.33 1a19.79 19.79 0 014.42 4.4 18.63 18.63 0 012.79 5.41c.73 2.4.45 4.43-.71 5.28h-.21l-.85.55-14.65 9.61a2 2 0 01-.44.94 2.07 2.07 0 01-1.2.71 2.38 2.38 0 01-.9 0l-8.29 5.36-1.06.69-.76-.55-24 16.18-.92.62-1-.52-.25-.14L9.92 69.37l-.19 1.52-.16 1.33-1.32.25a5.26 5.26 0 01-3.16-.4 7.1 7.1 0 01-2.71-2.23A7.69 7.69 0 011 66.69a5.65 5.65 0 01.35-3.38L1.92 62l1.42.26 1.59.29 18.85-14.47c0-.12 0-.24-.06-.36l-.16-1 .84-.72L47 28z" transform="translate(0 -3.99)"/><path class="cls-4" d="M7.3 73.18a5.73 5.73 0 01-.72 0 6.07 6.07 0 01-1.74-.5 7.11 7.11 0 01-1.6-1 8.27 8.27 0 01-1.35-1.42 8.55 8.55 0 01-1-1.63 7.88 7.88 0 01-.52-1.83 6.8 6.8 0 01-.09-1.94 5.81 5.81 0 01.48-1.8l.71-1.58a.25.25 0 01.23-.15l3 .56 18.41-14.07-.19-1.26a.25.25 0 01.09-.23l23.32-18.54-.22-.79a.25.25 0 01.08-.27l8.53-7.05a3.43 3.43 0 01.09-.39 3 3 0 01.24-.59 2.86 2.86 0 01.49-.65 2.69 2.69 0 011.52-.74h.56L71.54 5.83l.27.09-.17-.18.08-.07.09-.06a.21.21 0 01.11-.06l.18-.15a.25.25 0 01.13 0A3.28 3.28 0 0173.7 5a4.86 4.86 0 01.92.09 8.75 8.75 0 013.26 1.5 18.54 18.54 0 012.41 2 21.35 21.35 0 012.15 2.5 20.74 20.74 0 011.71 2.76 17.25 17.25 0 011.17 2.84 8.41 8.41 0 01.38 3.48 3.79 3.79 0 01-1 2.19.23.23 0 01-.07.09l-.3.22-.22-.15.13.21-.24-.06.15.2-15.41 10a2.59 2.59 0 01-.14.37 2.74 2.74 0 01-.36.57l-.08.08a2.5 2.5 0 01-.62.52 2.8 2.8 0 01-1.42.38h-.32l-9.37 6.06a.25.25 0 01-.14 0 .25.25 0 01-.15 0l-.62-.45L30.8 57a.25.25 0 01-.26 0l-1.1-.59L10.5 69.72l-.35 2.85a.25.25 0 01-.2.22l-1.59.29a5.78 5.78 0 01-1.06.1zm-5.24-5.11a7.34 7.34 0 00.82 1.4A7.06 7.06 0 004 70.68a5.9 5.9 0 001.32.83 4.81 4.81 0 001.39.4 4.46 4.46 0 00.57 0 4.55 4.55 0 00.83-.08L9 71.7l.31-2.57a.25.25 0 01.12-.13l19.81-13.91a.25.25 0 01.14 0 .25.25 0 01.12 0l1.1.59 24.8-16.74a.25.25 0 01.14 0 .25.25 0 01.15 0l.63.46 9.12-5.9a.24.24 0 01.14 0h.19a2 2 0 00.35 0 1.56 1.56 0 00.31 0 1.54 1.54 0 00.47-.18 1.47 1.47 0 00.37-.32l.07-.08a2.43 2.43 0 00.13-.23 1.37 1.37 0 00.11-.34v-.16a.25.25 0 01.11-.16L83.28 22l.15-.09.24-.18h.06a2.47 2.47 0 00.71-1.55 7.14 7.14 0 00-.34-3 15.87 15.87 0 00-1.09-2.63 19.41 19.41 0 00-1.61-2.59 20.37 20.37 0 00-2-2.36 17.56 17.56 0 00-2.25-1.91 7.54 7.54 0 00-2.79-1.29 3.53 3.53 0 00-.68-.07 2 2 0 00-1 .25l-.17.12-.18.18a.24.24 0 01-.12.06L58.07 18.56a.25.25 0 01-.16.06h-.22a1.33 1.33 0 00-.28 0h-.17a1.47 1.47 0 00-.46.14 1.39 1.39 0 00-.36.26 1.65 1.65 0 00-.29.38 1.7 1.7 0 00-.14.34 2.33 2.33 0 00-.08.43v.15a.25.25 0 01-.09.17l-7.45 6.16-.85.8.21.68a.25.25 0 01-.08.27L24.23 46.93l.16 1v.22a.25.25 0 01-.09.24L5.17 63.14a.25.25 0 01-.15.05H5l-2.69-.5-.39.88A4.56 4.56 0 001.51 65a5.58 5.58 0 00.07 1.59 6.75 6.75 0 00.47 1.5z" transform="translate(0 -3.99)"/><path class="cls-4" d="M73.7 5.27a4.6 4.6 0 01.87.09 8.49 8.49 0 013.17 1.46 18.38 18.38 0 012.38 2 21.21 21.21 0 012.12 2.47A20.53 20.53 0 0183.93 14a17 17 0 011.15 2.8 8.11 8.11 0 01.37 3.37 3.48 3.48 0 01-1 2.1l-.2.14h-.35l-.83.53-14.56 9.74a2.42 2.42 0 01-.48.95 2.4 2.4 0 01-.6.5 2.54 2.54 0 01-1.29.35h-.38l-8.17 5.29-1.06.69-.21.14-.21-.15-.55-.4-23.76 16-.92.62-.19.12-.2-.1-1-.52h-.06L10.27 69.58l-.17 1.36-.16 1.33v.27h-.26l-1.32.25a5.46 5.46 0 01-1.7.05 5.86 5.86 0 01-1.67-.48 6.87 6.87 0 01-1.54-1 8 8 0 01-1.31-1.38 8.32 8.32 0 01-.93-1.59 7.68 7.68 0 01-.54-1.72 6.6 6.6 0 01-.09-1.87A5.57 5.57 0 011 63.16l.59-1.32.12-.26.28.05 1.42.26 1.43.26 18.54-14.22v-.15l-.16-1v-.21l.17-.13.84-.67 22.39-17.89.6-.56.18.59.07.24-.2.16-22.65 18-.67.53.13.84v.57l-.18.14L5.15 62.84l-.13.1h-.16l-1.59-.29-1.13-.21-.47 1.06a4.83 4.83 0 00-.4 1.5 5.84 5.84 0 00.08 1.66 7 7 0 00.49 1.55 7.59 7.59 0 00.85 1.45 7.26 7.26 0 001.19 1.25 6.15 6.15 0 001.37.86 5.1 5.1 0 001.46.42 4.76 4.76 0 001.48 0l1.06-.2.13-1.07.19-1.52v-.16l.13-.09 19.49-13.72.19-.13.2.11.13.07.12.07.78.42.74-.5 24-16.18.21-.14.21.15.56.41.85-.55 8.28-5.36.12-.08h.14a2.23 2.23 0 00.4 0 1.82 1.82 0 00.36 0 1.76 1.76 0 00.55-.21 1.69 1.69 0 00.44-.37 1.64 1.64 0 00.33-.73v-.16l.13-.09 14.77-9.53.75-.49.15-.14.25-.19a2.65 2.65 0 00.86-1.77 7.36 7.36 0 00-.33-3.04 16.24 16.24 0 00-1.1-2.67 19.77 19.77 0 00-1.63-2.63 20.52 20.52 0 00-2-2.39 17.69 17.69 0 00-2.28-1.93 7.76 7.76 0 00-2.88-1.33 3.83 3.83 0 00-.78-.05 2.19 2.19 0 00-1.23.33l-.17.12-.21.2-.81.67L58 18.26l-.14.11h-.17a1.58 1.58 0 00-.34 0h-.2a1.71 1.71 0 00-.53.17 1.64 1.64 0 00-.43.3 1.89 1.89 0 00-.33.44 1.85 1.85 0 00-.16.39 2.62 2.62 0 00-.09.47v.15l-.12.1-7.29 6.01 7.21-6.79.8-1.33 1.6-.4L71.7 6l.06-.06h.12l.2-.15a3 3 0 011.45-.34M71.7 6L57.81 17.88l-1.6.4-.8 1.33-7.21 6.79-.24.2-.76.63v.09l-.6.56-.2-.67-.05-.21.19-.16.95-.78 7.51-6.2a3.27 3.27 0 01.1-.45 2.68 2.68 0 01.22-.54 2.61 2.61 0 01.46-.62 2.44 2.44 0 011.38-.67h.6L70.82 6.74l.87-.74M48.2 26.4l-1 .92 1-.92M73.7 4.77a3.53 3.53 0 00-1.57.34.46.46 0 00-.18.08l-.2.15h-.12l-.1.08-.06.06-.87.72-13 10.71h-.51a2.94 2.94 0 00-1.66.81 3.09 3.09 0 00-.54.71 3.17 3.17 0 00-.26.64c0 .1-.06.21-.08.32l-7.32 6.05-.95.78-.19.16a.5.5 0 00-.16.53l.07.24.11.35-22.25 17.83L23 46l-.17.13a.5.5 0 00-.18.46v.21l.14.91L4.7 61.63l-1.2-.23-1.42-.26-.28-.05h-.1a.5.5 0 00-.46.29l-.12.26L.53 63A6.07 6.07 0 000 64.83a7.09 7.09 0 00.09 2 8.17 8.17 0 00.61 1.85 8.79 8.79 0 001 1.67 8.51 8.51 0 001.39 1.47 7.36 7.36 0 001.65 1 6.39 6.39 0 001.81.52 6 6 0 001.86-.06l1.32-.25L10 73a.5.5 0 00.4-.43v-.27l.19-1.3.14-1.14 18.73-13.11.77.41.2.1a.5.5 0 00.52 0l.19-.12.92-.62 23.45-15.86.27.2.22.14a.5.5 0 00.57 0l.21-.14 1.06-.69 8-5.19h.26a3 3 0 001.55-.42 2.89 2.89 0 00.7-.57 3 3 0 00.43-.67 2.8 2.8 0 00.13-.32l14.43-9.34.83-.53h.06l.09-.05h.06l.07-.05.19-.14a.5.5 0 00.14-.16 4.06 4.06 0 001-2.3 8.62 8.62 0 00-.39-3.59 17.44 17.44 0 00-1.19-2.88A21 21 0 0082.64 11a21.68 21.68 0 00-2.18-2.53A18.78 18.78 0 0078 6.41a9 9 0 00-3.36-1.54 5.16 5.16 0 00-1-.1zm-.86 1.93a1.78 1.78 0 01.87-.19 3.31 3.31 0 01.6.06A7.28 7.28 0 0177 7.82a17.31 17.31 0 012.24 1.88 20 20 0 012 2.33 19.26 19.26 0 011.59 2.56 15.66 15.66 0 011.07 2.59 6.89 6.89 0 01.33 2.82 2.27 2.27 0 01-.6 1.38h-.07l-.25.19-.12.07h-.06l-.69.45-14.73 9.64-.13.09a.5.5 0 00-.22.33v.16a1.13 1.13 0 01-.22.5 1.21 1.21 0 01-.74.45h-.8a.5.5 0 00-.27.08l-.12.08-8.28 5.36-.56.36-.37-.24-.21-.15a.5.5 0 00-.57 0l-.21.14-24 16.18-.49.33-.49-.26-.08-.14h-.12l-.2-.11a.5.5 0 00-.53 0l-.19.13L9.42 68.66l-.13.09a.5.5 0 00-.21.35v.16l-.19 1.52-.09.7-.7.13a4.26 4.26 0 01-1.32 0 4.6 4.6 0 01-1.3-.37 5.64 5.64 0 01-1.26-.79 6.75 6.75 0 01-1.11-1.16A7.07 7.07 0 012.29 68a6.49 6.49 0 01-.46-1.44A5.33 5.33 0 011.76 65a4.33 4.33 0 01.36-1.34l.31-.7.75.14 1.59.29H5a.5.5 0 00.3-.1l.13-.1 18.88-14.42.18-.13a.5.5 0 00.19-.48v-.55L24.5 47l.44-.35 22.65-18 .2-.15A.5.5 0 0048 28l-.07-.24-.09-.29.74-.7 7.32-6.05.12-.1a.5.5 0 00.18-.34v-.15a2.1 2.1 0 01.07-.38 1.36 1.36 0 01.12-.29 1.38 1.38 0 01.23-.3 1.14 1.14 0 01.3-.21 1.22 1.22 0 01.38-.12h.64a.5.5 0 00.32-.12l.14-.11L71.61 7.7l.69-.57a.44.44 0 00.16-.1l.18-.17.14-.1.06-.05z" transform="translate(0 -3.99)"/><path class="cls-5" d="M7.91 70.67c-3.19.6-6.17-3.8-4.91-6.6l2.39.44 2.81 3.83-.29 2.33z" transform="translate(0 -3.99)"/><path class="cls-6" d="M56.35 37.92a19 19 0 01-7.47-10.19L73.29 7.57l9.64 13.15-26.58 17.2z" transform="translate(0 -3.99)"/><path class="cls-5" d="M75.63 16c-3.38-4.61-3.32-7.68-2.34-8.39s4.51 1.4 7.17 5 3.45 7.4 2.47 8.12-3.93-.15-7.3-4.73zm-17.77 4.34c-.34-1-1-.5-.67.49a21.4 21.4 0 008.23 11.22c.93.6 1.27 0 .67-.49a21.4 21.4 0 01-8.23-11.22z" transform="translate(0 -3.99)"/><path class="cls-3" d="M76.49 15.33c-2.81-3.83-3-6.16-2.42-6.61s3.3 1.48 5.51 4.5 3.11 6 2.49 6.41-2.77-.47-5.58-4.3z" transform="translate(0 -3.99)"/><path class="cls-6" d="M30.53 54.25a8.77 8.77 0 01-5-6.8L48.38 29.3a18.76 18.76 0 006.35 8.62l-24.2 16.33zM8.19 68.33c-2.42-.57-3-2-2.81-3.83l19.68-15.08a8.44 8.44 0 003.48 4.68L8.19 68.33z" transform="translate(0 -3.99)"/></svg>