<svg id="Слой_1" data-name="Слой 1" xmlns="http://www.w3.org/2000/svg" viewBox="0 0 86 80.41"><defs><style>.cls-3{fill:#04875e}.cls-4,.cls-6{fill:#19d26e}.cls-4{stroke:#fff;stroke-miterlimit:10}.cls-5{fill:#fff}</style></defs><path d="M51.59 8.91C70.89 11.62 86.21 14 82.7 42.73s-30.47 38-44.67 38C27.81 80.69 4.11 70.27.53 48.63-4.89 15.77 32.28 6.19 51.59 8.91z" transform="translate(0 -.3)" fill="#ff8926"/><path d="M14.57 30.61S4.2 46.44 14.42 61.72c6.24 9.34 25.53 18.35 40.84 2.71s21.22-30.79 7.82-40.21-38.13-6.86-48.51 6.39z" transform="translate(0 -.3)" fill="#f04b27"/><path class="cls-3" d="M48.82 55.22l-13.31 2a.78.78 0 01-.88-.65l-.49-3.26a.77.77 0 01.14-.57l3.8-5.2c1-1.49 1.74-2.52 2.05-3.05a5.37 5.37 0 00.55-1.2 1.94 1.94 0 000-.82.67.67 0 00-.29-.52 2.17 2.17 0 00-2.14.5 12 12 0 00-1.67 1.65.78.78 0 01-1.1.08l-3.2-2.78a.78.78 0 01-.09-1.08A15.39 15.39 0 0134.47 38a9.45 9.45 0 012.15-1.25 11.32 11.32 0 012.7-.73 8.59 8.59 0 013.6.17 5.82 5.82 0 012.8 1.69 5.44 5.44 0 011.36 2.89 7.54 7.54 0 01-.59 4.39 13.39 13.39 0 01-1.29 2.22c-.42.62-1.2 1.62-2.31 2.98l5.11-.77a.78.78 0 01.88.65l.62 4.09a.78.78 0 01-.68.89zM36 55.57l11.82-1.77-.38-2.55-6.17.93a.78.78 0 01-.88-.65v-.13a.78.78 0 01.17-.61c1.73-2.1 2.87-3.53 3.39-4.26a11.94 11.94 0 001.14-2 6 6 0 00.45-3.53 3.85 3.85 0 00-1-2.08 4.24 4.24 0 00-2.07-1.23 7.05 7.05 0 00-2.95-.13 9.77 9.77 0 00-2.32.62 7.88 7.88 0 00-1.8 1 11.73 11.73 0 00-1.5 1.48l2 1.77a11.58 11.58 0 011.38-1.29 3.54 3.54 0 013.94-.58 2.23 2.23 0 011 1.59 3.51 3.51 0 01-.09 1.46 6.72 6.72 0 01-.71 1.57c-.33.57-1.05 1.64-2.13 3.17l-3.62 5zm5.09-4.29z" transform="translate(0 -.3)"/><path class="cls-3" d="M62.44 53.17l-4.89.74a.78.78 0 01-.88-.65l-.42-2.78-6.54 1a.78.78 0 01-.88-.65l-.55-3.64a.77.77 0 01.07-.45l5.95-12.3a.78.78 0 01.58-.43l4.58-.69a.78.78 0 01.88.65l1.55 10.32 1.25-.19a.78.78 0 01.88.65l.56 3.7a.78.78 0 01-.65.88l-1.25.19.42 2.78a.78.78 0 01-.66.87zm-4.36-.91l3.36-.51L61 49a.78.78 0 01.65-.88l1.25-.19-.33-2.17-1.25.19a.78.78 0 01-.88-.65l-1.53-10.36-3.41.51-5.66 11.72.4 2.63 6.54-1a.78.78 0 01.88.65zm-1.63-5.6l-3 .45a.78.78 0 01-.82-1.1l1.58-3.33a12.73 12.73 0 00.65-1.82.78.78 0 01.63-.56h.14a.78.78 0 01.89.82c0 .13 0 .44.09 1q.11 1 .2 1.6l.32 2.13a.78.78 0 01-.68.8zm-1.81-1.3l.81-.12-.18-1.24zM74 31.75a.78.78 0 01-.88-.65l-1-6.79A26.38 26.38 0 0030.31 7a.78.78 0 11-.93-1.25 27.94 27.94 0 0144.27 18.32l1 6.79a.78.78 0 01-.65.89zm-53.68 8.08a.78.78 0 01-.88-.65l-1-6.79a27.68 27.68 0 013.11-17.55.78.78 0 011.36.75 26.14 26.14 0 00-2.94 16.58l1 6.79a.78.78 0 01-.65.87z" transform="translate(0 -.3)"/><path class="cls-3" d="M70.3 32.31a.78.78 0 01-.88-.65l-1-6.67a22.61 22.61 0 00-44.72 6.73l1 6.67a.78.78 0 11-1.54.23l-1-6.67a24.17 24.17 0 0147.79-7.19l1 6.67a.78.78 0 01-.65.88z" transform="translate(0 -.3)"/><path class="cls-3" d="M27.68 63.47l-6.67 1a3.8 3.8 0 01-4.32-3.19L14 43.05a3.8 3.8 0 013.19-4.32l6.67-1a.78.78 0 01.88.65l3.64 24.2a.78.78 0 01-.7.89zm-10.31-23.2a2.25 2.25 0 00-1.88 2.55l2.74 18.23a2.25 2.25 0 002.55 1.88l5.9-.89-3.41-22.66zM80.17 55l-6.31 1a.78.78 0 01-.88-.65l-3.57-23.7a.78.78 0 01.65-.88l6.31-.95A3.8 3.8 0 0180.69 33l2.66 17.71A3.8 3.8 0 0180.17 55zm-5.77-.7l5.54-.83a2.25 2.25 0 001.88-2.55l-2.66-17.68a2.25 2.25 0 00-2.55-1.88l-5.54.83z" transform="translate(0 -.3)"/><path class="cls-3" d="M30.05 62.64l-2.44.36a.78.78 0 01-.88-.65l-3.44-22.86a.78.78 0 01.65-.88l2.44-.37A2.31 2.31 0 0129 40.18L32 60a2.31 2.31 0 01-1.95 2.64zm-1.9-1.28l1.67-.25a.76.76 0 00.64-.86l-3-19.84a.76.76 0 00-.86-.64l-1.66.23zm45.69-5.52l-2.44.37a2.31 2.31 0 01-2.63-1.94l-3-19.84a2.31 2.31 0 011.94-2.63l2.44-.37a.78.78 0 01.88.65L74.49 55a.78.78 0 01-.65.84zM68 33.34a.76.76 0 00-.64.86L70.3 54a.76.76 0 00.86.64l1.67-.25-3.2-21.3zM17.16 59.17a.76.76 0 01-.27 0c-2.73-.54-4.91-3.12-5.4-6.42s.82-6.4 3.28-7.72a.78.78 0 11.74 1.37c-1.85 1-2.87 3.52-2.48 6.13s2.11 4.71 4.17 5.13a.78.78 0 010 1.53zm65.21-9.81a.78.78 0 01-.48-1.45c1.85-1 2.87-3.52 2.48-6.13s-2.11-4.71-4.17-5.13a.78.78 0 01.3-1.52c2.73.54 4.91 3.12 5.4 6.42s-.82 6.4-3.28 7.72a.76.76 0 01-.25.09z" transform="translate(0 -.3)"/><path class="cls-3" d="M75.31 64.47l-19 2.86a.78.78 0 01-.23-1.54l19-2.86a2.81 2.81 0 002.36-3.2l-.75-5a.78.78 0 111.54-.23l.75 5a4.37 4.37 0 01-3.67 4.97z" transform="translate(0 -.3)"/><path class="cls-3" d="M54 70.47a3.54 3.54 0 113-4 3.54 3.54 0 01-3 4zM53.19 65a2 2 0 102.26 1.67A2 2 0 0053.19 65z" transform="translate(0 -.3)"/><path class="cls-4" d="M40.28 51.53v-.13a.78.78 0 01.17-.61c1.73-2.1 2.87-3.53 3.39-4.26a11.94 11.94 0 001.14-2 6 6 0 00.46-3.53 3.85 3.85 0 00-1-2.08 4.24 4.24 0 00-2.07-1.23 7.05 7.05 0 00-2.95-.13 9.77 9.77 0 00-2.32.62 7.88 7.88 0 00-1.8 1 11.73 11.73 0 00-1.5 1.48l2 1.77a11.59 11.59 0 011.38-1.29 3.54 3.54 0 013.94-.58 2.23 2.23 0 011 1.59 3.51 3.51 0 01-.09 1.46 6.72 6.72 0 01-.71 1.57c-.33.57-1.05 1.64-2.13 3.17l-3.62 5 .33 2.18 11.77-1.77-.38-2.55-6.17.93a.78.78 0 01-.84-.61z" transform="translate(0 -.3)"/><path class="cls-5" d="M14.56 47.09l1.53 10.15A5.61 5.61 0 0113 52.47c-.41-4.16 1.56-5.38 1.56-5.38zm66.73-10.03l1.52 10.14a5.44 5.44 0 001.68-5.44c-.82-4.1-3.2-4.7-3.2-4.7z" transform="translate(0 -.3)"/><path class="cls-6" d="M72.2 33l3.8-.57h.3a2 2 0 012 1.7l2.44 16.21A2 2 0 0179 52.63l-3.81.57z" transform="translate(0 -.3)"/><path class="cls-5" d="M76.3 33.44a1 1 0 011 .85l2.43 16.21a1 1 0 01-.84 1.14l-2.82.42-2.73-18.19 2.82-.42h.15m0-2a3 3 0 00-.45 0l-4.79.72 3.33 22.15 4.79-.72a3 3 0 002.52-3.41L79.27 34a3 3 0 00-3-2.55z" transform="translate(0 -.3)"/><path class="cls-6" d="M21.08 61.86a2 2 0 01-2-1.7l-2.49-16.74a2 2 0 011.68-2.28l4.16-.63 3.11 20.69-4.16.63z" transform="translate(0 -.3)"/><path class="cls-5" d="M21.59 41.66l2.81 18.71-3.17.48h-.15a1 1 0 01-1-.85l-2.5-16.73a1 1 0 01.84-1.14l3.17-.48m1.68-2.28l-5.15.78a3 3 0 00-2.52 3.41l2.52 16.74a3 3 0 003.41 2.52l5.15-.82-3.41-22.62z" transform="translate(0 -.3)"/><path class="cls-3" d="M26.52 39.71h1.59a1 1 0 011 1v19.58a1 1 0 01-1 1h-1.59V39.71z" transform="rotate(-8.1 26.018 49.735)"/><path class="cls-3" d="M71.14 54.83l1.77-.41-3.22-21.34-1.79.27a.78.78 0 00-.65.88l3 19.95a.78.78 0 00.89.65z" transform="translate(0 -.3)"/><path class="cls-6" d="M20.87 38.14l2.13-.32s-.84-5.23-1-7.2a24.57 24.57 0 012.81-13.75 32 32 0 017.74-8.55 24.35 24.35 0 0117.56-3.8 29.56 29.56 0 019.42 3.78 26.72 26.72 0 017.42 7.91 26.36 26.36 0 013 8.85l.84 5.59 2.21-.31s-.45-8-3.41-14a21.58 21.58 0 00-5.14-7 25.21 25.21 0 00-14-7.16 28.31 28.31 0 00-9.64.15 25.44 25.44 0 00-9.57 4 29.22 29.22 0 00-8.81 10.08c-1.19 2.53-3.1 7.63-2.76 12.41a87.62 87.62 0 001.2 9.32z" transform="translate(0 -.3)"/><circle class="cls-4" cx="53.49" cy="66.97" r="2.01" transform="rotate(-8.56 51.502 66.806)"/><path class="cls-4" d="M61.35 45.92a.78.78 0 01-.88-.65l-1.56-10.33-3.41.51-5.66 11.72.4 2.63 6.54-1a.78.78 0 01.88.65l.42 2.78 3.36-.51L61 49a.78.78 0 01.65-.88l1.25-.19-.33-2.17zm-4.85-4.83c0 .13 0 .44.09.95q.11 1 .2 1.6l.32 2.13a.78.78 0 01-.65.88l-3 .45a.78.78 0 01-.82-1.1l1.58-3.33a12.73 12.73 0 00.65-1.82.78.78 0 01.63-.56h.14a.78.78 0 01.89.82z" transform="translate(0 -.3)"/></svg>