<svg xmlns="http://www.w3.org/2000/svg" viewBox="0 0 86 81"><defs><style>.cls-4{fill:#fff}.cls-5{fill:#19d26e}.cls-6{fill:#04875e}</style></defs><path fill="none" d="M0 0h86v81H0z" id="Слой_2" data-name="Слой 2"/><g id="Слой_1" data-name="Слой 1"><path d="M3.66 46.46S2.55 21.63 28.49 14.19s31.16-1.11 40.65 7.27S86.37 50.25 80 62.59 61.07 84.41 41 79.83 4.29 62 3.66 46.46z" fill="#ff8926"/><path d="M23.11 52S20.27 67.17 32 72.39 47.78 76 56.8 70.81 66 68 70.88 63.8s9-11 5.38-20.19-6.8-10-12.65-11.55-12.49-3.48-14.55-4.43-12.66-4.27-17.25 3.64-8.4 17.4-8.7 20.73z" fill="#f04b27"/><path class="cls-4" d="M53.82 25a1 1 0 01-.3 0 1 1 0 01-.65-1.22c0-.09.09-.24.17-.43a8 8 0 00.55-1.69c1.62-8.61-2.84-16-10.83-18A14.81 14.81 0 0024.85 14.5a9.63 9.63 0 00-.3 2.1 1 1 0 11-2 0 11.64 11.64 0 01.38-2.6A16.78 16.78 0 0143.24 1.73C52.3 4 57.36 12.29 55.54 22a9.8 9.8 0 01-.68 2.1l-.1.23a1 1 0 01-.94.67z"/><path class="cls-4" transform="rotate(13.81 38.704 18.982)" d="M14.81 16.49h47.82v4.99H14.81z"/><path class="cls-5" d="M24.12 17.42a15.21 15.21 0 1129 6.92"/><path class="cls-6" d="M61.84 26.47a1 1 0 01-.76-1.26 2.48 2.48 0 00-.91-2.57 4.22 4.22 0 00-1.07-.47 1 1 0 01.56-2 6.15 6.15 0 011.7.77 4.56 4.56 0 011.7 4.75 1 1 0 01-1.22.78zm-2.62 10.67a1 1 0 01-.76-1.26l1.32-5.39a2.79 2.79 0 00-2-3.37l-41.6-10.21a3.61 3.61 0 011.72-7l2.1.52a1 1 0 01-.5 2l-2.1-.52a1.53 1.53 0 00-.73 3l41.57 10.2A4.87 4.87 0 0161.8 31l-1.32 5.39a1 1 0 01-1.26.75z"/><path class="cls-6" d="M47.94 67.86L7.2 57.85a4.66 4.66 0 01-3.41-5.63l9.75-39.67a1 1 0 012 .5L5.81 52.72a2.58 2.58 0 001.89 3.12l40.75 10A2.58 2.58 0 0051.56 64l1.7-7a1 1 0 012 .5l-1.7 6.91a4.66 4.66 0 01-5.62 3.45zm-3.81-44.15a1 1 0 01-.73-.79c-.24-1.5-1.34-2.94-3.35-4.4-2.36-1.73-3.4-2.86-3-4.58.34-1.39 1.74-2.54 4.09-2a7.63 7.63 0 013.45 1.83l1-1.43a8.23 8.23 0 00-2.81-1.64 1 1 0 01-.62-1.15l.49-2-1.36-.33-.54 2.2a1 1 0 01-1 .74 4.69 4.69 0 00-5 3.58c-.64 2.59 1 4.35 3.58 6.19q.47.34.83.65A1 1 0 0138 22.1c-.21-.18-.45-.36-.71-.55C34.64 19.66 32 17.2 33 13.32a6.51 6.51 0 016.09-5l.43-1.73a1.64 1.64 0 012-1.25l1.87.46a1.68 1.68 0 011.25 2.05l-.35 1.42a9.75 9.75 0 012.82 1.87 1.72 1.72 0 01.23 2.21l-1.24 1.8a1.72 1.72 0 01-2.6.27 5.75 5.75 0 00-2.77-1.53c-.57-.14-1.55-.25-1.75.54-.08.34-.19.77 2.24 2.55s3.79 3.63 4.12 5.66a1 1 0 01-1.19 1.1z"/><path class="cls-5" d="M14.78 16.21s0 .36 2.34.93l40.76 10s2.47.78 2 3c-.16.72-1.41 5.56-2.6 10.44-.06.23 2.88.89 2.82 1.12-1 4.08-1.31 5.78-2.28 9.75-.4 1.62-.64 1.76-1.88 1.47-.89-.21-1.58-.35-1.58-.35L51.56 64a2.72 2.72 0 01-3.12 1.89c-2.65-.42-40.75-10-40.75-10a2.47 2.47 0 01-1.89-3.12z"/><path class="cls-4" d="M49 66.63a4.32 4.32 0 01-.67-.05c-2.65-.42-39.25-9.64-40.81-10a3.56 3.56 0 01-2.12-1.5 3.21 3.21 0 01-.31-2.54l9-36.5a.75.75 0 01.79-.56.74.74 0 01.54.31 7.49 7.49 0 001.91.64l40.76 10c1.13.36 3 1.6 2.52 3.86-.07.29-.31 1.26-.66 2.65-.47 1.88-1.14 4.53-1.8 7.24l.76.24c1.41.44 2.11.66 1.92 1.45-.49 2-.82 3.45-1.14 4.87s-.65 2.87-1.14 4.88c-.44 1.78-.92 2.45-2.77 2l-.86-.2-2.64 10.71a3.43 3.43 0 01-3.28 2.5zM15.26 17.36L6.53 52.89a1.76 1.76 0 00.13 1.41 2.15 2.15 0 001.19.81c.4.1 38.12 9.6 40.7 10a2 2 0 002.29-1.36l2.77-11.44a.74.74 0 01.86-.55s.7.14 1.61.35a2 2 0 00.66.1 4.85 4.85 0 00.32-1c.49-2 .81-3.41 1.14-4.85.29-1.29.59-2.59 1-4.33l-.78-.25c-1.39-.43-2.09-.65-1.9-1.44.71-2.91 1.44-5.8 1.95-7.82.34-1.37.59-2.33.65-2.61.33-1.46-1.29-2-1.48-2.1l-40.7-9.95a14 14 0 01-1.68-.5zm.26-1.19zm0 0zm0 0zm0 0zm0 0zm0 0z"/><path class="cls-4" d="M8.85 54.24A1 1 0 018.09 53l.2-.79a1 1 0 112 .5l-.2.79a1 1 0 01-1.24.74zM10 49.6a1 1 0 01-.76-1.26l.2-.79a1 1 0 112 .5l-.2.79a1 1 0 01-1.24.76zm1.13-4.6a1 1 0 01-.76-1.26l.2-.79a1 1 0 112 .5l-.2.79a1 1 0 01-1.24.76zm1.14-4.69a1 1 0 01-.76-1.26l.2-.79a1 1 0 112 .5l-.2.79a1 1 0 01-1.24.76zm1.14-4.64a1 1 0 01-.76-1.26l.2-.79a1 1 0 012 .5l-.2.79a1 1 0 01-1.24.76zM14.55 31a1 1 0 01-.76-1.26L14 29a1 1 0 012 .5l-.2.79a1 1 0 01-1.25.71zm1.15-4.61a1 1 0 01-.76-1.26l.2-.79a1 1 0 012 .5l-.2.79a1 1 0 01-1.24.76zm1.14-4.65a1 1 0 01-.76-1.26l.2-.79a1 1 0 012 .5l-.2.79a1 1 0 01-1.24.76zm37.49 31.5h-.18l-7.28-1.79c-.19-.06-3.36-1.13-3.83-3.71a5.93 5.93 0 011.52-5.22 5.27 5.27 0 015.08-1.15l9.08 2.15-.34 1.44-9.07-2.15a3.88 3.88 0 00-3.67.73 4.45 4.45 0 00-1.13 3.93c.31 1.71 2.75 2.54 2.78 2.55l7.23 1.77a.74.74 0 01-.18 1.46z"/><path class="cls-6" d="M57.13 55.77a2.72 2.72 0 01-.65-.08L46.35 53.2a7.09 7.09 0 113.38-13.77l8.92 2.19a1.09 1.09 0 01-.26 2.15 1.11 1.11 0 01-.26 0l-8.92-2.19a4.91 4.91 0 00-2.34 9.54L57 53.57h.13a.53.53 0 00.51-.4l2.84-11.55a.63.63 0 00-.46-.76l-1.62-.4a1.09 1.09 0 11.52-2.12l1.63.4a2.81 2.81 0 012.06 3.39l-2.85 11.58a2.7 2.7 0 01-2.63 2.06z"/><path class="cls-4" d="M58.66 38.38a1 1 0 01.25 0l1.63.4a2.76 2.76 0 012 3.33l-2.83 11.58a2.66 2.66 0 01-3.22 1.95l-10.13-2.49a7 7 0 113.36-13.67l8.92 2.19a1 1 0 11-.5 2l-8.92-2.17a5 5 0 10-2.37 9.63L57 53.62h.14a.58.58 0 00.56-.44l2.84-11.55a.68.68 0 00-.5-.82l-1.63-.4a1 1 0 01.25-2m0-.1a1.14 1.14 0 00-.27 2.25l1.63.4a.58.58 0 01.42.7l-2.85 11.51a.48.48 0 01-.47.37H57L46.88 51a4.86 4.86 0 112.32-9.44l8.92 2.19a1.14 1.14 0 00.54-2.21l-8.92-2.19a7.14 7.14 0 10-3.41 13.87l10.14 2.49a2.76 2.76 0 003.34-2l2.84-11.55a2.86 2.86 0 00-2.09-3.45l-1.63-.4a1.14 1.14 0 00-.27 0z"/><path class="cls-6" d="M55.8 23.44a1 1 0 01-.71-1.17 16.41 16.41 0 00-31.87-7.83 1 1 0 11-1.89-.44A18.35 18.35 0 0157 22.73a1 1 0 01-1.2.71z"/><path class="cls-4" d="M42.83 21.36c-.72-1.45-.73-1.36-2.74-2.82-2.36-1.73-3.4-2.86-3-4.58.34-1.39 1.74-2.54 4.09-2a7.63 7.63 0 013.45 1.83l1-1.43a8.23 8.23 0 00-2.81-1.64 1 1 0 01-.62-1.15l.49-2-1.36-.33-.59 2.24c-.11.44-.44.59-.89.58a4.88 4.88 0 00-5.1 3.62c-.64 2.59.64 4.36 3.25 6.2q.47.34.83.65z"/><circle class="cls-6" cx="48.66" cy="46.27" r="1.78" transform="rotate(-76.19 48.665 46.266)"/></g></svg>