<svg width="210" height="32" fill="none" xmlns="http://www.w3.org/2000/svg"><path d="M59.684 31.584a12.315 12.315 0 01-3.168.416c-1.11 0-2.188-.117-3.233-.352a57.397 57.397 0 01-3.037-.705c-.98-.256-1.927-.501-2.84-.736a11.377 11.377 0 00-2.58-.32 5.79 5.79 0 00-1.503.192v-3.778a9.187 9.187 0 011.894-.192c.915 0 1.818.107 2.71.32.915.213 1.84.438 2.776.672.936.257 1.894.491 2.874.705.98.213 2.014.32 3.102.32.48 0 .97-.032 1.47-.096a10.02 10.02 0 001.535-.256v3.81zM38 13.91c0-3.735.838-6.606 2.514-8.612 1.677-2.028 4.072-3.042 7.185-3.042 1.633 0 3.059.278 4.278.833a8.034 8.034 0 013.037 2.369c.805 1.024 1.404 2.252 1.796 3.682.392 1.43.588 3.02.588 4.77 0 3.736-.85 6.617-2.547 8.645-1.677 2.006-4.06 3.01-7.152 3.01-1.655 0-3.091-.278-4.31-.833a8.033 8.033 0 01-3.038-2.37c-.783-1.024-1.371-2.251-1.763-3.681-.392-1.43-.588-3.02-.588-4.77zm4.703 0c0 1.132.097 2.177.293 3.138.196.94.49 1.75.882 2.433a4.654 4.654 0 001.568 1.601c.631.384 1.382.576 2.253.576 1.59 0 2.82-.608 3.69-1.825.871-1.216 1.306-3.19 1.306-5.923a14.88 14.88 0 00-.294-3.041c-.174-.94-.457-1.761-.849-2.466-.392-.704-.903-1.248-1.534-1.632-.632-.406-1.405-.609-2.319-.609-1.59 0-2.82.63-3.69 1.89-.871 1.237-1.306 3.19-1.306 5.858zm20.239 11.206l-4.604-16.36h4.017l2.024 8.18c.076.288.153.64.229 1.056.087.406.158.785.212 1.137.076-.341.163-.72.261-1.137.098-.416.185-.768.262-1.056l2.236-8.18h3.56l2.22 8.18c.077.299.164.656.262 1.073.109.416.196.795.261 1.136l.212-1.136c.077-.406.153-.764.23-1.073l2.073-8.18h4.016l-4.653 16.36h-3.609l-2.188-8.18a124.305 124.305 0 01-.604-2.497 30.72 30.72 0 01-.294 1.312c-.12.491-.217.886-.293 1.185l-2.205 8.18h-3.625zm25.538.384c-1.6 0-2.983-.352-4.148-1.056-1.153-.704-2.046-1.697-2.677-2.978-.62-1.291-.931-2.806-.931-4.546 0-1.761.316-3.282.947-4.563.642-1.28 1.54-2.262 2.694-2.945 1.165-.694 2.536-1.04 4.115-1.04 1.35 0 2.574.277 3.674.832 1.1.555 1.975 1.409 2.629 2.561.653 1.142.98 2.599.98 4.37 0 .278-.012.62-.034 1.025-.01.395-.038.795-.081 1.2H84.757c.043.748.218 1.404.522 1.97a3.39 3.39 0 001.29 1.297c.545.309 1.187.464 1.927.464.795 0 1.486-.128 2.074-.385.588-.266 1.143-.688 1.665-1.264l2.352 2.385a8.33 8.33 0 01-2.597 1.937c-1.012.491-2.182.736-3.51.736zm-3.707-10.26h7.038c-.055-.716-.218-1.33-.49-1.842a2.862 2.862 0 00-1.143-1.2c-.49-.278-1.083-.417-1.78-.417-.958 0-1.774.288-2.45.865-.674.576-1.066 1.44-1.175 2.593zm12.746 9.876V8.756h4.082v1.76c.304-.63.783-1.141 1.437-1.536.653-.406 1.338-.609 2.057-.609 1.186 0 2.188.4 3.004 1.201l-.571 3.666c-.446-.363-.882-.619-1.306-.768a4.21 4.21 0 00-1.405-.225c-.675 0-1.252.155-1.73.465-.479.31-.85.757-1.111 1.344-.25.587-.375 1.292-.375 2.114v8.948h-4.082zm17.957.384c-1.328 0-2.324-.357-2.988-1.072-.664-.715-.996-1.782-.996-3.202v-8.964h-2.433V8.755h2.433v-4.85L115.542 2v6.756h3.788v3.505h-3.788v8.245c0 .512.103.891.31 1.136.218.246.555.369 1.012.369.806 0 1.687-.246 2.645-.737l-.473 3.49a6.653 6.653 0 01-1.633.544 9.054 9.054 0 01-1.927.192z" fill="#F93F82"/><path d="M121.656 31.328l2.531-6.5-6.253-16.072h4.196l3.641 9.573c.098.224.191.47.278.736.087.267.168.534.245.8.065-.266.141-.528.228-.784.098-.267.196-.517.294-.752l3.641-9.573h4.197l-8.785 22.572h-4.213zm20.16-5.828a9.27 9.27 0 01-3.853-.832c-1.23-.566-2.193-1.318-2.89-2.257l2.874-2.385a6.748 6.748 0 001.926 1.344c.73.342 1.426.513 2.09.513.762 0 1.35-.118 1.764-.353.413-.245.62-.592.62-1.04 0-.278-.098-.523-.294-.736-.196-.225-.555-.46-1.077-.705-.523-.245-1.274-.544-2.254-.896-1.894-.673-3.227-1.398-4-2.177-.773-.79-1.159-1.788-1.159-2.994 0-1.377.566-2.487 1.698-3.33 1.132-.854 2.612-1.28 4.441-1.28 1.23 0 2.373.229 3.429.688a7.58 7.58 0 012.727 2l-2.89 2.354c-.98-.95-2.101-1.425-3.364-1.425-.599 0-1.083.112-1.453.336-.37.214-.555.491-.555.833 0 .341.223.656.669.944.447.278 1.29.603 2.531.977 1.306.384 2.368.827 3.184 1.329.827.501 1.432 1.088 1.813 1.76.391.662.587 1.43.587 2.306 0 1.569-.587 2.801-1.763 3.698-1.165.886-2.765 1.328-4.801 1.328zm13.664 0c-1.393 0-2.433-.362-3.119-1.088-.674-.736-1.012-1.836-1.012-3.298V12.63h-2.351V8.756h2.351V4.08L155.807 2v6.756h3.674v3.874h-3.674v7.828c0 .416.092.73.277.944.196.203.496.304.898.304.817 0 1.715-.229 2.694-.688l-.506 3.746a7.906 7.906 0 01-1.682.544 9.772 9.772 0 01-2.008.192zm13.322 0c-2.373 0-4.246-.757-5.617-2.273-1.372-1.526-2.058-3.618-2.058-6.275 0-1.75.311-3.266.931-4.547.631-1.29 1.519-2.283 2.662-2.977 1.153-.704 2.514-1.057 4.082-1.057 1.556 0 2.901.353 4.033 1.057 1.143.694 2.024 1.68 2.645 2.961.62 1.281.931 2.802.931 4.563 0 1.76-.305 3.282-.915 4.562-.609 1.281-1.486 2.268-2.629 2.962-1.143.683-2.498 1.024-4.065 1.024zm0-4.226c1.001 0 1.774-.379 2.318-1.136.555-.758.833-1.82.833-3.186 0-1.377-.283-2.444-.849-3.202-.555-.768-1.323-1.152-2.302-1.152-.991 0-1.769.39-2.335 1.168-.566.769-.849 1.83-.849 3.186 0 1.345.283 2.401.849 3.17.566.768 1.344 1.152 2.335 1.152zm16.811 4.226c-1.579 0-2.945-.346-4.099-1.04-1.143-.694-2.03-1.68-2.661-2.962-.621-1.28-.931-2.796-.931-4.546 0-1.75.316-3.266.947-4.547.631-1.29 1.524-2.283 2.678-2.977 1.154-.704 2.514-1.057 4.082-1.057 1.818 0 3.325.417 4.523 1.25 1.197.832 2.068 2.059 2.612 3.681l-4.278 1.409c-.261-.683-.636-1.206-1.126-1.57a2.632 2.632 0 00-1.666-.56c-.958 0-1.736.4-2.335 1.201-.587.8-.881 1.857-.881 3.17 0 1.302.288 2.353.865 3.154.577.79 1.333 1.184 2.27 1.184.696 0 1.29-.197 1.779-.592.49-.406.866-.993 1.127-1.761l4.262 1.217c-.523 1.782-1.388 3.121-2.596 4.018-1.209.886-2.733 1.328-4.572 1.328zm9.104-.384V4.05l4.49-2.05v11.078l4.376-4.322h5.307l-4.98 4.786L210 25.116h-4.882l-4.539-8.436-1.372 1.297v7.14h-4.49zM15.993 7.377c4.757 0 8.616 3.872 8.616 8.616 0 4.743-3.873 8.616-8.616 8.616-4.744 0-8.617-3.858-8.617-8.616 0-4.758 3.873-8.616 8.617-8.616zm0-1.451c-5.556 0-10.067 4.511-10.067 10.067S10.437 26.06 15.993 26.06c5.555 0 10.066-4.511 10.066-10.067S21.563 5.926 15.993 5.926z" fill="#F93F82"/><path d="M16 2.305c7.562 0 13.695 6.156 13.695 13.695 0 7.539-6.156 13.695-13.695 13.695-7.539 0-13.695-6.133-13.695-13.695S8.461 2.305 16 2.305zM16 0C7.17 0 0 7.17 0 16s7.17 16 16 16 16-7.17 16-16S24.853 0 16 0z" fill="#F93F82"/><path d="M22.79 14.605a6.918 6.918 0 01-5.392 8.165c-3.738.764-7.412-1.638-8.18-5.39-.767-3.751 1.248-7.362 5-8.129 1.393-.285 3.754.98 1.575 5.674-1.62 3.515.866 4.739 3.379 2.981 2.16-1.523 3.336-4.68 3.618-3.301z" fill="#F93F82"/></svg>