<svg viewBox="0 0 25 25" fill="none" xmlns="http://www.w3.org/2000/svg"><path d="M12.489 5.761c3.715 0 6.729 3.025 6.729 6.729s-3.025 6.729-6.73 6.729a6.737 6.737 0 01-6.728-6.73c0-3.715 3.024-6.728 6.729-6.728zm0-1.133a7.866 7.866 0 00-7.862 7.862 7.866 7.866 0 007.862 7.862 7.866 7.866 0 007.861-7.862 7.859 7.859 0 00-7.861-7.862z" fill="#F93F82"/><path d="M12.495 1.8c5.906 0 10.695 4.808 10.695 10.695 0 5.888-4.807 10.695-10.695 10.695C6.608 23.19 1.8 18.4 1.8 12.495S6.608 1.8 12.495 1.8zm0-1.8C5.6 0 0 5.6 0 12.495c0 6.896 5.6 12.496 12.495 12.496 6.896 0 12.496-5.6 12.496-12.496C24.99 5.6 19.409 0 12.495 0z" fill="#F93F82"/><path d="M17.8 11.406a5.403 5.403 0 01-4.211 6.376c-2.92.598-5.789-1.279-6.388-4.208-.6-2.93.975-5.75 3.905-6.35 1.087-.222 2.931.766 1.23 4.432-1.266 2.745.676 3.7 2.638 2.328 1.688-1.19 2.606-3.655 2.826-2.578z" fill="#F93F82"/></svg>