<svg id="Слой_1" data-name="Слой 1" xmlns="http://www.w3.org/2000/svg" viewBox="0 0 74.81 92.24"><defs><clipPath id="clip-path"><path fill="none" d="M0 0h74.81v92.5H0z"/></clipPath><style>.cls-3{fill:#fff}</style></defs><g clip-path="url(#clip-path)"><path class="cls-3" d="M53.43 1.62c-.91-.16-1.42-.25-2.59-.43A97.48 97.48 0 0033.24 0a49.67 49.67 0 00-13.89 2.3 22 22 0 00-11.42 8c-9.85 14.12 19.18 32.49 19.33 31.83 3-13.4 6.53-22.07 11.63-28.88s10.19-9 14.54-11.63m-7.82 47.77l-5.51-2.73a99.42 99.42 0 01-3.7 13.47c-8.3 23.09-25 28-25 28 .58.34 7.48 2.22 7.48 2.22s9.56-3.22 17.22-14.54c4.28-4.85 8.37-18.6 9.2-24.74.07-.5.17-1.07.29-1.66M74.81 8.2c-.58-.34-7.48-2.2-7.48-2.2s-9.56 3.19-17.22 14.52-10 26.14-10 26.14l5.51 2.73A119.26 119.26 0 0149 37.48a53.78 53.78 0 014.19-9C62 12 74.81 8.2 74.81 8.2"/><path class="cls-3" d="M29 42.9l5.7 2.82a99.33 99.33 0 013.7-13.47c8.3-23.09 25-28 25-28C62.81 3.93 55.9 2 55.9 2a22 22 0 00-2.81 1.28 40.31 40.31 0 00-12.44 10.9 57.84 57.84 0 00-7.84 14.61c0 .1-3.09 9-3.69 13.39 0 .23-.07.48-.11.72m-18.43 35A32.35 32.35 0 010 84.18c.58.34 7.48 2.22 7.48 2.22S17 83.19 24.7 71.86s10-26.14 10-26.14L29 42.9a83.09 83.09 0 01-7.58 21.81 48.1 48.1 0 01-10.85 13.15M21.8 90.79c.91.16 1.42.23 2.59.4a97.48 97.48 0 0017.61 1 49.67 49.67 0 0013.86-2.4 22 22 0 0011.33-8.12C76.9 67.42 47.68 49.35 47.54 50c-2.82 13.43-6.3 22.13-11.32 29s-10.1 9.17-14.42 11.79"/></g></svg>