<svg xmlns="http://www.w3.org/2000/svg" viewBox="0 0 1280.23 668.99"><defs><linearGradient id="Безымянный_градиент_3" x1="39.21" y1="202.33" x2="236.19" y2="202.33" gradientUnits="userSpaceOnUse"><stop offset="0" stop-color="#ffe816"/><stop offset=".4" stop-color="#9ddf4a"/><stop offset=".81" stop-color="#3fd67b"/><stop offset="1" stop-color="#19d28f"/></linearGradient><linearGradient id="Безымянный_градиент_21" x1="266.64" y1="621.48" x2="102.26" y2="252.26" gradientUnits="userSpaceOnUse"><stop offset="0" stop-color="#fff" stop-opacity="0"/><stop offset=".01" stop-color="#fffef6" stop-opacity=".04"/><stop offset=".05" stop-color="#fffacc" stop-opacity=".22"/><stop offset=".09" stop-color="#fff7a3" stop-opacity=".39"/><stop offset=".14" stop-color="#fff380" stop-opacity=".53"/><stop offset=".2" stop-color="#fff062" stop-opacity=".66"/><stop offset=".25" stop-color="#ffee48" stop-opacity=".77"/><stop offset=".32" stop-color="#ffec34" stop-opacity=".85"/><stop offset=".4" stop-color="#ffeb24" stop-opacity=".92"/><stop offset=".49" stop-color="#ffea19" stop-opacity=".97"/><stop offset=".63" stop-color="#ffe913" stop-opacity=".99"/><stop offset="1" stop-color="#ffe911"/></linearGradient><style>.cls-6{fill:#19d26e}.cls-7{fill:#899182}.cls-8{fill:#f7d857}.cls-11,.cls-9{fill:#5bef73}.cls-10{fill:#f25627}.cls-11,.cls-27,.cls-29,.cls-33,.cls-35,.cls-36,.cls-37{fill-rule:evenodd}.cls-18{fill:#efbb16}.cls-14{opacity:.5}.cls-14,.cls-16,.cls-27{fill:#fff}.cls-19{fill:#005456}.cls-21{fill:#008e69}.cls-23{fill:#4f6984}.cls-28,.cls-29{fill:#b5bcc4}.cls-31{fill:#a12532}.cls-32{fill:#710107}.cls-33{fill:#334f6c}.cls-35{fill:#6887a8}.cls-36{fill:#d6dfe8}.cls-37{fill:#47607b}</style></defs><g id="outer_puddle"><path d="M0 628.8s52.63 32 115.8 41 140 14.67 199.84-7.74c65-24.36 109.59-67 127-96.7s32.88-91.54 79.94-129.57 92.18-64.46 116-134.73-12.89-125.73-20-136.68-48.35-63.24-129.57-81.9S322.74 57.37 248.6 62.2 97.94 76.67 74.23 80.09C53.43 83.08 0 94.34 0 94.34z" transform="translate(.23 -8.72)" fill="#f45e1c"/><path d="M0 629.24s51.77 31.67 113.91 40.61 137.76 14.53 196.58-7.67c64-24.14 107.8-66.44 124.92-95.82S467.75 475.65 514 438s90.68-63.88 114.14-133.51S615.5 179.86 608.52 169 561 106.34 481.07 87.85 317.46 63 244.54 67.77 96.34 82.1 73 85.49c-20.45 3-73 14.12-73 14.12z" transform="translate(.23 -8.72)" fill="#ff821a"/></g><g id="inner_puddle"><path d="M0 119.25S157.71 87 297 90.88s208.87 34.2 237.23 60.29 49.65 64.63 49.64 97c0 34.82-1.93 58.66-20.63 92.83s-48.32 58.75-71.23 75.1c-48.35 34.49-69.3 100.24-89 130.22-13.84 21.1-54.47 71.88-118.29 88-51.61 13-67.54 14.6-153 6C35.32 630.53.85 600.15.85 600.15z" transform="translate(.23 -8.72)" fill="#e73e48"/><path d="M0 119.25s158.17-26.73 290.75-25C430 96 495.69 128.35 527 150.82c29.17 20.94 74.25 93.6 29.32 187.42-16.83 35.12-48.32 58.76-71.24 75.1-48.35 34.49-69.3 100.24-89 130.22-13.84 21.1-54.47 71.88-118.29 88-51.61 13-70.61 11.22-153 6C45.88 632.47 0 600 0 600z" transform="translate(.23 -8.72)" fill="#f25926"/></g><g id="inners"><path d="M206.8 565.18l4.52 10.09 17.54 39.16c1.25 2.8 2.65 5.76 5.26 7.36s6.79 1 7.76-1.94c.82-2.49-1-5.07-1.12-7.69-.25-6.1 8.93-8.4 13.9-4.85s6.92 9.86 9.71 15.29 8 10.84 14 9.73c5.56-1 8.71-7.61 7.74-13.18s-5-10.13-9.22-13.84-9-6.94-12.51-11.4c-11.21-14.4-5.75-36.69-16.17-51.66-7.34-10.54-21.86-16.36-24.61-28.9-1.15-5.23-1-12.34-6.12-13.87-3.23-1-6.7 1.44-8.11 4.51s-1.29 6.58-1.14 10c-.51-11.35-22.07-14.3-19.94 2.68 2.08 16.33 11.82 33.57 18.51 48.51zm-39.86-420.99c2.82 7 7.81 13.56 12.71 19.92L211 204.79 254.36 261c9.9 12.84 19.9 25.85 26.74 39.86 5.38 11 8.69 22.44 13.94 33.5s13 22.24 24 28.91c9.42-2.1 11.96-13.27 9.1-23.27s-9.7-19.34-15.08-28.93-9.45-20.61-6.1-29c1.91-4.78 6.13-8.3 6.87-13.61.9-6.49-3.76-14-9.66-19.43s-13-9.26-19.64-13.66c-26.82-17.71-47.47-45.65-54.49-73.72-2-7.88-2.94-15.8-6.08-23.61-13.09-32.56-69.76-25.76-57.02 6.15zm137.68 301.58c7.9 13.78 5.07 28.5 7.64 43 2.71 15.19 11.91 30.68 25 42.11 4.17 3.64 10.57 7 13.88 4.15 3.91-3.4-1-11.86 2.64-15.49 4.61-4.53 13.86 3.94 21.43 5.33 6.81 1.25 11.91-4.15 12-10.42s-3.74-12.87-8.28-18.53-9.93-10.8-14.16-16.63c-19.13-26.29-11.2-72.29-47.46-88.76-12.48-5.65-25.92-.88-33.29 6.86-14.78 15.52 11.38 32.29 20.6 48.38zM380.33 336c-.79 4.18 1.49 8.4 4.51 11.4s6.77 5.15 10 7.91a34.41 34.41 0 0110.55 16.14c1 3.46 1.94 7.59 5.24 9.07 1.85.82 4 .54 6 .89 5 .88 8.43 5.59 10.72 10.16s4.22 9.65 8.33 12.69 11.29 2.55 13-2.28c1.07-3.05-.51-6.45-2.71-8.81s-5-4.1-7.22-6.46c-6.85-7.31-6.7-19.06-13-26.82-4.77-5.84-12.62-8.63-17-14.75-2.47-3.43-3.65-7.65-6.13-11.08-4.9-6.65-20.32-8.54-22.29 1.94zm-17.07-109.64c1.05 10.3 9.33 18.42 18.15 23.83s18.74 9.13 26.72 15.74c11.56 9.57 17.69 24 25.44 36.82a149.83 149.83 0 0037.11 41.45c3.51 2.69 7.62 5.35 12 4.75 7.23-1 10.36-10.41 8.23-17.4s-7.54-12.39-11.49-18.53a48.82 48.82 0 01-7.57-29.47c.51-7.42 2.64-15.31-.62-22-4.69-9.62-17.35-11.22-27.05-15.73-15.23-7.09-24.27-22.66-33.7-36.57-3.76-5.54-8.23-11.31-14.7-13-9.15-2.43-13 6.88-18.6 11.22-7 5.35-15.1 7.36-13.92 18.89zM-.23 262.17c13 6.61 23.55 19.09 29.09 31.87 4.78 11 8.83 22.6 16.34 32 19.7 24.58 58.34 28.39 76.17 54.36 13.67 19.9 10.75 46.57 5.19 70.07s-13.23 47.86-7.32 71.27c4.41 17.47 15.57 37.79 3.77 51.4C113 584.69 92.62 580 83 568s-11.62-28-13.87-43.21-5.74-31.4-17.13-41.67c-7.24-6.53-16.9-9.84-24.32-16.17C7.49 449.75 11.66 419-.23 395.29zM85.38 105.1c-32 4.66-61.74 9.35-85.38 14.15l-.23 106.58c26.3 3.79 62.52 42.17 88.44 35.38 16.19-4.24 25-22.89 24.06-39.59s-9.17-32-16.66-47S81 143.55 82.55 126.89c.64-6.96.9-15 2.83-21.79z" transform="translate(.23 -8.72)" fill="#d94037"/><path class="cls-6" d="M45.2 146.05a15.6 15.6 0 00-10.75 1c-.91.43-1.87 1.09-2 2.09a2.59 2.59 0 001.81 2.43c1 .42 2.12.51 3.11.95 2.95 1.31 3.9 5.17 6.61 6.92 2.06 1.34 4.8 1.18 7.1.31 3.21-1.21 6-4.77 3.37-8-1.98-2.51-6.28-4.88-9.25-5.7z" transform="translate(.23 -8.72)"/><path class="cls-7" d="M49 156.13a2.88 2.88 0 114.05.44 2.88 2.88 0 01-4.05-.44zm3.48-2.8a1.58 1.58 0 10-.24 2.23 1.58 1.58 0 00.22-2.23zm-13.57-1.67a2.11 2.11 0 112.84.17 2 2 0 01-2.84-.17zm2.27-1.83a.84.84 0 10-.24 1 .74.74 0 00.24-1z" transform="translate(.23 -8.72)"/><path class="cls-6" d="M16.22 156.47a5.13 5.13 0 00-3.2 1.43 2.51 2.51 0 00-.19 3.26 5.47 5.47 0 002.66 1.1 15.36 15.36 0 013.51 1.79c2.86 1.72 9.78 2 7.74-3.17-1.35-3.49-7.34-4.88-10.52-4.41zm25.23 14.19a5.15 5.15 0 00-5.91-7.21 2.73 2.73 0 00-1.58.94 1.43 1.43 0 000 1.73 5.41 5.41 0 001.24.74c1.2.78 1.16 2.55 1.92 3.76A3.23 3.23 0 0042 171l-.27-1.27m6.91-41.58a5.23 5.23 0 00-3.19 1.85 2.64 2.64 0 00.24 3.43c1 .79 2.37.57 3.52 1 1.39.55 2.21 2 3.49 2.78a4.6 4.6 0 005.74-1.11c5.17-6.27-5.37-8.99-9.8-7.95zm470.1 187.18a23.24 23.24 0 00-13.74 8.32c-.93 1.17-1.78 2.68-1.29 4.1s2.4 2.16 4 2.06 3.17-.71 4.78-.77c4.8-.18 8.61 4.36 13.37 4.92 3.64.43 7.19-1.57 9.7-4.24 3.5-3.73 4.85-10.28-.73-12.9-4.27-2-11.58-2.34-16.09-1.49z" transform="translate(.23 -8.72)"/><path class="cls-7" d="M530.42 326.33a4.29 4.29 0 115.7-2.07 4.3 4.3 0 01-5.7 2.07zm2.81-6a2.36 2.36 0 101.14 3.13 2.36 2.36 0 00-1.14-3.16zM514 327a3.15 3.15 0 113.91-1.64A3 3 0 01514 327zm1.84-3.93a1.25 1.25 0 10.32 1.47 1.1 1.1 0 00-.32-1.54z" transform="translate(.23 -8.72)"/><path class="cls-6" d="M486.81 348.27a7.64 7.64 0 00-3.34 4 3.74 3.74 0 001.88 4.49c1.35.52 2.85 0 4.28-.28a22.88 22.88 0 015.9.08c5 .43 14.41-3.72 8.27-9.32-4.12-3.75-13.01-1.62-16.99 1.03zm43.06 2.43a7.68 7.68 0 00-12.64-5.76 4.07 4.07 0 00-1.49 2.29 2.13 2.13 0 001.11 2.33 8.07 8.07 0 002.14.18c2.12.26 3.22 2.65 5 3.77a4.8 4.8 0 006.82-2.66l-1.19-1.52m-18.01-60.19a7.78 7.78 0 00-3 4.6c-.29 1.86.75 4 2.57 4.43s3.54-.8 5.38-.95c2.22-.18 4.27 1.23 6.49 1.43a6.86 6.86 0 006.94-5.25c2.74-11.84-13.13-8.56-18.38-4.26z" transform="translate(.23 -8.72)"/><path class="cls-8" d="M36.44 207.3c0-8.82-2-10.8-10.8-10.8 8.82 0 10.8-2 10.8-10.8 0 8.82 2 10.8 10.8 10.8-8.82 0-10.8 1.98-10.8 10.8z" transform="translate(.23 -8.72)"/><path class="cls-8" d="M36.67 172l-.55 15.79.55 15.79.55-15.79-.55-15.79z"/><path class="cls-8" d="M20.88 187.79l15.79.55 15.79-.55m0 0l-15.79-.55-15.79.55"/><path class="cls-8" d="M57.28 203.63c0-1.54-.35-1.89-1.89-1.89 1.54 0 1.89-.35 1.89-1.89 0 1.54.35 1.89 1.89 1.89-1.54 0-1.89.35-1.89 1.89z" transform="translate(.23 -8.72)"/><path class="cls-8" d="M57.51 190.27l-.09 2.76.09 2.76.1-2.76-.1-2.76z"/><path class="cls-8" d="M54.76 193.03l2.75.1 2.76-.1m0 0l-2.76-.1-2.75.1"/><path class="cls-8" d="M28.57 183.54c0-1.54-.35-1.89-1.89-1.89 1.54 0 1.89-.35 1.89-1.89 0 1.54.35 1.89 1.89 1.89-1.54.01-1.89.35-1.89 1.89z" transform="translate(.23 -8.72)"/><path class="cls-8" d="M28.8 170.18l-.09 2.76.09 2.76.1-2.76-.1-2.76z"/><path class="cls-8" d="M26.05 172.94l2.75.1 2.77-.1m0 0l-2.77-.1-2.75.1"/><path class="cls-8" d="M39.1 372.58c0-8.82-2-10.8-10.8-10.8 8.82 0 10.8-2 10.8-10.8 0 8.82 2 10.8 10.8 10.8-8.82 0-10.8 1.98-10.8 10.8z" transform="translate(.23 -8.72)"/><path class="cls-8" d="M39.34 337.27l-.56 15.79.56 15.79.55-15.79-.55-15.79z"/><path class="cls-8" d="M23.55 353.06l15.79.56 15.79-.56m0 0l-15.79-.55-15.79.55"/><path class="cls-8" d="M59.95 368.91c0-1.54-.35-1.89-1.89-1.89 1.54 0 1.89-.35 1.89-1.89 0 1.54.35 1.89 1.89 1.89-1.55-.02-1.89.35-1.89 1.89z" transform="translate(.23 -8.72)"/><path class="cls-8" d="M60.18 355.55l-.1 2.76.1 2.75.09-2.75-.09-2.76z"/><path class="cls-8" d="M57.42 358.31l2.76.09 2.76-.09m0 0l-2.76-.1-2.76.1"/><path class="cls-8" d="M31.24 348.82c0-1.54-.35-1.89-1.89-1.89 1.54 0 1.89-.35 1.89-1.89 0 1.54.35 1.89 1.89 1.89-1.55 0-1.89.35-1.89 1.89z" transform="translate(.23 -8.72)"/><path class="cls-8" d="M31.47 335.46l-.1 2.76.1 2.76.1-2.76-.1-2.76z"/><path class="cls-8" d="M28.71 338.22l2.76.09 2.76-.09m0 0l-2.76-.1-2.76.1"/><path class="cls-8" d="M43.85 400c3.92-3 4.12-4.6 1.08-8.52 3 3.92 4.6 4.12 8.52 1.08-3.92 3-4.12 4.6-1.08 8.52-3.03-3.91-4.6-4.08-8.52-1.08z" transform="translate(.23 -8.72)"/><path class="cls-8" d="M55.91 382.14l-7.21 5.19-6.83 5.68 7.21-5.19 6.83-5.68z"/><path class="cls-8" d="M43.45 380.56l5.19 7.2 5.68 6.83"/><path class="cls-8" d="M54.32 394.59l-5.19-7.21-5.68-6.82"/><path class="cls-8" d="M52.66 408c.69-.53.72-.8.19-1.49.53.69.8.72 1.49.19-.69.53-.72.8-.19 1.49-.53-.68-.8-.71-1.49-.19z" transform="translate(.23 -8.72)"/><path class="cls-8" d="M54.96 397.69l-1.26.91-1.19.99 1.26-.9 1.19-1z"/><path class="cls-8" d="M52.78 397.42l.91 1.26.99 1.19"/><path class="cls-8" d="M54.68 399.87l-.91-1.26-.99-1.19"/><path class="cls-8" d="M51.71 388.33c.69-.53.72-.8.19-1.49.53.69.8.72 1.49.19-.69.53-.72.8-.19 1.49-.53-.69-.81-.72-1.49-.19z" transform="translate(.23 -8.72)"/><path class="cls-8" d="M54 378.02l-1.26.9-1.19 1 1.26-.91 1.19-.99z"/><path class="cls-8" d="M51.83 377.74l.9 1.26 1 1.19"/><path class="cls-8" d="M53.73 380.19l-.91-1.26-.99-1.19"/><path class="cls-8" d="M499.64 173.71c0-8.82-2-10.8-10.8-10.8 8.82 0 10.8-2 10.8-10.8 0 8.82 2 10.8 10.8 10.8-8.82 0-10.8 1.98-10.8 10.8z" transform="translate(.23 -8.72)"/><path class="cls-8" d="M499.87 138.4l-.55 15.79.55 15.79.56-15.79-.56-15.79z"/><path class="cls-8" d="M484.08 154.19l15.79.55 15.79-.55m0 0l-15.79-.55-15.79.55"/><path class="cls-8" d="M520.49 170c0-1.54-.35-1.89-1.89-1.89 1.54 0 1.89-.35 1.89-1.89 0 1.54.35 1.89 1.89 1.89-1.55.04-1.89.38-1.89 1.89z" transform="translate(.23 -8.72)"/><path class="cls-8" d="M520.72 156.67l-.1 2.76.1 2.76.09-2.76-.09-2.76z"/><path class="cls-8" d="M517.96 159.43l2.76.1 2.76-.1m0 0l-2.76-.09-2.76.09"/><path class="cls-8" d="M491.78 149.95c0-1.54-.35-1.89-1.89-1.89 1.54 0 1.89-.35 1.89-1.89 0 1.54.35 1.89 1.89 1.89-1.55 0-1.89.35-1.89 1.89z" transform="translate(.23 -8.72)"/><path class="cls-8" d="M492.01 136.58l-.1 2.76.1 2.76.09-2.76-.09-2.76z"/><path class="cls-8" d="M489.25 139.34l2.76.1 2.76-.1m0 0l-2.76-.09-2.76.09"/><path class="cls-8" d="M378.13 312c0-8.82-2-10.8-10.8-10.8 8.82 0 10.8-2 10.8-10.8 0 8.82 2 10.8 10.8 10.8-8.82.01-10.8 1.99-10.8 10.8z" transform="translate(.23 -8.72)"/><path class="cls-8" d="M378.36 276.7l-.55 15.79.55 15.79.56-15.79-.56-15.79z"/><path class="cls-8" d="M362.57 292.49l15.79.56 15.79-.56m0 0l-15.79-.55-15.79.55"/><path class="cls-8" d="M399 308.34c0-1.54-.35-1.89-1.89-1.89 1.54 0 1.89-.35 1.89-1.89 0 1.54.35 1.89 1.89 1.89-1.57 0-1.89.35-1.89 1.89z" transform="translate(.23 -8.72)"/><path class="cls-8" d="M399.21 294.98l-.1 2.76.1 2.76.09-2.76-.09-2.76z"/><path class="cls-8" d="M396.45 297.74l2.76.09 2.76-.09m0 0l-2.76-.1-2.76.1"/><path class="cls-8" d="M370.27 288.25c0-1.54-.35-1.89-1.89-1.89 1.54 0 1.89-.35 1.89-1.89 0 1.54.35 1.89 1.89 1.89-1.55 0-1.89.35-1.89 1.89z" transform="translate(.23 -8.72)"/><path class="cls-8" d="M370.5 274.89l-.1 2.76.1 2.76.09-2.76-.09-2.76z"/><path class="cls-8" d="M367.74 277.65l2.76.09 2.76-.09m0 0l-2.76-.1-2.76.1"/><path class="cls-8" d="M114.24 527.65c0-8.82-2-10.8-10.8-10.8 8.82 0 10.8-2 10.8-10.8 0 8.82 2 10.8 10.8 10.8-8.82 0-10.8 1.98-10.8 10.8z" transform="translate(.23 -8.72)"/><path class="cls-8" d="M114.47 492.35l-.55 15.79.55 15.79.55-15.79-.55-15.79z"/><path class="cls-8" d="M98.68 508.14l15.79.55 15.79-.55m0 0l-15.79-.56-15.79.56"/><path class="cls-8" d="M135.08 524c0-1.54-.35-1.89-1.89-1.89 1.54 0 1.89-.35 1.89-1.89 0 1.54.35 1.89 1.89 1.89-1.54-.02-1.89.33-1.89 1.89z" transform="translate(.23 -8.72)"/><path class="cls-8" d="M135.31 510.62l-.09 2.76.09 2.76.1-2.76-.1-2.76z"/><path class="cls-8" d="M132.55 513.38l2.76.1 2.76-.1m0 0l-2.76-.1-2.76.1"/><path class="cls-8" d="M106.37 503.89c0-1.54-.35-1.89-1.89-1.89 1.54 0 1.89-.35 1.89-1.89 0 1.54.35 1.89 1.89 1.89-1.54 0-1.89.35-1.89 1.89z" transform="translate(.23 -8.72)"/><path class="cls-8" d="M106.61 490.53l-.1 2.76.1 2.76.09-2.76-.09-2.76z"/><path class="cls-8" d="M103.84 493.29l2.77.1 2.75-.1m0 0l-2.75-.1-2.77.1"/><path class="cls-8" d="M28.62 580.64c0-5.45-1.23-6.68-6.68-6.68 5.45 0 6.68-1.23 6.68-6.68 0 5.45 1.23 6.68 6.68 6.68-5.45.04-6.68 1.23-6.68 6.68z" transform="translate(.23 -8.72)"/><path class="cls-8" d="M28.85 555.48l-.34 9.77.34 9.76.34-9.76-.34-9.77z"/><path class="cls-8" d="M19.09 565.25l9.76.34 9.77-.34m0 0l-9.77-.35-9.76.35"/><path class="cls-8" d="M41.51 578.37c0-1-.21-1.17-1.17-1.17 1 0 1.17-.21 1.17-1.17 0 1 .21 1.17 1.17 1.17-.95 0-1.17.22-1.17 1.17z" transform="translate(.23 -8.72)"/><path class="cls-8" d="M41.74 566.78l-.06 1.71.06 1.7.06-1.7-.06-1.71z"/><path class="cls-8" d="M40.04 568.49l1.7.06 1.71-.06m0 0l-1.71-.06-1.7.06"/><path class="cls-8" d="M23.76 565.95c0-1-.21-1.17-1.17-1.17 1 0 1.17-.21 1.17-1.17 0 1 .21 1.17 1.17 1.17-.93 0-1.17.22-1.17 1.17z" transform="translate(.23 -8.72)"/><path class="cls-8" d="M23.99 554.36l-.06 1.7.06 1.71.06-1.71-.06-1.7z"/><path class="cls-8" d="M22.28 556.06l1.71.06 1.7-.06m0 0l-1.7-.06-1.71.06"/></g><g id="UFO"><path class="cls-9" d="M154 335.79l-2.3-1.62 5.53-7.86-4.23-2.93a6.33 6.33 0 01.72-1.37l2.21-3.14c1-1.45 1-3.64-.43-4.64l-19-13.36a3.31 3.31 0 00-3.8 5.41l14.59 10.27a2.1 2.1 0 01.86 2.64 1.13 1.13 0 01-.52.39l-23.47-16.51a2.42 2.42 0 00-3.37.59l-14.74 20.95a2.33 2.33 0 00.58 3.23l33.13 23.3 6.4-9.1 2.3 1.62-.63.89a1.53 1.53 0 00.38 2.11l3.39 2.34-.26.36a2 2 0 00.49 2.81l6.14 4.32a2 2 0 002.81-.49l.82-1.16-1.36-1a2.35 2.35 0 01-.58-3.26l4.7-6.68a2.37 2.37 0 013.28-.57l1.36 1 .82-1.16a2 2 0 00-.49-2.81l-6.14-4.32a2 2 0 00-2.81.49l-.26.36-3.38-2.38a1.53 1.53 0 00-2.13.37zm-40.7-13.73l27.7 19.46-2.5 3.48-27.66-19.46zm28.57-1.23l2.23 1.57a.4.4 0 01.1.56l-1.53 2.18a.4.4 0 01-.56.1l-2.23-1.57a.41.41 0 01-.1-.56l1.53-2.18a.41.41 0 01.56-.1zm1.63 5.9l2.21 1.56a.4.4 0 01.1.56l-1.54 2.15a.4.4 0 01-.56.1l-2.21-1.56a.42.42 0 01-.12-.57l1.53-2.18a.42.42 0 01.58-.08zm-3.8-2.67l2.23 1.57a.4.4 0 01.1.56l-1.53 2.18a.4.4 0 01-.56.1l-2.23-1.57a.41.41 0 01-.1-.56l1.53-2.18a.41.41 0 01.56-.1zm6-.56l2.21 1.56a.4.4 0 01.1.56l-1.53 2.18a.4.4 0 01-.56.1l-2.21-1.56a.42.42 0 01-.12-.57l1.53-2.18a.42.42 0 01.58-.08z" transform="translate(.23 -8.72)"/><path class="cls-9" transform="rotate(-67.85 167.265 402.042)" d="M171.22 381.87h4.8v49.39h-4.8z"/><path class="cls-9" transform="rotate(-67.85 193.848 412.86)" d="M197.8 414.98h4.8v4.8h-4.8z"/><path class="cls-9" d="M144.89 386.67l.43-1.05 6.57.69-1.81 4.45-5.19-4.09z"/><path class="cls-9" d="M143.91 385.77l.08-.19 1.29.15-.35.83-1.02-.79z"/><path class="cls-9" transform="rotate(-67.85 190.88 411.653)" d="M195.3 415.38h3.89v1.6h-3.89z"/><path class="cls-9" d="M191.34 408.79l-.2-1.31 4.24 1.72-.43 1.06-3.61-1.47z"/><path class="cls-9" transform="rotate(-67.85 179.17 411.02)" d="M185.24 405.26h.57v20.57h-.57z"/><path class="cls-9" d="M178.9 412.54l-1.71-.69a1 1 0 011.71.69z" transform="translate(.23 -8.72)"/><path class="cls-9" transform="rotate(-67.85 163.485 400.503)" d="M167.44 404.73h4.8v.6h-4.8z"/><path class="cls-9" transform="rotate(-70.27 116.835 393.749)" d="M122.68 397.47h.5v1.64h-.5z"/><path class="cls-9" d="M119.7 406.25a.55.55 0 00-.06 1l2.26-6.31a.46.46 0 11.15.05l-2.26 6.31a.55.55 0 00.6-.79l4.49-4.81a1.89 1.89 0 01-1-1.67l.37-1-2.65-.95-.37 1a1.89 1.89 0 01-1.86.63z" transform="translate(.23 -8.72)"/><path class="cls-9" d="M131.45 362.14l2.83 1.02-9.05 25.11-2.84-1.02 9.06-25.11z"/><path class="cls-9" transform="rotate(-70.27 127.641 366.89)" d="M133.42 370.88h.63v1.11h-.63z"/><path class="cls-9" transform="rotate(-70.27 126.597 366.516)" d="M132.38 370.5h.63v1.11h-.63z"/><path class="cls-9" transform="rotate(-70.27 125.553 366.143)" d="M131.33 370.13h.63v1.11h-.63z"/><path class="cls-9" transform="rotate(-70.27 127.055 365.383)" d="M132.24 368.41h1.82v3.01h-1.82z"/><path class="cls-9" d="M134.88 369.57l.09-.24a.38.38 0 00-.23-.49l-2.11-.76a.38.38 0 00-.49.23l-.09.24zm-9.99 27.37l-.34.93a.68.68 0 01-.87.41l-1.3-.46a.68.68 0 01-.41-.87l.34-.93z" transform="translate(.23 -8.72)"/><path class="cls-10" d="M269.74 447.92l-1.72-10.26a30.4 30.4 0 006.11 13.71l-.49 8.85a28.63 28.63 0 01-3.9-12.3z" transform="translate(.23 -8.72)"/><path class="cls-9" d="M306.8 467.5l-.49-.18c-17.54-6.47-35-13-38.77-32.48l2.56 14.33c.6 16.92 12 23.61 23.48 30.27l.32.18c11.47 6.65 22.89 13.35 23.48 30.26l28.41-8.71c-3.28-20.41-21.11-27.07-38.99-33.67zm-3.56-.69l-.75.77-1.29-.5.72-.77zm.18 2.18l-8.36 8.14a119.56 119.56 0 01-10.5-6.06l4.69-8.18c4.48 2.26 9.31 4.19 14.17 6.11zm-2.26-3l-.7.77-1.29-.51.67-.77zm-2.07-.8l-.65.77-1.28-.52.62-.77zm-2-.82l-.61.77-1.26-.53.57-.77zm-2-.84l-.56.77-1.25-.55.53-.77zm-2-.87l-.51.77-1.23-.57.48-.77zm-2-.9l-.47.77-1.2-.59.44-.77zm-4 0L283 470a34.87 34.87 0 01-8.3-8.13l.94-8.71a44.29 44.29 0 0011.47 8.59zm-13.92-.53v-.84c.16.3.33.59.5.88l-.05.84c-.12-.31-.28-.6-.44-.89zm.77 1.37c0-.28 0-.55.06-.83.18.29.36.57.55.85l-.09.82q-.25-.44-.46-.86zm.84 1.31c0-.28.07-.55.1-.82l.59.8c0 .27-.08.54-.13.81a8.26 8.26 0 00-.55-.81zm.9 1.24l.14-.81.63.77-.16.81zm1 1.19l.18-.8.67.73-.21.8zm1 1.13l.22-.8.7.7-.25.79zm1.07 1.08l.26-.79.74.67-.29.78zm1.12 1l.3-.78.77.64-.33.78zm1.17 1l.35-.78.79.62-.37.78zm1.21 1l.39-.78.81.59-.42.77zm1.24.92l.44-.77.84.57-.47.77zm1.27.89l.48-.77.86.56-.51.77zm1.3.87l.53-.77.87.54-.56.77zm1.33.84l.58-.77.88.53-.6.77zm1.34.82l.62-.77.9.52-.65.77zm1.36.81l.67-.77.9.51-.7.77zm1.37.8l.72-.77.91.5-.75.77zm2.26 1.29l-.88-.5.77-.77.91.5zm10.8-10.42l-1.3-.5.77-.77 1.33.5zM344 498.1l-1.78.59c-.11-.47-.24-.92-.37-1.37l1.76-.6c.15.45.28.91.39 1.38zm-.63-2.16l-1.75.61c-.14-.44-.29-.88-.45-1.3l1.74-.63c.17.44.33.88.47 1.32zm-.75-2l-1.73.63c-.17-.42-.34-.83-.52-1.23l1.71-.65c.2.37.38.79.55 1.21zm-.87-1.94l-1.7.65a64.1 64.1 0 00-.59-1.17l1.68-.66q.33.54.62 1.18zm-1.64-3c.23.36.46.73.68 1.11l-1.67.67q-.32-.56-.66-1.1zm-1.11-1.65c.25.35.5.7.74 1.05l-1.63.68c-.24-.35-.48-.7-.73-1zm-1.25-1.58q.41.49.8 1l-1.6.7q-.38-.5-.78-1zm-1.34-1.49q.44.46.86.94l-1.57.71c-.27-.32-.56-.63-.84-.93zm-1.43-1.41q.47.43.92.89l-1.53.72c-.29-.3-.59-.59-.89-.88zm-1.66 2.79L317 493.24a34.91 34.91 0 00-8.3-8.14l13.1-8.1a44.25 44.25 0 0111.49 8.66zm.16-4.12l1 .84-1.49.73-.94-.83zm-1.58-1.26q.52.39 1 .79l-1.45.74c-.32-.27-.65-.53-1-.79zm-1.65-1.19l1.06.75-1.41.75-1-.75zm-1.76-1.09l1.1.71-1.37.75-1.07-.71zm-1.78-1.08l1.14.68-1.33.76-1.11-.68zm-1.83-1l1.17.65-1.28.76-1.15-.64zm-1.88-1l1.2.61-1.24.76-1.17-.62zm-1.93-.94l1.23.59-1.19.77-1.2-.59zm-2-.9l1.25.57-1.15.77-1.23-.57zm-2-.87l1.28.55-1.1.77-1.25-.55zm-2-.84l1.29.53-1.06.77-1.26-.53zm-2-.82l1.31.52-1 .77-1.28-.52zm-2.07-.8l1.32.51-1 .77-1.29-.51zm-2.08-.79l1.32.5-.91.77-1.29-.5zm-2.09-.78l1.33.5-.87.77-1.3-.5zm-11.21 11.69l-.88-.5.83-.77.91.5zm1.38.79l-.88-.5.88-.77.91.5zm1.37.8l-.87-.51.93-.77.9.51zm1.36.81l-.86-.52 1-.77.9.52zm1.34.83l-.85-.53 1-.77.88.52zm1.33.84l-.84-.54 1.07-.77.87.54zm1.3.87l-.82-.55 1.12-.77.86.56zm1.27.89l-.81-.57 1.16-.77.84.57zm-8.35-7.72l8.89-8.15c4.85 1.91 9.69 3.84 14.16 6.1L307.1 484a118.57 118.57 0 00-10.5-6.05zm9.59 8.65l-.79-.59 1.21-.77.81.59zm1.21 1l-.76-.61 1.26-.76.79.61zm1.16 1l-.74-.64 1.3-.76.76.64zm1.12 1l-.71-.67 1.34-.75.73.67zm1.07 1.08l-.67-.69 1.39-.75.7.7zm1 1.13l-.64-.72 1.43-.74.67.73zm1 1.19l-.61-.76 1.47-.73.63.77zm.33.45l1.51-.73c.2.27.4.53.59.81l-1.53.72c-.21-.28-.4-.59-.59-.85zm.88 1.26l1.54-.72c.19.28.37.56.55.84l-1.57.71q-.27-.46-.5-.87zm.81 1.33l1.58-.71q.26.44.5.89l-1.6.7q-.27-.49-.49-.95zm.74 1.39l1.61-.69c.16.31.31.62.46.93l-1.63.68c-.15-.38-.3-.66-.45-.97zm.67 1.46l1.65-.68q.21.48.41 1l-1.66.67q-.21-.56-.41-1.03zm.59 1.54l1.68-.66c.12.34.24.68.35 1l-1.69.65c-.13-.36-.23-.7-.34-1.04zm.51 1.61l1.71-.64q.16.53.3 1.08l-1.73.63c-.09-.41-.18-.76-.28-1.14zm.42 1.69l1.73-.63c.09.37.17.75.24 1.14l-1.75.61c-.06-.42-.14-.79-.22-1.16zm.34 1.78l1.76-.6c.07.39.13.79.18 1.19l-1.78.59c-.05-.44-.1-.83-.16-1.22zm.34 3.1q0-.63-.1-1.24l1.78-.58q.07.61.11 1.25zm3.52-1.46a28.61 28.61 0 00-3.89-12.3l16.75-7.44a30.41 30.41 0 016.11 13.71zm20.5-7.65l1.79-.58c.11.48.21 1 .31 1.47l-1.8.57q-.14-.78-.29-1.49z" transform="translate(.23 -8.72)"/><ellipse class="cls-9" cx="283.23" cy="442.86" rx="7.75" ry="7.93" transform="rotate(-43.37 272.388 438.207)"/><ellipse class="cls-9" cx="283.24" cy="442.86" rx="14.82" ry="15.16" transform="rotate(-43.37 272.4 438.212)"/><ellipse class="cls-10" cx="283.24" cy="442.86" rx="12.46" ry="12.75" transform="rotate(-43.37 272.396 438.225)"/><ellipse class="cls-9" cx="283.23" cy="442.86" rx="10.23" ry="10.46" transform="rotate(-43.37 272.396 438.225)"/><ellipse class="cls-9" cx="283.24" cy="442.86" rx="5.77" ry="5.9" transform="rotate(-43.37 272.388 438.207)"/><path class="cls-9" d="M269 427.88a20.45 20.45 0 1028.91.82 20.45 20.45 0 00-28.91-.82zm21.58 24.07a4.74 4.74 0 116.7.19 4.74 4.74 0 01-6.74-.19zM278 452a4.74 4.74 0 11-.19 6.7 4.74 4.74 0 01.19-6.7zm10.67-21.12a4.74 4.74 0 11-.19 6.69 4.74 4.74 0 01.15-6.7zm-21.79 9.34a4.74 4.74 0 11-.19 6.7 4.74 4.74 0 01.15-6.71zm7.6-12.22a4.74 4.74 0 11-.19 6.7 4.74 4.74 0 01.14-6.7z" transform="translate(.23 -8.72)"/><path class="cls-9" d="M272.48 459.78v-.86q.22.47.46.93v.85c-.17-.3-.32-.61-.46-.92zm-.62-1.51v-.87q.2.5.41 1v.86c-.16-.34-.27-.66-.41-.99zm-.54-1.58c0-.3 0-.59-.07-.89q.17.52.35 1v.88q-.12-.48-.28-.99zm-.46-1.69c0-.3-.06-.6-.09-.91q.14.55.3 1.08l.08.89c-.15-.32-.2-.68-.29-1.06zm-.36-1.73l-.12-.93c.07.39.16.76.24 1.14l.1.91q-.12-.55-.22-1.12zm-.28-1.83l-.15-1c.06.41.12.8.18 1.19l.13.94c-.06-.34-.11-.73-.16-1.13z" transform="translate(.23 -8.72)"/><path class="cls-9" d="M270 449.51l-.17-1q0 .64.12 1.25l.15 1c0-.42-.03-.83-.1-1.25zM219.24 322.5l-25.29 14.27 14.27 25.29 25.29-14.27zm-9.52 34.18l-10.39-18.41 18.41-10.39 10.39 18.41z" transform="translate(.23 -8.72)"/><circle class="cls-9" cx="219.07" cy="343.77" r="3.92" transform="rotate(-29.43 202.627 339.013)"/><path class="cls-9" d="M200.06 328.44l9.05 2.92-.81 6.22 10.25 5.95-9.76 5.51-10.84-20.13 2.11-.47z"/><path class="cls-9" d="M182.66 359.24l-3.47 33.59 33.59 3.47 3.47-33.59zm26 32l-24.45-2.53 2.53-24.45 24.45 2.53z" transform="translate(.23 -8.72)"/><circle class="cls-9" cx="202.73" cy="373.71" r="4.56" transform="rotate(-84.1 198 369.223)"/><path class="cls-9" d="M183.74 378.81l8.86-6.63 5.36 4.95 12.53-5.72-1.34 12.96-26.38-3.25.97-2.31z"/><path class="cls-9" d="M185.69 484.27L172 499.9l15.63 13.65 13.65-15.63zm1.71 25.29l-11.4-9.93 10-11.37 11.37 9.93z" transform="translate(.23 -8.72)"/><circle class="cls-9" cx="190.63" cy="498.64" r="2.8" transform="rotate(-48.87 181.117 493.992)"/><path class="cls-9" d="M176.32 490.05l6.8-.19.93 4.38 8.32 1.57-5.27 6.03-12.09-10.98 1.31-.81z"/><path class="cls-9" d="M255.22 359.36a15.75 15.75 0 00-.24-3 14.92 14.92 0 00-.33-1.47 11.39 11.39 0 00-.48-1.43s.07 1.51-.56 1.8l-.13-.53c-.05.44-.08.88-.1 1.31s0 .88 0 1.32.05.87.12 1.31.15.87.19 1.31a10.11 10.11 0 010 2.65 5.88 5.88 0 01-1 2.45l.74.08a9.53 9.53 0 00.47-1.36c.13-.46.23-.93.32-1.4a15 15 0 00.26-2.85c0-.47-.07-.95-.11-1.43s-.08-1-.1-1.44c-.05-1-.09-1.92-.1-2.88l.22 2.87.12 1.43c0 .24 0 .48.08.71a7.24 7.24 0 010 .73 14.14 14.14 0 01-.3 2.87 10.74 10.74 0 01-.91 2.73l.6.06a17.12 17.12 0 00.87-2.88 15.45 15.45 0 00.37-2.96zm-3.95 1.08a17.21 17.21 0 01.51-2.25 16.14 16.14 0 01.8-2.15 9.15 9.15 0 00-2.15 7 5.61 5.61 0 00.54 1.9l.68.07a6.41 6.41 0 01-.5-2.24 11.61 11.61 0 01.12-2.33z" transform="translate(.23 -8.72)"/><path class="cls-9" d="M253.53 360c0-.44-.11-.87-.18-1.3a10.5 10.5 0 01-.1-1.32 13.28 13.28 0 01.22-2.63 7.39 7.39 0 01-.81 2.09l-.08-.79c-.13.36-.26.72-.37 1.09s-.22.73-.32 1.1a19.48 19.48 0 00-.47 2.24 12.51 12.51 0 00-.15 2.27 7.41 7.41 0 00.38 2.24h.46c0-.36.08-.72.09-1.08s0-.72 0-1.08v-1.08c0-.36-.1-.71-.11-1.08a13.6 13.6 0 01.13-2.17 19.67 19.67 0 01.4-2.13c-.11.71-.21 1.43-.28 2.15a15.11 15.11 0 00-.09 2.15c0 .36.07.71.1 1.08a9.94 9.94 0 010 1.09 12.35 12.35 0 01-.25 2.16h.27c.1-.37.19-.74.26-1.11s.15-.75.2-1.12a6.4 6.4 0 000-2.26 13.09 13.09 0 01-.09-2.3 12.33 12.33 0 01.31-2.27q-.09.57-.13 1.14t-.06 1.14a14.35 14.35 0 00.13 2.27c0 .19.06.37.08.57a4.92 4.92 0 010 .58 8.19 8.19 0 01-.13 1.14 14.29 14.29 0 01-.58 2.22h.3a6.46 6.46 0 00.84-2.47 10.55 10.55 0 00.03-2.53zm.64-6.53a12 12 0 011.78 5.85 12.48 12.48 0 01-.28 3.07 10.76 10.76 0 01-1.06 2.89h.42a6.16 6.16 0 00.9-1.76c.8-2.1.79-7.43-1.76-10.05z" transform="translate(.23 -8.72)"/><path class="cls-9" d="M255.55 362.37a13 13 0 00.24-3 12.57 12.57 0 00-.47-3 14.36 14.36 0 00-1.15-2.84 12 12 0 01.93 2.87 14.91 14.91 0 01.28 3 14.65 14.65 0 01-.36 3 14 14 0 01-1 2.86l.58.06a10.31 10.31 0 00.56-1.43 12.83 12.83 0 00.39-1.52zm-.33 3.63a.24.24 0 01-.27.22l-4.14-.43a.24.24 0 01-.22-.27.24.24 0 01.27-.22l4.14.43a.24.24 0 01.22.27zm-.11 1a.24.24 0 01-.27.22l-4.14-.43a.24.24 0 01-.22-.27.24.24 0 01.27-.22l4.14.43a.24.24 0 01.22.27zm-.11 1.06a.24.24 0 01-.27.22l-4.14-.43a.24.24 0 01-.22-.27.24.24 0 01.27-.22l4.14.43a.24.24 0 01.22.27zm-.1 1.02a.24.24 0 01-.27.22l-4.14-.43a.24.24 0 01-.22-.27.24.24 0 01.27-.22l4.14.43a.24.24 0 01.22.27zm-.1 1.02a.24.24 0 01-.27.22l-4.14-.43a.24.24 0 01-.22-.27.24.24 0 01.27-.22l4.14.43a.24.24 0 01.22.27zm-.11 1.02a.24.24 0 01-.27.22l-4.14-.43a.24.24 0 01-.22-.27.24.24 0 01.27-.22l4.14.43a.24.24 0 01.22.27zm-.47 3.18l.14-2.58-4.1-.43-.39 2.56c-2.51 11.31-3.73 49.63-3.73 49.63a.78.78 0 101.56.16s6.66-37.75 6.52-49.34zm-23.43 107.26a1.79 1.79 0 01-1.28.11l-2.81-.82a1.8 1.8 0 01-1.22-2.23l9.75-33.44a1.8 1.8 0 012.23-1.22l2.81.82a1.8 1.8 0 011.22 2.23l-9.75 33.44a1.79 1.79 0 01-1 1.12m.29.6a2.47 2.47 0 001.3-1.53l9.75-33.44a2.47 2.47 0 00-1.68-3.06l-2.81-.82a2.47 2.47 0 00-3.06 1.68l-9.75 33.44a2.47 2.47 0 001.68 3.06l2.81.82a2.47 2.47 0 001.76-.14z" transform="translate(.23 -8.72)"/><path class="cls-9" d="M234.28 439.62l1.26-4.3 5.41 6.23-1.25 4.3-5.42-6.23zm-2.62 9l1.25-4.3 5.42 6.22-1.26 4.3-5.41-6.22zm-2.62 9l1.25-4.3 5.42 6.22-1.26 4.3-5.41-6.22zm-2.62 8.99l1.25-4.3 5.41 6.23-1.25 4.29-5.41-6.22z"/><path class="cls-9" d="M213.49 473.24l-4.32-3.35 22.94-29.61 4.32 3.35-22.94 29.61m.29.6a.67.67 0 00.24-.19L237 444a.67.67 0 00-.12-.94l-4.32-3.35a.67.67 0 00-.94.12l-22.94 29.61a.67.67 0 00.12.94l4.32 3.35a.67.67 0 00.7.07z" transform="translate(.23 -8.72)"/><path class="cls-9" d="M229.65 434.76l2.83-3.67 1.95 7.34-2.84 3.67-1.94-7.34zm-5.94 7.66l2.83-3.66 1.95 7.34-2.84 3.66-1.94-7.34zm-5.95 7.67l2.84-3.66 1.95 7.34-2.84 3.66-1.95-7.34zm-5.93 7.67l2.83-3.67 1.95 7.35-2.84 3.66-1.94-7.34z"/><path class="cls-9" d="M196.25 459.93l12.63 9.78 22.94-29.61-12.63-9.78a2.87 2.87 0 00-4 .51l-19.45 25.07a2.87 2.87 0 00.51 4.03zm18-21.84l8.92 6.91-11.68 15.07-8.92-6.91z" transform="translate(.23 -8.72)"/><path class="cls-11" d="M172.43 432.12c-.59.09-.38 0-.93-.08s-2.82-.57-3.48-.69-.55-.39-1.1-.81a2.07 2.07 0 00-1.18-.41c-.86-.1-1.69-.18-2.32-.32-.3-.07-.81.16-1 .08s.12-.6-.19-2a5.46 5.46 0 00-.76-2.21c-.12 0 0 .23-.06 1A18.68 18.68 0 01161 429a2.06 2.06 0 01-.41.56l-.42-1.23c-.24-.71-.68-1.39-.93-1.41s.24.74 0 2.12-.71 1.9-.62 2.54a1.44 1.44 0 00.66 1 2.65 2.65 0 01-.71.05 4.62 4.62 0 00-2.11.34c-.25.3 0 .39.36.81a12.93 12.93 0 001.17 1.15 37.11 37.11 0 01-2.63 2.93c-1.9 2-4.14 3.2-6.88 5.72s-2 2.57-3.28 3.92-9.13 6.37-13.48 8.75a36.68 36.68 0 00-7.25 5.2 8.57 8.57 0 00-2.84 3.33c-.68 1.51-.3 3 1.07 5.15s6.91 9 7.21 9.51a11.28 11.28 0 001 1.93 10.61 10.61 0 003.77 3.52 16.2 16.2 0 012.87 1.83 12.32 12.32 0 01-1.12-2.15c-.33-1.05-.83-1.51-2.28-2.9s-2.54-2-3-2.46-7.15-9.61-7.15-9.61l.76 1a35.94 35.94 0 003.61 3.35c1.77 1.61 6.38 3.23 7.17 3.91s1.31 3 1.43 3.81 1 1.4 2.73 2.83a49.75 49.75 0 014.36 4.19 11.85 11.85 0 01.85 1.13c.13.24.27.69.59.8s.25 0 .56.07.49.49.78.73.31 0 .5 0a1.1 1.1 0 00.91-.15 8.8 8.8 0 001.76-1.19c.24-.26.1-.27.16-.34s.3-.22.19-.41-1.21-.2-1.21-.2a3.69 3.69 0 01.67-.5 8.49 8.49 0 001.68-1.63c0-.17-.13-.25-.48-.24s-1-.07-1.23-.05-.31-.1-.55-.2-.75.18-1.28 0a15.82 15.82 0 01-2.89-2.13c-.66-.61-.57-.72-.93-1.45s-2.18-2.64-2.55-3.21-.69-1.76-.55-1.76a1.5 1.5 0 01.83.53c.2.3.22.39.48.45s.27-.54.27-.54.29.38.62.25.15-.35-.08-.87a2.29 2.29 0 01-.27-1.42c.12-.35.63-.43.9-.6s.51.09.75.36.52.53.75.3-.32-.9-.53-1.26c0 0 0-.3.09-.84s.36-2 .36-2 2.64-.79 5.13-1.82 3-2.74 4.35-4.56a30.27 30.27 0 014.76-4.4s.49.6 1.65 2.35a17.62 17.62 0 002.51 3.52c1.1 1.06 2.32 4.43 2.35 4.52a1 1 0 00.4.52c.28.2.46 0 .69.14s.38.74.68.88.32-.17.52-.29.49.1.86-.23 1.67-1.39 1.46-1.65-.66-.14-1.19-.28-.31-.27-.65-.38-.61.11-1-.36-1.43-1.8-1.68-2.25a5.59 5.59 0 01-.44-1.65c-.18-.83-.49-1.91-.49-1.91a3.85 3.85 0 00.61.53 9.44 9.44 0 011.55 1.34c.54.61 2.5 3.11 2.58 3.21a2.47 2.47 0 00.67.73c.31.16.17.07.41 0a4 4 0 01.56-.07c.3 0 .35.6.68.88s.9-.16 1.75-.77 1.26-1.39 1-1.55-.56-.07-1-.12-.27-.1-.53-.25-.28-.07-.67 0a1.06 1.06 0 01-1-.26 10 10 0 01-2.52-2.55 8.21 8.21 0 01-1.06-2.47c-.4-.82-1.5-2.11-1.6-2.85a4.58 4.58 0 00-.62-1.54 3.44 3.44 0 001.62-2.42 16 16 0 00.6-4.23c-.12-1.32-2.27-5.4-2.35-7.34s1.26-3.06 1.29-3.61.58-.77.87-1.31.27-.43.89-.87a17 17 0 002.28-2.57 1.27 1.27 0 01.91-.47c.39 0 .39-.09.77-.56a3.64 3.64 0 00.94-1.45 2.17 2.17 0 00-.05-1.6c-.16-.3-.7-.3-1.27-.18zm-7 2.24a1.55 1.55 0 11.22-2.18 1.55 1.55 0 01-.25 2.18z" transform="translate(.23 -8.72)"/><path d="M97.11 231.64L88.29 206a45.36 45.36 0 0128.06-57.47l6.43-2.21a45.36 45.36 0 0157.47 28.06l8.83 25.62z" transform="translate(.23 -8.72)" opacity=".5" fill="#efbb16"/><path d="M94.63 235.27l-9.46-27.52a48.65 48.65 0 0130.1-61.64l6.9-2.37a48.65 48.65 0 0161.64 30.1l9.46 27.52z" transform="translate(.23 -8.72)" fill="#efe925" opacity=".5"/><path class="cls-14" d="M153.71 150.23c-5.92-2.68-12.68-4.85-18.8-2.69a4.51 4.51 0 00-1.77 1 3.65 3.65 0 00-.59 3.67 11.61 11.61 0 002 3.31 96.55 96.55 0 0113.09 22.61 3 3 0 001 1.49 2.93 2.93 0 002.32 0q8.31-2.35 16.56-4.93c2.15-.67 6.57-1.17 8.24-2.62 1.91-1.66.7-2.46-.58-4.48-5.18-8.17-12.75-13.41-21.47-17.36z" transform="translate(.23 -8.72)"/><path d="M179.72 165l56.47 5.79-197 68.92 43.73-41.44s42.66-31.61 96.8-33.27z" transform="translate(.23 -8.72)" fill="url(#Безымянный_градиент_3)"/><ellipse class="cls-14" cx="143.1" cy="152.53" rx="3.54" ry="5.15" transform="rotate(-59.59 135.614 147.976)"/><ellipse class="cls-16" cx="158.49" cy="260.41" rx="17.6" ry="4.4" transform="rotate(-18.97 132.584 255.391)"/><path class="cls-6" d="M277.45 184.33c7.34 21.36-38.92 56.63-116.53 83.32S25.13 295 17.78 273.61 56.7 217 134.32 190.29 270.1 163 277.45 184.33z" transform="translate(.23 -8.72)"/><path d="M274.64 191.17c5.44 15.82-36.11 49.8-113.72 76.49S29 292.85 23.6 277s40-40 117.62-66.68 127.98-34.98 133.42-19.15z" transform="translate(.23 -8.72)" fill="#04875e"/><ellipse class="cls-16" cx="145.75" cy="223.35" rx="17.6" ry="5.93" transform="rotate(-18.97 119.824 218.344)"/><ellipse class="cls-18" cx="145.99" cy="224.44" rx="16.88" ry="5.87" transform="rotate(-18.97 120.073 219.432)"/><ellipse class="cls-14" cx="141.84" cy="228.33" rx="5.19" ry="2.27" transform="rotate(-18.98 115.831 223.244)"/><ellipse class="cls-14" cx="134.8" cy="227.76" rx="2.36" ry="1.36" transform="rotate(-18.98 108.822 222.687)"/><ellipse class="cls-14" cx="140.69" cy="229.23" rx="2.36" ry="1.36" transform="rotate(-18.98 114.754 224.17)"/><path class="cls-16" d="M101.08 241.77c1.3 3.1-4.31 8.38-12.55 11.78s-16 3.64-17.27.54 4.31-8.38 12.55-11.78 15.97-3.64 17.27-.54z" transform="translate(.23 -8.72)"/><path class="cls-18" d="M101.43 242.79c1.3 3.1-4.31 8.38-12.55 11.78s-16 3.64-17.27.54 4.31-8.38 12.55-11.78 15.97-3.64 17.27-.54z" transform="translate(.23 -8.72)"/><path class="cls-16" d="M192.31 210.41c.88 3.25 8.56 4 17.14 1.57s14.83-6.95 14-10.2-8.56-4-17.14-1.57-14.88 6.95-14 10.2z" transform="translate(.23 -8.72)"/><ellipse class="cls-16" cx="158.49" cy="260.41" rx="17.6" ry="4.4" transform="rotate(-18.97 132.584 255.391)"/><ellipse class="cls-18" cx="158.75" cy="261.14" rx="17.6" ry="4.4" transform="rotate(-18.97 132.828 256.14)"/><path class="cls-16" d="M111.32 274.8c-.4-2.47-7.8-3-16.51-1.17s-15.45 5.31-15 7.78 7.8 3 16.51 1.17 15.4-5.31 15-7.78z" transform="translate(.23 -8.72)"/><path class="cls-18" d="M111.57 275.53c-.4-2.47-7.8-3-16.51-1.17s-15.45 5.31-15 7.78 7.79 3 16.51 1.17 15.43-5.31 15-7.78z" transform="translate(.23 -8.72)"/><path class="cls-16" d="M204.55 242.74c-1.2-2.2 4.31-7.16 12.3-11.07s15.45-5.31 16.65-3.12-4.31 7.16-12.3 11.07-15.45 5.32-16.65 3.12z" transform="translate(.23 -8.72)"/><path class="cls-18" d="M205.17 243.3c-1.2-2.2 4.31-7.16 12.3-11.07s15.45-5.31 16.65-3.12-4.31 7.16-12.3 11.07-15.45 5.32-16.65 3.12z" transform="translate(.23 -8.72)"/><path class="cls-19" d="M219 216.64c-3.41-.12-8.61.49-15.15 1.74-12.39 6.35-31.12 14.12-52.46 21.45s-40.89 12.73-54.56 15.34c-6.23 3.19-10.84 6-13.39 8.28 9.48 0 35.81-6.07 69.5-17.65 34.39-11.8 59.18-23.42 66.06-29.16z" transform="translate(.23 -8.72)"/><path class="cls-19" d="M223.51 218.21c-.27-.79-1.36-1.27-3.14-1.47-7.38 7.13-37.62 20-67 30.1-28.92 9.94-60.07 18.29-70.83 17.55-1 1.09-1.45 2-1.21 2.73 1.7 4.94 34.91-2 74.19-15.51s69.68-28.46 67.99-33.4z" transform="translate(.23 -8.72)"/><path d="M220.36 216.74c-.41 0-.85-.08-1.33-.1-6.91 5.74-31.7 17.36-66.03 29.16-33.69 11.58-60 17.68-69.5 17.65-.36.32-.7.63-1 .93 10.76.74 41.92-7.6 70.83-17.55 29.42-10.11 59.67-22.96 67.03-30.09zm-16.48 1.64c-13.68 2.61-33.22 8-54.56 15.35s-40.07 15.1-52.46 21.45c13.68-2.61 33.22-8 54.56-15.34s40.07-15.11 52.46-21.46z" transform="translate(.23 -8.72)" fill="#052d49"/><path class="cls-18" d="M192.66 211.43c.88 3.25 8.56 4 17.14 1.57s14.83-6.95 14-10.2-8.55-4-17.14-1.57-14.88 6.95-14 10.2z" transform="translate(.23 -8.72)"/><ellipse class="cls-14" cx="83.27" cy="252.99" rx="5.19" ry="2.27" transform="rotate(-18.98 57.289 247.894)"/><ellipse class="cls-14" cx="76.23" cy="252.42" rx="2.36" ry="1.36" transform="rotate(-18.97 50.277 247.392)"/><ellipse class="cls-14" cx="82.13" cy="253.89" rx="2.36" ry="1.36" transform="rotate(-18.98 56.182 248.816)"/><ellipse class="cls-14" cx="214.13" cy="208.37" rx="5.19" ry="2.27" transform="rotate(-18.97 188.192 203.342)"/><ellipse class="cls-14" cx="219.33" cy="203.59" rx="2.36" ry="1.36" transform="matrix(.95 -.33 .33 .95 -54.06 73.69)"/><ellipse class="cls-14" cx="215.59" cy="208.38" rx="2.36" ry="1.36" transform="rotate(-18.97 189.614 203.302)"/><ellipse class="cls-14" cx="154.4" cy="264.46" rx="5.19" ry="1.31" transform="rotate(-18.97 128.462 259.44)"/><ellipse class="cls-14" cx="147.75" cy="265.02" rx="2.36" ry=".79" transform="rotate(-18.97 121.788 259.986)"/><ellipse class="cls-14" cx="153.19" cy="265.17" rx="2.36" ry=".79" transform="rotate(-18.98 127.225 260.108)"/><ellipse class="cls-14" cx="92.67" cy="281.42" rx="5.63" ry="1.6" transform="rotate(-12.32 52.376 275.933)"/><ellipse class="cls-14" cx="85.39" cy="280.97" rx="2.56" ry=".96" transform="rotate(-11.5 49.37 279.607)"/><ellipse class="cls-14" cx="91.29" cy="282.07" rx="2.56" ry=".96" transform="rotate(-12.32 51.03 276.678)"/><ellipse class="cls-14" cx="224.14" cy="236.22" rx="5.63" ry="1.6" transform="rotate(-25.63 205.099 231.346)"/><ellipse class="cls-14" cx="229.6" cy="231.39" rx="2.56" ry=".96" transform="rotate(-25.63 210.568 226.51)"/><ellipse class="cls-14" cx="225.63" cy="235.88" rx="2.56" ry=".96" transform="rotate(-25.63 206.545 230.981)"/><path class="cls-21" d="M129.18 166.72l7.27 15.74-3.33 1.14-3.94-16.88zm-46.01 22.82l-20.84 32.73-2.88-2.02 23.72-30.71zm96.75-33.26l37.59 9.62-1.03 3.37-36.56-12.99z"/><path class="cls-21" d="M19.88 277.53a11 11 0 01-1.21-4.47 13.73 13.73 0 01.62-4.63 27.35 27.35 0 014.43-8.22A76.59 76.59 0 0137 247.09a215.68 215.68 0 0131.46-20c11-5.9 22.29-11 33.74-15.87s23.1-9.2 34.84-13.27 23.63-7.71 35.6-11 24.06-6.31 36.3-8.51 24.62-3.87 37.1-3.86a71.73 71.73 0 0118.53 2.22 26.51 26.51 0 018.47 3.92 13.19 13.19 0 015.15 7.58 13 13 0 00-5.36-7.3 26.16 26.16 0 00-8.43-3.61 70.89 70.89 0 00-18.4-1.73c-12.35.23-24.64 2.1-36.76 4.49C185 185 161.2 192 137.79 200.14a512.28 512.28 0 00-68.51 28.52A215.93 215.93 0 0037.69 248a75.75 75.75 0 00-13.49 12.6 27 27 0 00-4.58 8 13.46 13.46 0 00-.78 4.52 10.9 10.9 0 001.04 4.41z" transform="translate(.23 -8.72)"/><path class="cls-16" d="M55.37 265.88c1.56 2.78-1.77 7.52-7.45 10.6s-11.55 3.31-13.11.53 1.77-7.52 7.45-10.6 11.54-3.31 13.11-.53z" transform="translate(.23 -8.72)"/><path class="cls-18" d="M56.15 266.49c1.56 2.78-1.77 7.52-7.45 10.6s-11.55 3.31-13.11.53S37.36 270.1 43 267s11.59-3.29 13.15-.51z" transform="translate(.23 -8.72)"/><ellipse class="cls-14" cx="44.14" cy="276.22" rx="4.1" ry="1.79" transform="rotate(-18.97 18.21 271.228)"/><ellipse class="cls-14" cx="48.24" cy="272.44" rx="1.86" ry="1.07" transform="rotate(-18.97 22.286 267.449)"/><ellipse class="cls-14" cx="45.29" cy="276.22" rx="1.86" ry="1.07" transform="rotate(-18.97 19.332 271.139)"/><path class="cls-16" d="M243.18 201.3c.48 3.15 6 4.84 12.39 3.77s11.15-4.49 10.67-7.64-6-4.84-12.39-3.77-11.15 4.49-10.67 7.64z" transform="translate(.23 -8.72)"/><path class="cls-18" d="M242.94 202.27c.48 3.15 6 4.84 12.39 3.77s11.14-4.49 10.67-7.64-6-4.84-12.39-3.78-11.14 4.5-10.67 7.65z" transform="translate(.23 -8.72)"/><ellipse class="cls-14" cx="259.27" cy="202.62" rx="4.1" ry="1.79" transform="rotate(-18.97 233.357 197.598)"/><ellipse class="cls-14" cx="253.72" cy="202.17" rx="1.86" ry="1.07" transform="rotate(-18.97 227.746 197.122)"/><ellipse class="cls-14" cx="258.37" cy="203.33" rx="1.86" ry="1.07" transform="rotate(-18.98 232.356 198.263)"/><path class="cls-11" d="M162.8 258.81a2.58 2.58 0 00-3 1.83l-.29 1 5.35 1.54.24.07.5.14-.14.48-.07.24-4.69 16.32-.07.24-.14.49-.49-.16-.24-.07-5.35-1.54-.29 1a2.58 2.58 0 001.76 3.2l34.64 9.95a2.58 2.58 0 003.21-1.77l5.72-19.77a2.6 2.6 0 00-1.56-3.13l-1-.29.25-2.84a1.62 1.62 0 00-1.15-1.69l-4.76-1.37-4.71-1.35a1.64 1.64 0 00-1.89.82l-1.29 2.54zm-3.67 4.3L154.87 278l4.61 1.32 4.26-14.84zm22.14 10.26a5 5 0 00-2.46-1.59 5.1 5.1 0 00-4.39 9 5.1 5.1 0 016.86-7.46zm-1.89-6.14a9.3 9.3 0 013.24 1.67 9.32 9.32 0 012.35 2.8 9.37 9.37 0 011.12 3.47 9.4 9.4 0 01-2 6.88 9.57 9.57 0 01-2.8 2.35 9.36 9.36 0 01-3.48 1.12 9.39 9.39 0 01-6.88-2 9.58 9.58 0 01-2.35-2.8 9.56 9.56 0 01-1.12-3.48 9.35 9.35 0 012-6.88 9.36 9.36 0 012.79-2.35 9.54 9.54 0 013.48-1.12 9.34 9.34 0 013.65.31zm2.93 5.93a6.38 6.38 0 00-1.57-1.89 6.29 6.29 0 00-2.19-1.13 6.22 6.22 0 00-2.46-.2 6.46 6.46 0 00-2.35.76 6.26 6.26 0 00-3 3.78 6.29 6.29 0 00-.21 2.45 6.21 6.21 0 002.34 4.23 6.22 6.22 0 002.19 1.13 6.29 6.29 0 004.79-.54 6.41 6.41 0 001.9-1.59 6.27 6.27 0 001.11-2.19 6.07 6.07 0 00-.54-4.79z" transform="translate(.23 -8.72)"/><path d="M84.86 263.85l-2.73 338.94c45.6 75.63 336.66-4 311.42-92l-176.27-294c-20.85-2.38-113.2 28.98-132.42 47.06z" transform="translate(.23 -8.72)" opacity=".37" fill="url(#Безымянный_градиент_21)"/></g><g id="hose"><path class="cls-23" d="M1280 22s-53.5 78.43-169.44 105.4c-111.77 26-208.89 9-301.22-17.63C721.85 84.49 542 19.06 464 16.42c-97.51-3.3-63.74 85.7-63.74 85.7l-6 .8s-38.73-90.86 62.08-94.17c61-2 289.92 73.56 330 86.67C874 124.09 954 134.12 1020 131.8c181.5-6.38 260-123.09 260-123.09z" transform="translate(.23 -8.72)"/><path d="M1280 17.42s-54.35 70.74-154.67 100.83c-50 15-96.33 18.67-180.33 14.5-90.78-4.5-243.67-61-243.67-61S567.12 29.1 538.05 23.42c-28.55-5.58-69.51-15.88-95.74-11.25-23.37 4.13-36.74 13.47-41.94 20-6.57 8.25-14 23.71-10 45.17a230.58 230.58 0 006.32 25.26l-2.48.33a107.6 107.6 0 01-7.31-36.58c-.42-15.94 4.5-31.8 18.57-42.59 8.13-6.24 21.24-15 56.19-15 28.05 0 85.23 13.58 150.26 32.77s163.34 52.27 201.32 62.24 107.92 25.79 159.65 27.67c81.57 3 127.32-4.81 181.2-28.12 61.25-26.5 92.79-57.28 107.25-72.5 15.47-16.27 18.66-22.1 18.66-22.1z" transform="translate(.23 -8.72)" fill="#5b7e8e"/></g><g id="Astronaut"><path d="M344.79 257.08c-1.27-.19-2.92 2.62-3.1 3.59a4.24 4.24 0 00.16 1.71c1.08 4.56 2.93 9.55 5.79 13.27s5.42 2.5 6.15-1.83c.31-1.85.4-3.74.62-5.6.32-2.76.92-5.41.67-8.2m38.66-3.24c-1.19-.47-3.43 1.9-3.82 2.8a4.22 4.22 0 00-.22 1.7c0 4.68.72 10 2.67 14.23s4.73 3.65 6.41-.4c.72-1.73 1.23-3.55 1.86-5.32.93-2.62 2.11-5.07 2.49-7.84" transform="translate(.23 -8.72)" fill="#4f6984" fill-rule="evenodd"/><path d="M445.48 114.51c-1.08.67-8-4-7.62-5.54.26-1.19 2.39.13 3.61.05 1-.06-.72-6.6.77-7 .79-.22 1.73 2.35 2.25 3.32 0 0 1.12-3.73 2.13-3.79.41 0 .9 2.78.82 4.15 0 0 1.56-3.08 2.45-2.93 1.08.18.13 4 .2 3.92.5-.43 1.57-1.73 2.28-.89s-1.64 4.9-2 5.31a10.48 10.48 0 01-4.89 3.4zm-113.65 68.96c1-.73 8.19 3.49 7.93 5.09-.2 1.2-2.39 0-3.61.16-1 .12 1.11 6.55-.36 7-.78.26-1.87-2.24-2.44-3.18 0 0-.9 3.79-1.9 3.91-.41 0-1.07-2.72-1.06-4.1 0 0-1.38 3.17-2.27 3.07-1.08-.12-.36-4-.42-3.9-.48.46-1.47 1.82-2.23 1s1.35-5 1.67-5.41a10.48 10.48 0 014.69-3.64z" transform="translate(.23 -8.72)" fill="#647c95" fill-rule="evenodd"/><path class="cls-16" d="M375 133.17c.41.21.84.41 1.24.64a12 12 0 01-.3 20.77A12 12 0 01372 156c-1.3.21-2.62.21-3.94.36-7 .75-14 2.23-20.15 5.74q-.67.39-1.32.81c-2.5 1.65-4.76 3.92-5.33 6.89a14.87 14.87 0 00.43 6.39v.08A12 12 0 01342 179a12 12 0 01-23.19 4.52 20.82 20.82 0 01-.85-3.11 36.84 36.84 0 01.6-18.89A34.29 34.29 0 01329.07 146c6.8-5.82 15.3-9.25 23.8-11.37a85.47 85.47 0 0116.6-2.54h1.45a12 12 0 012.73.52zm75.4-22.05c.35.15.43.18.77.35a12.33 12.33 0 016.64 9.53c1.13 9.22.18 19-5 26.73a28.82 28.82 0 01-6.9 7.21 32.42 32.42 0 01-8.8 4.59c-8.44 2.88-17.61 2.72-26.26 1.31a69.66 69.66 0 01-8.81-2 15.86 15.86 0 01-1.63-.62 12 12 0 013.1-22.7 13.82 13.82 0 015.9.49c5.59 1.52 11.47 2.38 17.21 1.45 2.55-.41 5.24-1.18 6.46-3.48a13.26 13.26 0 001.14-6.39 33.89 33.89 0 00-.27-3.79 15.73 15.73 0 01-.11-1.79 12.24 12.24 0 017.88-11.01 12.44 12.44 0 018.68.12z" transform="translate(.23 -8.72)"/><path class="cls-27" d="M353 214.66c-.94-6.21-2.14-15.27-2.83-20.17-1-7.37 1.78-18.7 2.54-26.61.66-6.94-1.32-15.18 2-20.83s8.78-14 17.87-13.1l32.94 3.14c9.09.87 13.93 9.34 15.07 16.24s.47 20.43-1.14 31.91c.14.22 6.89 14.14 8.78 21.22 2.93 11 3.61 22.75.14 33.65A46.69 46.69 0 01413.26 262l-.09.07a16.32 16.32 0 01-2.77 1.8A16.35 16.35 0 01386.61 248a16.49 16.49 0 014.8-10.29c.83-.82 1.78-1.5 2.6-2.33a12.77 12.77 0 002.72-4c1.57-3.73 1.42-7.92.82-11.8a51.82 51.82 0 00-5.76-16.73l-.19-.34-.39-.75-1.11-.12-6-.13c.35 2.84.78 5.67 1.21 8.52a58.34 58.34 0 01.55 17c-1.31 9.07-5.73 17.45-10.74 25.24a159.42 159.42 0 01-4.78 7l-.13.18-.12.17-1 1.3c-.38.4-.75.81-1.15 1.19a16.35 16.35 0 01-25.38-20c.52-.92 1.16-1.77 1.76-2.63 3.12-4.45 6.29-8.92 8.31-14a13.14 13.14 0 00.95-3.59 29.45 29.45 0 00-.58-7.23z" transform="translate(.23 -8.72)"/><path class="cls-28" d="M391.27 201.77s5.21-2.35 5.59-2.3c0 0 5 16.15 5.94 22 .6 3.88.75 8.07-.82 11.8a12.79 12.79 0 01-2.72 4c-.82.83-1.77 1.51-2.6 2.33a16.35 16.35 0 001.74 24.76 11.17 11.17 0 001.51.94 16.19 16.19 0 01-6.74-2.9 16.35 16.35 0 01-1.74-24.76c.83-.82 1.78-1.5 2.6-2.33a12.77 12.77 0 002.72-4c1.57-3.73 1.42-7.92.82-11.8a51.82 51.82 0 00-5.76-16.73l-.19-.34zm-34.93-46.87q.91-.22 1.83-.41c-.64 4.84.22 10.42-.25 15.35-.75 7.91-3.57 19.24-2.54 26.61.69 4.91 1.88 14 2.83 20.17a47.82 47.82 0 01.64 5.13 14.64 14.64 0 010 2 13.15 13.15 0 01-.95 3.59c-2 5.1-5.19 9.57-8.31 14-.61.86-1.24 1.71-1.76 2.63a16.55 16.55 0 00-.87 14.38c1.71 4.08 5.19 5.75 9.32 7.32.64.24 1.3.47 2 .66a16.19 16.19 0 01-7.25-1 16.35 16.35 0 01-8.4-23.35c.52-.92 1.16-1.77 1.76-2.63 3.12-4.45 6.29-8.92 8.31-14a13.14 13.14 0 00.95-3.59 29.45 29.45 0 00-.6-7.13c-.94-6.21-2.14-15.27-2.83-20.17-1-7.37 1.78-18.7 2.54-26.61a67.67 67.67 0 000-8.15 36.7 36.7 0 00-4.86 2.31q-.67.39-1.32.81c-2.5 1.65-4.76 3.92-5.33 6.89a14.87 14.87 0 00.43 6.39v.08A12 12 0 01342 179a12 12 0 01-22.35 6.26 11.84 11.84 0 00.93.74 12 12 0 0019-10 12 12 0 00-.37-2.76v-.08a14.87 14.87 0 01-.43-6.39c.57-3 2.83-5.24 5.33-6.89q.65-.43 1.32-.81a38.47 38.47 0 017.26-3.17h.53l.17-.05.18-.05 1.32-.38h1.47z" transform="translate(.23 -8.72)"/><path class="cls-28" d="M375 197.08a6.49 6.49 0 01-.24-.69 12.81 12.81 0 01-.37-3.25c-3.28-.46-6.52-1-9.68-1.41a73.84 73.84 0 01-10.86-2.21c-1.3-.39-2.6-.83-3.85-1.35.11-1.84.33-3.77.59-5.72a40.93 40.93 0 004.73 1.81c4.58 1.5 9.48 2 14.33 2.65l5.63.8c.86-2 2.51-4.16 4.63-4.55a14.63 14.63 0 011.77-.18c3.8-.38 11.73 0 14.75.81a6.32 6.32 0 014 4.36 8.07 8.07 0 01.22 1.12c1.5-.11 3-.27 4.49-.48 4.76-.69 9.56-1.64 13.75-3.8q-.12.91-.24 1.8s.71 0 1.61.15c.38.79.86 1.82 1.41 3a88 88 0 01-15.9 4.25c-1.74.25-3.5.42-5.26.53a10.7 10.7 0 01-.35 1.45 25.38 25.38 0 002.71 2.28 43 43 0 0018.76 7.82 16.26 16.26 0 006.54 0v.11q.88 3.28 1.47 6.65a21.39 21.39 0 01-7.14.28 48.6 48.6 0 01-15-4.29 40.39 40.39 0 01-12.09-7.88 7.2 7.2 0 01-1.06.24 27.39 27.39 0 01-3.2.22l-1-.11-6-.13c-1.24-.09-2.42-.21-3.43-.36a48.27 48.27 0 01-15.64 10.83 21.38 21.38 0 01-12.3 1.38c-.35-2.36-.73-5-1.09-7.66a12.71 12.71 0 003.15 1.05c3.73.58 7.52-.87 10.75-2.66a48.23 48.23 0 009.41-6.86zm-21.37 23.76a46.18 46.18 0 018.27.65 10.2 10.2 0 011.18-1.69c1.51-1.69 3.93-3.29 6.16-2.89a14.69 14.69 0 011.72.45c3.69 1 11 4.15 13.53 5.94a4.92 4.92 0 011.6 2q-.08.81-.2 1.62a45.73 45.73 0 01-2.52 9.57l-.16.17a4.44 4.44 0 01-.52.74c-1.45 1.64-4.21 2.14-6.34 1.67A59.5 59.5 0 01362 233a6.32 6.32 0 01-2.2-5.48 7.82 7.82 0 01.11-.78q-1.07-.13-2.13-.23a34.38 34.38 0 00-5.56-.12q.21-.48.4-1a13.14 13.14 0 00.95-3.59c.04-.33.05-.64.06-.96zm44.82 5.98v.11l-.11-.23zm.2.57v.09l-.05-.23zm32-4.86a52.41 52.41 0 01-2.31 17.57l-.08.25c-3.77.28-12-.41-15.08-1.33a6.32 6.32 0 01-3.82-4.51 9.57 9.57 0 01-.22-1.56 64.5 64.5 0 01-6.83-.31 18.06 18.06 0 01-5.61-1.19l.06-.14a16.51 16.51 0 001.2-5.33c.34.18.68.36 1 .52l.58.17a25.51 25.51 0 004.73.67c1.77.13 3.57.17 5.34.14a9 9 0 01.43-1.3c.9-2.08 2.69-4.37 4.94-4.68a14.37 14.37 0 011.77-.12 64.45 64.45 0 0113.88 1.15zM421 158.85a44.46 44.46 0 0012.74-2.25 30.57 30.57 0 0015.7-11.81c5.15-7.77 6.1-17.51 5-26.73a12.59 12.59 0 00-2.6-6.24 12.39 12.39 0 016 9.17c1.13 9.22.18 19-5 26.73a30.58 30.58 0 01-15.7 11.81 46.63 46.63 0 01-16 2.28c-.04-1.03-.06-2.02-.14-2.96z" transform="translate(.23 -8.72)"/><path class="cls-29" d="M406.67 158.09c-.66-2.71-1.72-6.21-4.35-7.14-4.56-1.61-18-3.24-23-2.53-3.25.46-5.84 3.75-7.15 6.76a23.58 23.58 0 00-1 12c.67 2.77 2.78 5.71 5.51 6.53a56.63 56.63 0 009.26 1.51 77.46 77.46 0 0013.22.39c3.14-.34 6.7-2.28 7.95-5.18s.35-9.09-.44-12.34z" transform="translate(.23 -8.72)"/><path d="M419.45 137.8a24.6 24.6 0 01-9.59 4.32c-1.6.31-42-.1-52.13-3.52a23.19 23.19 0 01-6.48-3.5l1.63-.42q1.85-.46 3.73-.85a20.88 20.88 0 002.2.89c11.62 3.95 40.08 5.87 52.13 3.52a21.6 21.6 0 003.61-1 43.38 43.38 0 004.9.56z" transform="translate(.23 -8.72)" fill="#720107" fill-rule="evenodd"/><path class="cls-31" d="M340.24 139c.59.8 1.16 1.6 1.71 2.37a62.83 62.83 0 019.56 18.85 35.92 35.92 0 00-3.64 1.81q-.67.39-1.32.81c-.43.28-.85.58-1.25.9-.06-.25-.13-.49-.2-.73a57.66 57.66 0 00-9.27-18.31c-.57-.79-1.13-1.6-1.72-2.38a52 52 0 016.13-3.32z" transform="translate(.23 -8.72)"/><path class="cls-32" d="M350.36 156.75q.64 1.72 1.15 3.48h-.3l-.12.06h-.22l-.13.06h-.21l-.13.06h-.21l-.13.07h-1.12l-.13.07-.09.05h-.12l-.13.07-.1.06h-.11l-.13.08q-.67.39-1.32.81l-.1.07h-.07l-.1.07h-.06l-.1.07-.07.05-.14.11-.14.11c-.06-.25-.13-.49-.2-.73q-.44-1.58-1-3.12.65-.43 1.32-.81a36.83 36.83 0 014.21-.69z" transform="translate(.23 -8.72)"/><path class="cls-31" d="M425.8 138.08zm5.29-2l.43 1a41 41 0 013.14 18.48 26.19 26.19 0 01-.71 4.91 45.8 45.8 0 01-8.35 1.25 5.78 5.78 0 001.65-3.08 26.7 26.7 0 00.22-10.24 30.21 30.21 0 00-2.91-9.93c-.12-.23-.24-.46-.38-.69q1.25-.09 2.49-.29a12.61 12.61 0 004.42-1.4z" transform="translate(.23 -8.72)"/><path class="cls-32" d="M434.6 156.3a24.72 24.72 0 01-.66 4.18h-1.6l-1.17.22h-2.06l-1.44.16h-.92l-.79.05a5.78 5.78 0 001.65-3.08c0-.14.07-.29.11-.43a40.85 40.85 0 006.43-1.62z" transform="translate(.23 -8.72)"/><path class="cls-31" d="M384.68 205.46c.21 1.49.44 3 .67 4.49q.23 1.55.43 3.1a21.27 21.27 0 00-4.43-1.28 49.7 49.7 0 00-16.16-.42 36.53 36.53 0 00-12.2 3.39v-.08c-.32-2.11-.67-4.55-1-7 7.07-3 15.07-3.85 22.6-3.56a46.33 46.33 0 0110.09 1.36z" transform="translate(.23 -8.72)"/><path class="cls-32" d="M377.35 204.23a45.87 45.87 0 01-10.48 6.93l-1.68.19a36.53 36.53 0 00-12.2 3.39v-.08l-.07-.47v-.14l-.06-.37v-.12l-.15-1v-.65l-.18-1.22v-1.29l-.11-.77-.13-1a39.45 39.45 0 014.73-1.68l.12.9a18.8 18.8 0 008.24-2.5 65.75 65.75 0 019.52-.28c.59.03 1.52.09 2.45.16z" transform="translate(.23 -8.72)"/><path class="cls-31" d="M427.43 204c.3.88.55 1.71.75 2.46q.6 2.23 1.06 4.5a43.84 43.84 0 00-4.81 0c-9.73.4-19.44 3.5-26.65 10.16-.06-.53-.13-1-.21-1.57a48.6 48.6 0 00-1.35-6.05c8.2-6.07 18.7-9.15 28.54-9.46.88-.04 1.78-.04 2.67-.04z" transform="translate(.23 -8.72)"/><path class="cls-32" d="M428.18 206.46l.07.25v.07l.05.19v.07l.06.25.06.22v3.19l.05.26a43.84 43.84 0 00-4.81 0 49.61 49.61 0 00-8.85 1.15 55.33 55.33 0 01-8.1-3q-1-.44-1.95-.92a52.94 52.94 0 0111.16-3.19 43.51 43.51 0 005.69 1.3 16.26 16.26 0 006.54 0zm-28 4.38c.67 2.39 1.32 4.82 1.81 6.91a34.57 34.57 0 00-4.25 3.33v-2.3l-.06-.34v-.53l-.07-.34v-.53l-.07-.34v-.55l-.08-.34v-.51l-.09-.35v-.51l-.1-.36v-.18a43.27 43.27 0 012.94-3.07z" transform="translate(.23 -8.72)"/><path class="cls-33" d="M407.63 156c-.66-2.71-1.72-6.21-4.35-7.14-4.56-1.61-18-3.24-23-2.53-3.25.46-5.84 3.75-7.15 6.76a23.57 23.57 0 00-1 12c.67 2.77 2.78 5.71 5.51 6.53 4.66 1.41 17.4 2.45 22.47 1.9 3.14-.34 6.7-2.27 7.95-5.18s.36-9.06-.43-12.34z" transform="translate(.23 -8.72)"/><path d="M409.61 154.71c-.67-2.77-2.78-5.71-5.51-6.53-4.66-1.4-17.64-2.5-22.47-1.9-2.83.35-5.4 2.89-6.53 5.51a24.53 24.53 0 00-1 12c.67 2.77 2.78 5.71 5.51 6.53 4.66 1.4 17.64 2.5 22.47 1.9 2.83-.35 5.4-2.9 6.53-5.51a24.55 24.55 0 001-12z" transform="translate(.23 -8.72)" fill="#c2c9d1" fill-rule="evenodd"/><path class="cls-33" d="M394.11 152.9a4.48 4.48 0 00-2.5-3.34 34.5 34.5 0 00-10.3-.87 4.48 4.48 0 00-3 2.87 14.22 14.22 0 00-.53 6.21 4.48 4.48 0 002.5 3.34 34.5 34.5 0 0010.3.87 4.48 4.48 0 003-2.87 14.22 14.22 0 00.53-6.21zm11.99-.81a2.31 2.31 0 00-1.39-1.65A21.38 21.38 0 00399 150a2.31 2.31 0 00-1.65 1.39 6.21 6.21 0 00-.26 3 2.31 2.31 0 001.41 1.61 21.4 21.4 0 005.69.48 2.31 2.31 0 001.65-1.39 6.21 6.21 0 00.26-3zm-.66 7.23a2.31 2.31 0 00-1.39-1.65 21.42 21.42 0 00-5.69-.48 2.31 2.31 0 00-1.65 1.39 6.2 6.2 0 00-.26 3 2.31 2.31 0 001.39 1.65 21.43 21.43 0 005.69.48 2.31 2.31 0 001.65-1.39 6.22 6.22 0 00.26-3zm-1.68 7.74a7.68 7.68 0 00-4-1.62c-3.25-.49-12.16-1.24-15.44-1.31a7.67 7.67 0 00-4.24.92 1.82 1.82 0 00-.21 2.54 7.67 7.67 0 004 1.62c3.25.49 12.16 1.24 15.44 1.31a7.68 7.68 0 004.24-.92 1.82 1.82 0 00.21-2.54z" transform="translate(.23 -8.72)"/><path class="cls-23" d="M353.62 219.8a47.43 47.43 0 0112.11 1 69.88 69.88 0 0111.17 3.14 36.68 36.68 0 018.36 4.17l.24.18.15.15a44.07 44.07 0 01-1.08 4.53 2.77 2.77 0 01-2.24-.26c-.8-.5-1.58-1-2.41-1.48a54.86 54.86 0 00-20.6-5.85 31.63 31.63 0 00-6.67 0 13.11 13.11 0 00.94-3.57 14.61 14.61 0 00.03-2.01z" transform="translate(.23 -8.72)"/><path class="cls-35" d="M386.64 228.11c.15-1.92.22-4.45-1.31-5.64-2.64-2.05-11.11-6-14.56-6.66-2.23-.41-4.65 1.2-6.16 2.89a16.3 16.3 0 00-3.28 7.68 6.32 6.32 0 002.2 5.48 59.5 59.5 0 0014.34 6.14c2.14.46 4.89 0 6.34-1.67s2.25-5.91 2.43-8.22z" transform="translate(.23 -8.72)"/><path class="cls-36" d="M388.23 227.68a6.32 6.32 0 00-2.2-5.48 58.51 58.51 0 00-14.34-6.13 6.32 6.32 0 00-5.48 2.2 17 17 0 00-3.28 7.68 6.32 6.32 0 002.2 5.48 58.51 58.51 0 0014.34 6.13 6.32 6.32 0 005.48-2.2 17 17 0 003.28-7.68z" transform="translate(.23 -8.72)"/><path class="cls-23" d="M399 225.35v.11l-.11-.23zm.2.57v.09l-.05-.23zm-1.2-1.71l.3.18c.4.22.81.44 1.23.63l.58.17a25.5 25.5 0 004.73.67 67.65 67.65 0 009.19 0 21.27 21.27 0 003.28-.07c.08 0-.06 0 .21-.1a2.73 2.73 0 013.79 2.81c-.19 1.63-1.94 2.6-3.9 2.77-1.15.1-2.31 0-3.43.06a67.24 67.24 0 01-11.11-.15 18.1 18.1 0 01-5.62-1.19 18.8 18.8 0 00.75-5.78z" transform="translate(.23 -8.72)"/><path class="cls-35" d="M434.46 226.69c-.46-1.87-1.2-4.3-3-4.94-3.16-1.11-12.44-2.22-15.92-1.73-2.25.32-4 2.6-4.94 4.68a16.3 16.3 0 00-.69 8.33 6.31 6.31 0 003.82 4.51 59.5 59.5 0 0015.54 1.29c2.17-.24 4.63-1.58 5.49-3.59s.24-6.3-.3-8.55z" transform="translate(.23 -8.72)"/><path class="cls-36" d="M435.83 225.78a6.32 6.32 0 00-3.82-4.51 58.5 58.5 0 00-15.54-1.27 6.32 6.32 0 00-4.47 3.8 17 17 0 00-.69 8.33 6.32 6.32 0 003.82 4.51 58.5 58.5 0 0015.55 1.29 6.32 6.32 0 004.51-3.82 17 17 0 00.64-8.33z" transform="translate(.23 -8.72)"/><path class="cls-23" d="M352 183.5v-.48zm-.27.64a3 3 0 00.24-.54zm-.41.54a2.62 2.62 0 00.39-.51zm68.36-1.25q-.12.91-.24 1.8c0 .07.72 1.46 1.7 3.55a51.47 51.47 0 01-14.58 3.86c-13.7 1.94-28-.63-41-2.5a73.73 73.73 0 01-10.86-2.21 41.35 41.35 0 01-4.48-1.61c.17-1.89.43-3.84.71-5.8a2.4 2.4 0 01.3.25 39.72 39.72 0 004.93 1.91c4.58 1.5 9.48 2 14.33 2.65 11.74 1.67 23.55 3.61 35.47 1.89 4.7-.68 9.5-1.63 13.69-3.79z" transform="translate(.23 -8.72)"/><path class="cls-35" d="M399.85 187.55c-.53-1.85-1.36-4.25-3.2-4.82-3.2-1-12.52-1.75-16-1.13-2.23.4-3.94 2.75-4.76 4.86a16.3 16.3 0 00-.38 8.35 6.32 6.32 0 004 4.36 59.49 59.49 0 0015.58.71c2.16-.32 4.57-1.75 5.35-3.79s.05-6.31-.59-8.54z" transform="translate(.23 -8.72)"/><path class="cls-36" d="M401.18 186.59a6.32 6.32 0 00-4-4.36 58.52 58.52 0 00-15.58-.71 6.32 6.32 0 00-4.36 4 17 17 0 00-.38 8.35 6.32 6.32 0 004 4.36 58.49 58.49 0 0015.58.71 6.31 6.31 0 004.36-4 17 17 0 00.38-8.35z" transform="translate(.23 -8.72)"/><path class="cls-23" d="M350.12 193a5.44 5.44 0 00.08 1.73 4 4 0 003.08 2.83 22.38 22.38 0 009.33.36c5.77-.74 11.61-2.42 16.24-5.6a6.68 6.68 0 002.72-2.77l.08-.18a2.83 2.83 0 013-1.51 2.1 2.1 0 01.54.17 2.22 2.22 0 01.79.52 2.93 2.93 0 01.52 3.34c-1.15 2.55-3.53 4.38-6 5.82a44.89 44.89 0 01-18.4 5.76 27.31 27.31 0 01-10-.56 10.86 10.86 0 01-6.44-4.35c-1.61-2.54-1.61-5.88-.72-8.85.65-2.16 2.16-4 3.32-5.93a3.79 3.79 0 011.32-1.18 2.52 2.52 0 011.12-.19c-.59 3.83-1.1 7.5-.58 10.59zM420 180.61a2.76 2.76 0 011.59-.17 2.11 2.11 0 01.55.17 2.09 2.09 0 01.93.65c.27.29.51.62.76.94 3 3.79 5.93 7.83 7 12.48a8.51 8.51 0 01-1.31 7.4c-1.85 2.23-5.07 3-7.88 3.12a35.45 35.45 0 01-13.53-2.78c-5.24-2-10.34-4.78-14.08-8.79a17.69 17.69 0 01-1.61-2 3.41 3.41 0 01-.3-.54 2.73 2.73 0 014.65-2.75c4.06 5.09 10.33 8.25 16.69 10.12a22.41 22.41 0 009.36 1.16 3.56 3.56 0 002.64-1.21c.57-.94.23-2.18-.17-3.41-1.18-3.55-3.49-6.65-5.9-9.66.21-1.52.41-3.11.61-4.73z" transform="translate(.23 -8.72)"/><path class="cls-27" d="M340.31 92.9v-1.12C341.22 67.37 363 48.31 389 49.24A48.46 48.46 0 01422.35 64a36.23 36.23 0 0111.31 18.87c2.51 9.66 1.23 28.56-2.55 37.79-3.39 8.26-11.41 15.91-20.17 17.62-12.05 2.35-40.51.43-52.13-3.52-8.45-2.87-15.37-11.53-17.62-20.17-1.41-5.47-1.63-13.79-.88-21.69z" transform="translate(.23 -8.72)"/><path class="cls-29" d="M345.9 83.62a30.8 30.8 0 011.7-5.25c2.9-6.55 10.84-13.37 18.4-14.71 13.18-2.4 38.89-.77 49.76 4.35 9.24 4.36 12.24 8.67 14.47 14.68a27.75 27.75 0 011.27 5 1 1 0 01.35 0c1.42.14 2.47 3.11 2.36 6.62-.1 3.18-1.12 5.72-2.37 6.07a24.39 24.39 0 01-2.28 8.59c-3 5.66-10.06 12-18.21 13-11.21 1.43-37.81-.37-48.73-3.29-7.94-2.12-14.54-8.23-16.78-14.24a17.84 17.84 0 01-.78-2.9 28.76 28.76 0 01-.4-3 1.9 1.9 0 01-.92.17c-2-.15-3.42-3.73-3.11-8s2.21-7.62 4.24-7.47a2 2 0 011.03.38z" transform="translate(.23 -8.72)"/><path class="cls-29" d="M350.16 66.24a42 42 0 00-6.56 21.06v1.12c-.75 7.9-.53 16.22.88 21.64 2.25 8.64 9.17 17.3 17.62 20.17 11.62 3.95 40.08 5.87 52.13 3.52 5.64-1.1 11-4.66 15-9.26-4 6.67-10.85 12.3-18.22 13.74-12.05 2.35-40.51.43-52.13-3.52-8.45-2.87-15.37-11.53-17.62-20.17-1.41-5.42-1.62-13.75-.87-21.64v-1.12a42.28 42.28 0 019.77-25.54z" transform="translate(.23 -8.72)"/><path class="cls-37" d="M431.54 81c-2.24-6-5.23-10.32-14.48-14.68-10.87-5.12-36.57-6.75-49.76-4.35-7.56 1.37-15.49 8.17-18.39 14.7-2.5 5.63-3.88 16.13-2.54 23.19a17.85 17.85 0 00.78 2.9c2.24 6 8.84 12.11 16.78 14.24 10.92 2.92 37.52 4.72 48.73 3.29 8.15-1 15.19-7.33 18.21-13 3.39-6.29 3.13-19.59.67-26.29z" transform="translate(.23 -8.72)"/><ellipse cx="345.61" cy="89.23" rx="7.76" ry="3.68" transform="rotate(-85.84 341.052 84.744)" fill="#334f6c"/><ellipse cx="345.03" cy="89.33" rx="7.27" ry="3.08" transform="rotate(-85.85 340.44 84.865)" fill="#47607b"/><path class="cls-33" d="M433.16 86c-1.41-.14-2.65 2.6-2.76 6.11s1 6.48 2.37 6.62 2.65-2.6 2.76-6.11-.95-6.48-2.37-6.62z" transform="translate(.23 -8.72)"/><path class="cls-37" d="M433.8 86.27c-1.28-.13-2.41 2.51-2.51 5.89s.85 6.22 2.13 6.35 2.41-2.51 2.51-5.89-.85-6.23-2.13-6.35z" transform="translate(.23 -8.72)"/><path d="M353.84 73.91C360.21 62.56 376.14 55.38 394 57c14.35 1.29 26.46 7.95 32.87 16.9a26.19 26.19 0 014 7.26c2.32 6.24 1.39 18.64-1.75 24.51-2.81 5.25-10.23 10.76-17.79 11.72-10.4 1.32-35.09-.34-45.22-3.05-7.37-2-13.5-7.63-15.57-13.21-2.32-6.24-1-18.2 1.64-24.21a21.16 21.16 0 011.66-3.01z" transform="translate(.23 -8.72)" fill="#002f5b" fill-rule="evenodd"/><path d="M351.58 78.45c8-6.71 20.3-10.44 33.67-9.23 14.35 1.29 26.46 7.95 32.87 16.9a26.19 26.19 0 014 7.26c1.8 4.82 1.65 13.33 0 19.65a25 25 0 01-10.83 4.35c-10.4 1.32-35.09-.34-45.22-3.05-7.37-2-13.5-7.63-15.57-13.21-2.09-5.75-1.16-16.34 1.08-22.67z" transform="translate(.23 -8.72)" fill="#001c46" fill-rule="evenodd"/><path d="M375.69 58.6c9.22-6.67 41-2.59 47.85 16.15" opacity=".6" fill="none" stroke="#fff" stroke-linecap="round" stroke-linejoin="round" stroke-width="12"/><circle cx="424.27" cy="96.37" r="4.86" transform="rotate(-69.51 418.091 91.852)" opacity=".6" fill="#fff"/></g></svg>