<svg id="Слой_1" data-name="Слой 1" xmlns="http://www.w3.org/2000/svg" xmlns:xlink="http://www.w3.org/1999/xlink" viewBox="0 0 514.87 484.24"><defs><linearGradient id="Безымянный_градиент_3" x1="95.94" y1="332.74" x2="161.47" y2="332.74" gradientTransform="rotate(.11 -2101.268 -2248.146)" gradientUnits="userSpaceOnUse"><stop offset="0" stop-color="#f9ff7b"/><stop offset=".03" stop-color="#faf25f"/><stop offset=".08" stop-color="#fbe33d"/><stop offset=".13" stop-color="#fcd722"/><stop offset=".18" stop-color="#fdcf0f"/><stop offset=".23" stop-color="#fdca04"/><stop offset=".28" stop-color="#fdc800"/><stop offset=".67" stop-color="#f18f34"/><stop offset=".89" stop-color="#e95f32"/><stop offset="1" stop-color="#e3312d"/></linearGradient><linearGradient id="Безымянный_градиент_3-2" x1="492.43" y1="200.87" x2="540.94" y2="200.87" gradientTransform="rotate(-12.41 399.459 549.28)" xlink:href="#Безымянный_градиент_3"/><linearGradient id="Безымянный_градиент_3-3" x1="418.37" y1="56.61" x2="452.33" y2="56.61" gradientTransform="rotate(3.31 316.35 -1693.119)" xlink:href="#Безымянный_градиент_3"/><style>.cls-7{fill:#04875e}.cls-8{fill:#cedae7}.cls-11{fill:#ffc83e}.cls-17{fill:#f9ff7b}.cls-18{fill:#fff252;opacity:.3}</style></defs><path d="M45.26 196.24C91 115.53 226.07 58.35 278.56 41.53c52.72-16.9 102.68-19.29 128.26-10.15S524.34 96.87 529 209.46c4.67 113.46-53.34 202-122.85 252.29-75.77 54.81-184.29 53.5-225.64 42.65s-116.13-41-153.4-144.5c-29.61-82.09-.71-129.67 17.42-162.35z" transform="translate(-14.37 -26.12)" fill="#f45e1c"/><path d="M47.17 200.26C95.48 117.84 221.85 66 277.4 48.25c51.59-16.51 103.29-16 128.31-7s119.15 63.85 119.5 173.89c.34 109.14-38.25 175-111.3 236.22C343.81 510 226.16 507.6 185.7 497s-114.57-35.56-152-136.26C0 269.87 47 200.62 47.17 200.26z" transform="translate(-14.37 -26.12)" fill="#ff811a"/><path d="M116.44 207c26.14-32.22 44.55-56.11 111.41-89.44s127.46-44.5 163.24-40.65c118.85 12.82 128.53 174.4 114.55 227.55-4.31 16.39-16.38 71.52-96.9 120.5-49 29.83-111.51 47.46-164.85 38.91s-100.91-39-130.95-93.64c-37.5-68.17-32.55-118.78 3.5-163.23" transform="translate(-14.37 -26.12)" fill="#e73e48"/><path d="M118.41 208.56c-34.34 38.57-38.93 96.11-1 161.69 30.33 52.41 75.67 84.28 127.34 91.89 61.57 9.08 112.27-10.42 159.65-39.41 77.8-47.6 90.44-97.2 97.09-116.56 16-46.74.56-209.47-114.32-222-34.57-3.77-95.29 5.48-159.9 37.83s-82.49 53.78-107.75 85.11z" transform="translate(-14.37 -26.12)" fill="#f25a27"/><path d="M230.87 407.45c-1.78-6.06-5.39-11.84-9-17.5l-22.76-36.16-31.45-50c-7.19-11.41-14.44-23-19-35.12-3.59-9.56-5.42-19.27-8.9-28.84s-9-19.44-17.63-25.84c-7.94 1-10.93 10-9.34 18.53s6.51 16.78 10.2 25.14 6.2 17.81 2.76 24.47c-2 3.81-5.73 6.39-6.76 10.72-1.26 5.3 2 11.91 6.47 16.85s10 8.69 15.19 12.86c20.86 16.84 35.76 41.6 39.35 65.44 1 6.68 1.19 13.32 3.17 20 8.27 28 55.74 26.88 47.7-.55zm154.76-156.77c-2.25 4.81-.79 10.62 1.94 15.18s6.6 8.32 9.66 12.66A43 43 0 01405 301.3c.19 4.51 0 9.78 3.54 12.58 2 1.57 4.65 1.88 7 2.91 5.82 2.62 8.47 9.36 9.83 15.6s2.13 13 6.16 17.92 12.88 6.57 16.41 1.25c2.23-3.36 1.37-8-.56-11.5s-4.8-6.5-6.75-10c-6-10.95-2.22-25.13-7.49-36.46-4-8.54-12.61-14.34-16-23.1-1.93-4.91-2.06-10.38-4-15.29-3.82-9.52-21.89-16.56-27.51-4.53zm-10.9-116.42c-.94 10.83 6 20.83 14 28.15s17.53 13.11 24.46 21.49c10 12.14 13.53 28.21 19 43a157.32 157.32 0 0030.12 50c3.09 3.46 6.81 7 11.45 7.26 7.66.4 12.73-8.7 11.91-16.32s-5.34-14.26-8.2-21.37a51.26 51.26 0 01-2-31.88c2-7.56 5.74-15.28 3.68-22.81-2.95-10.84-15.69-15-24.8-21.55-14.31-10.31-20.57-28.15-27.56-44.34-2.79-6.46-6.26-13.29-12.6-16.33-9-4.3-14.71 4.54-21.4 7.91-8.26 4.18-17.01 4.66-18.06 16.79zm-78.17 179.57c1.29-10.79-5.32-21-13.12-28.58s-17.1-13.67-23.75-22.27c-9.64-12.46-12.61-28.63-17.6-43.57a157.32 157.32 0 00-28.49-51c-3-3.56-6.58-7.23-11.21-7.63-7.64-.65-13 8.28-12.43 15.93s4.87 14.43 7.5 21.63a51.26 51.26 0 011 31.93c-2.23 7.49-6.23 15.08-4.42 22.68 2.6 10.93 15.2 15.48 24.1 22.34 14 10.77 19.65 28.79 26.11 45.21 2.58 6.54 5.83 13.48 12.06 16.73 8.81 4.59 14.85-4.07 21.64-7.22 8.4-3.89 17.16-4.09 18.61-16.18zM336.47 354c5 8.75 3.22 18.09 4.85 27.27 1.72 9.65 7.56 19.48 15.89 26.74 2.65 2.31 6.71 4.46 8.81 2.64 2.48-2.16-.66-7.53 1.67-9.83 2.93-2.88 8.8 2.5 13.6 3.38 4.32.79 7.56-2.64 7.59-6.61s-2.38-8.17-5.26-11.77-6.3-6.85-9-10.56c-12.13-16.69-7.1-45.89-30.12-56.32-7.92-3.59-16.46-.56-21.14 4.36-9.36 9.87 7.26 20.52 13.11 30.7zm-4.94-184.67c-5.11-8.7-3.41-18.06-5.13-27.22-1.82-9.63-7.76-19.4-16.17-26.57-2.67-2.28-6.76-4.39-8.84-2.54-2.46 2.18.74 7.53-1.57 9.85-2.89 2.91-8.83-2.41-13.64-3.24-4.33-.75-7.53 2.72-7.52 6.69s2.46 8.14 5.38 11.71 6.37 6.79 9.1 10.46c12.3 16.56 7.58 45.81 30.7 56 8 3.51 16.46.38 21.09-4.58 9.28-9.89-7.44-20.41-13.4-30.56z" transform="translate(-14.37 -26.12)" fill="#d94037"/><path d="M199.85 319.31l96.44 39.37 92.14-150.1L292 169.21l-92.14 150.1" transform="translate(-14.37 -26.12)" fill="#fff"/><path class="cls-7" d="M347.86 204.89a1.62 1.62 0 00-1.91.68 1.09 1.09 0 00.48 1.65l13.77 5.62a1.62 1.62 0 001.91-.68 1.09 1.09 0 00-.47-1.65zm12.99-21.52a1.57 1.57 0 00-1.85.63 1.06 1.06 0 00.46 1.6 1.57 1.57 0 001.84-.66 1.06 1.06 0 00-.45-1.57z" transform="translate(-14.37 -26.12)"/><path class="cls-8" d="M356.1 212.68a1.62 1.62 0 00-1.91.68 1.09 1.09 0 00.47 1.65l3.36 1.37a1.62 1.62 0 001.91-.68 1.09 1.09 0 00-.47-1.65z" transform="translate(-14.37 -26.12)"/><path class="cls-7" d="M409.41 196.21l-5.32-9.77a11.47 11.47 0 01-.71 11.58l5.32 9.77a11.47 11.47 0 00.71-11.58zm-41.89 16.7a1.16 1.16 0 00-1.37.49l-3.32 5.41a.79.79 0 00.34 1.19l5.52 2.25a1.16 1.16 0 001.37-.49l3.32-5.41a.78.78 0 00-.34-1.18z" transform="translate(-14.37 -26.12)"/><path d="M192 349.85a8.07 8.07 0 01-.67-1.63l-.62-1.14-.66-1.21-.69-1.26-.7-1.28L188 342l-.68-1.26-.66-1.21-.62-1.14a8.06 8.06 0 00.67 1.63z" transform="translate(-14.37 -26.12)" fill="none"/><path class="cls-7" d="M290.88 321.94c4.08 1.66 5.39 6.25 2.94 10.25s-7.75 5.89-11.83 4.22l-51.72-21.11c-4.08-1.66-5.39-6.25-2.94-10.25s7.75-5.89 11.82-4.22zm-46.7-8.17l31 12.65a2.05 2.05 0 002.42-.87 1.38 1.38 0 00-.6-2.09l-31-12.65a2 2 0 00-2.41.86 1.38 1.38 0 00.6 2.1" transform="translate(-14.37 -26.12)"/><path d="M246 310.82a2 2 0 00-2.41.86 1.38 1.38 0 00.6 2.1l31 12.65a2.05 2.05 0 002.42-.87 1.38 1.38 0 00-.6-2.09z" transform="translate(-14.37 -26.12)" fill="#fcf8f7"/><path class="cls-7" d="M244.4 342.62a10.05 10.05 0 00-10.33 3.69.75.75 0 01.31 1.13c-2.17 3.77-.56 7.66 2.75 9a7.68 7.68 0 005.54 0c6.53-2.33 7.54-10.23 2.07-12.68a.75.75 0 01-.34-1.14z" transform="translate(-14.37 -26.12)"/><path class="cls-11" d="M398.71 181.75c6.46 2.64 8.55 9.94 4.67 16.27l-108.5 176.75c-3.89 6.34-12.31 9.34-18.77 6.7l-86.55-35.33c-6.46-2.64-8.56-9.94-4.67-16.27l108.5-176.75c3.89-6.33 12.31-9.34 18.77-6.7zM187.26 330.83c-3.1 5.05-1.43 10.88 3.72 13l86.55 35.33c5.16 2.11 11.87-.29 15-5.35L401 197.05c3.1-5.05 1.43-10.88-3.72-13l-86.55-35.33c-5.16-2.11-11.87.29-15 5.35L187.26 330.83" transform="translate(-14.37 -26.12)"/><path class="cls-8" d="M295.08 183.34a1.62 1.62 0 00-1.91.68 1.09 1.09 0 00.47 1.65l23.92 9.77a1.62 1.62 0 001.91-.68 1.09 1.09 0 00-.47-1.65z" transform="translate(-14.37 -26.12)"/><path class="cls-7" d="M333.25 172.11a1.57 1.57 0 00-1.85.66 1.06 1.06 0 00.46 1.6l22.1 9a1.57 1.57 0 001.84-.66 1.06 1.06 0 00-.46-1.6z" transform="translate(-14.37 -26.12)"/><path class="cls-11" d="M355.76 180.46a1.68 1.68 0 01.73 2.54 2.49 2.49 0 01-2.93 1l-22.09-9a1.68 1.68 0 01-.73-2.54 2.49 2.49 0 012.93-1zm-23.89-6.1l22.1 9a1.57 1.57 0 001.84-.66 1.06 1.06 0 00-.46-1.6l-22.1-9a1.57 1.57 0 00-1.85.66 1.06 1.06 0 00.46 1.6M362 185.25a2.49 2.49 0 01-2.93 1 1.68 1.68 0 01-.73-2.54 2.49 2.49 0 012.93-1 1.68 1.68 0 01.73 2.54zm-2.52.38a1.57 1.57 0 001.84-.66 1.06 1.06 0 00-.46-1.6 1.57 1.57 0 00-1.86.63 1.06 1.06 0 00.46 1.6" transform="translate(-14.37 -26.12)"/><path d="M397.29 184.07c5.16 2.1 6.83 7.93 3.72 13L292.51 373.8c-3.1 5.05-9.82 7.45-15 5.35L191 343.82c-5.16-2.1-6.83-7.93-3.72-13l108.5-176.75c3.1-5.05 9.82-7.45 15-5.35zM199.85 319.31l96.44 39.37 92.14-150.1L292 169.21l-92.14 150.1m36.31 38.81a9.68 9.68 0 007 0c8.24-2.94 9.49-12.93 2.58-16a1.06 1.06 0 00-1.32.56 10.05 10.05 0 00-10.33 3.69h-.07a1 1 0 00-1.31.47c-2.73 4.75-.71 9.67 3.47 11.38m119.6-177.66l-22.1-9a2.49 2.49 0 00-2.93 1 1.68 1.68 0 00.73 2.54l22.1 9a2.49 2.49 0 002.93-1 1.68 1.68 0 00-.73-2.54m5.51 2.25a2.49 2.49 0 00-2.93 1 1.68 1.68 0 00.73 2.54 2.49 2.49 0 002.93-1 1.68 1.68 0 00-.73-2.54" transform="translate(-14.37 -26.12)" fill="#19d26e"/><path class="cls-11" d="M338.27 274.36c-13.28 21.63-41.93 31.87-64 22.86s-29.19-33.85-15.91-55.48 41.93-31.87 64-22.86 29.19 33.84 15.91 55.48z" transform="translate(-14.37 -26.12)"/><path class="cls-7" d="M293.33 235.19a1.13 1.13 0 01.35.9c0 .89-.53 11.64-.78 12.42a1.56 1.56 0 01-1.37 1c-.42.06-4.84-.2-5.34-.24s-.85 0-1.1.79a36.32 36.32 0 00-.42 8.93 34.72 34.72 0 002.23 8.53 1.5 1.5 0 00.32.43c.28.23.56.15.9 0s4.7-1.77 5.12-1.84a1.57 1.57 0 011.26.25 1.24 1.24 0 01.28.33c.4.68 3.13 10.92 3.29 11.79a1.26 1.26 0 01-.76 1.49 36.84 36.84 0 01-6 2.8 3.83 3.83 0 01-3-.94l-.22-.2c-.73-.71-6.85-10.09-8.08-21.92s2.79-22.77 3.35-23.67a4.38 4.38 0 012.93-2.09 33.58 33.58 0 016.42.89 1.8 1.8 0 01.62.35zm12.67 6.35a16.37 16.37 0 011.22 1.1 23.46 23.46 0 016.51 13.47 26.29 26.29 0 01-1.6 13.6 28 28 0 01-1.63 3.26c-.31.53-.63 1.06-1 1.55a1.08 1.08 0 01-1.61.25l-.07-.06a1.64 1.64 0 01-.14-2 4.59 4.59 0 01.72-.91l.29-.48a22 22 0 002.57-6.79 24 24 0 00.2-8 21.5 21.5 0 00-3.29-8.81 18.61 18.61 0 00-3.51-4 14.32 14.32 0 00-1.2-.93c-.12-.1-.27-.15-.39-.26l-.89-.53a.91.91 0 01-.21-.13 1.53 1.53 0 01-.34-1.7 1.06 1.06 0 011.54-.66c.5.28 1 .6 1.45.92s.9.74 1.38 1.11z" transform="translate(-14.37 -26.12)"/><path class="cls-7" d="M309.83 234.9a31.54 31.54 0 0110.51 19.85 35.3 35.3 0 01-4.34 22.84c-.4.68-.87 1.36-1.34 2.05a1.08 1.08 0 01-1.61.25 1.65 1.65 0 01-.21-2.06c.2-.34.41-.59.58-.88l.63-1.06a32.08 32.08 0 004-20.77 28.81 28.81 0 00-9.53-17.95c-.56-.47-1.12-.86-1.71-1.29a7.12 7.12 0 00-.9-.61l-.89-.53a.92.92 0 01-.21-.13 1.53 1.53 0 01-.34-1.7 1.06 1.06 0 011.54-.66 16.26 16.26 0 012 1.23c.58.45 1.22.91 1.82 1.42zM302.2 248a14.2 14.2 0 012.31 2.52 16.28 16.28 0 012.66 6.92 17.66 17.66 0 01-.29 6.4 17.09 17.09 0 01-1.84 4.52l-.31.53a2.85 2.85 0 00-.35.5 1.08 1.08 0 01-1.6.24l-.07-.06a1.63 1.63 0 01-.15-2c.16-.16.24-.3.41-.38l.26-.43.06-.1a13.76 13.76 0 001.62-8.75 12 12 0 00-4-7.65c-.2-.17-.43-.29-.63-.46l-.12-.1a4.64 4.64 0 00-.74-.48.92.92 0 01-.21-.13 1.53 1.53 0 01-.34-1.7 1.06 1.06 0 011.54-.66l.93.57a8.3 8.3 0 01.86.7z" transform="translate(-14.37 -26.12)"/><path d="M184.18 341.44l5.32 9.77a10.54 10.54 0 005.37 4.7l-5.32-9.77a10.54 10.54 0 01-5.37-4.7z" transform="translate(-14.37 -26.12)" fill="#1a6ef5"/><path class="cls-7" d="M184.18 341.44l5.32 9.77a10.54 10.54 0 005.37 4.7l-5.32-9.77a10.54 10.54 0 01-5.37-4.7" transform="translate(-14.37 -26.12)"/><path class="cls-11" d="M245.75 342.08a1.06 1.06 0 00-1.35.54.75.75 0 00.33 1.12c5.47 2.45 4.46 10.35-2.07 12.68a7.68 7.68 0 01-5.54 0c-3.31-1.35-4.92-5.24-2.75-9a.75.75 0 00-.31-1.13h-.07a1 1 0 00-1.31.47c-2.73 4.75-.71 9.67 3.47 11.38a9.68 9.68 0 007 0c8.23-3 9.48-12.98 2.6-16.06z" transform="translate(-14.37 -26.12)"/><path class="cls-7" d="M175.19 320.02l5.33 9.77 86.55 35.33-5.33-9.77-86.55-35.33zm105.32 28.63l5.33 9.77 108.5-176.75-5.33-9.77-108.5 176.75z"/><path class="cls-7" d="M276.11 381.47l5.32 9.77c6.46 2.64 14.88-.37 18.77-6.7l-5.32-9.77c-3.88 6.33-12.31 9.34-18.77 6.7z" transform="translate(-14.37 -26.12)"/><path class="cls-7" d="M278.2 144.76l-91.44 148.95-1.28-.52 92.14-150.11 96.44 39.37-.71 1.16-95.15-38.85z"/><path d="M156.62 289.35l-64.16 86.43a5.21 5.21 0 00-.84 1.13l-.08.1a5.16 5.16 0 00-.64 2.45 5.19 5.19 0 009.27 3.25l.19.12z" transform="translate(-14.37 -26.12)" fill="url(#Безымянный_градиент_3)"/><path d="M455.16 144.14l-32.5 72.74a3.85 3.85 0 00-.42.95v.09a3.82 3.82 0 00-.07 1.87 3.84 3.84 0 007.22.87l.16.06z" transform="translate(-14.37 -26.12)" fill="url(#Безымянный_градиент_3-2)"/><path d="M352.5 36.87l-35.69 42.86a2.7 2.7 0 00-.47.56v.05a2.67 2.67 0 00-.4 1.25 2.69 2.69 0 004.7 2l.09.07z" transform="translate(-14.37 -26.12)" fill="url(#Безымянный_градиент_3-3)"/><path class="cls-17" d="M222.4 426.24v-2.09c.8.76 1.69 2.46 3.32 5.65-1.52-3.12-2.35-4.83-2.52-5.94l3.24 2.7-3.27-3.13a1.57 1.57 0 01.11-.58l2.39-.27h-2.24a5.62 5.62 0 011.88-1.36 6.1 6.1 0 01-2.13.69l2.81-3.37-3.19 3.33a1.55 1.55 0 01-.53-.25l-.26-2.31v2.09c-.8-.76-1.69-2.46-3.32-5.65 1.52 3.12 2.35 4.83 2.52 5.94L218 419l3.27 3.13a1.57 1.57 0 01-.11.58l-2.39.27H221a5.62 5.62 0 01-1.88 1.36 6.1 6.1 0 012.13-.69l-2.83 3.35 3.19-3.33a1.55 1.55 0 01.53.25z" transform="translate(-14.37 -26.12)"/><circle class="cls-18" cx="222.38" cy="422.64" r="3.76" transform="matrix(.67 -.75 .75 .67 -255.31 280.74)"/><path class="cls-17" d="M203.52 407.35v-1.12a13.76 13.76 0 011.78 3 14.89 14.89 0 01-1.35-3.18l1.73 1.44-1.75-1.68a.84.84 0 01.06-.31l1.28-.15h-1.2a3 3 0 011-.73 3.27 3.27 0 01-1.14.37l1.5-1.81-1.69 1.82a.83.83 0 01-.28-.13l-.14-1.24v1.12a13.76 13.76 0 01-1.78-3 14.89 14.89 0 011.35 3.18l-1.73-1.44 1.75 1.68a.84.84 0 01-.06.31l-1.28.15h1.2a3 3 0 01-1 .73 3.27 3.27 0 011.14-.37l-1.5 1.81 1.69-1.8a.83.83 0 01.28.13z" transform="translate(-14.37 -26.12)"/><circle class="cls-18" cx="203.52" cy="405.42" r="2.01" transform="rotate(-48.22 167.125 408.396)"/><path class="cls-17" d="M163.65 205.88v-1.12a13.76 13.76 0 011.78 3 14.89 14.89 0 01-1.35-3.18l1.73 1.44-1.75-1.68a.84.84 0 01.06-.31l1.28-.15h-1.2a3 3 0 011-.73 3.27 3.27 0 01-1.14.37l1.5-1.81-1.71 1.78a.83.83 0 01-.28-.13l-.14-1.24v1.12a13.76 13.76 0 01-1.78-3 14.89 14.89 0 011.35 3.18l-1.73-1.42 1.75 1.68a.84.84 0 01-.06.31l-1.28.15h1.2a3 3 0 01-1 .73 3.27 3.27 0 011.14-.37l-1.5 1.81 1.71-1.78a.83.83 0 01.28.13z" transform="translate(-14.37 -26.12)"/><circle class="cls-18" cx="163.64" cy="203.96" r="2.01" transform="rotate(-48.22 127.258 206.943)"/><path class="cls-17" d="M208.28 425.74v-.84a10.37 10.37 0 011.34 2.28 11.23 11.23 0 01-1-2.4l1.31 1.09-1.32-1.27a.63.63 0 010-.23l1-.11h-.9a2.27 2.27 0 01.76-.55 2.47 2.47 0 01-.86.28l1.13-1.36-1.3 1.37a.63.63 0 01-.21-.1l-.11-.93v.84a10.37 10.37 0 01-1.34-2.28 11.23 11.23 0 011 2.4l-1.31-1.09 1.32 1.27a.63.63 0 010 .23l-1 .11h.9a2.27 2.27 0 01-.76.55 2.47 2.47 0 01.86-.28l-1.12 1.28 1.33-1.3a.63.63 0 01.21.1z" transform="translate(-14.37 -26.12)"/><circle class="cls-18" cx="208.27" cy="424.28" r="1.52" transform="rotate(-48.22 171.88 427.26)"/><path class="cls-17" d="M129 243.49l-4.41 1.24c1.13-2.15 4.19-5 10-10.37-5.67 5.07-8.8 7.83-11 8.85l3.77-8.43-4.67 8.76a3.43 3.43 0 01-1.28.1l-2-4.87 1.32 4.72c-1.19-.41-2.35-1.52-4-3.16a13.38 13.38 0 012.72 4.08l-8.78-3.92 8.92 4.75a3.41 3.41 0 01-.21 1.26l-4.71 1.92 4.41-1.24c-1.13 2.15-4.19 5-10 10.37 5.67-5.07 8.8-7.83 11-8.85l-3.77 8.43 4.67-8.76a3.43 3.43 0 011.28-.1l2 4.87-1.32-4.72c1.19.41 2.35 1.52 4 3.16a13.38 13.38 0 01-2.72-4.08l8.78 3.92-8.92-4.75a3.41 3.41 0 01.21-1.26z" transform="translate(-14.37 -26.12)"/><circle class="cls-18" cx="121.41" cy="245.65" r="8.24" transform="rotate(-63.94 93.294 244.095)"/><path class="cls-17" d="M333.67 123l-2.19-1c1.17-.49 3.37-.63 7.47-.87-4 .16-6.16.23-7.4-.1l4.33-2.15-4.8 2a1.8 1.8 0 01-.55-.38l.82-2.63-1 2.35a6.45 6.45 0 01-.56-2.6 7 7 0 01-.26 2.56l-2.24-4.51 2 4.89a1.78 1.78 0 01-.51.44l-2.54-.79 2.19 1c-1.17.49-3.37.63-7.47.87 4-.16 6.16-.23 7.4.1L324 124.3l4.8-2a1.8 1.8 0 01.55.38l-.82 2.63 1-2.35a6.45 6.45 0 01.56 2.6 7 7 0 01.26-2.56l2.24 4.51-2-4.89a1.78 1.78 0 01.51-.44z" transform="translate(-14.37 -26.12)"/><circle class="cls-18" cx="329.89" cy="121.36" r="4.31" transform="rotate(-24.41 262.306 141.5)"/><path class="cls-17" d="M277.39 422.08l-3.88-1.72c2.08-.87 6-1.12 13.23-1.54-7 .28-10.91.41-13.1-.19l7.67-3.81-8.51 3.51a3.18 3.18 0 01-1-.68l1.45-4.66-1.84 4.15c-.61-1-.78-2.47-1-4.61a12.4 12.4 0 01-.46 4.52l-4-8 3.57 8.66a3.16 3.16 0 01-.9.78l-4.5-1.4 3.88 1.72c-2.08.87-6 1.12-13.23 1.54 7-.28 10.91-.41 13.1.19l-7.67 3.81 8.51-3.51a3.18 3.18 0 011 .68l-1.45 4.66 1.84-4.15c.61 1 .78 2.47 1 4.61a12.4 12.4 0 01.46-4.52l4 8-3.56-8.67a3.16 3.16 0 01.9-.78z" transform="translate(-14.37 -26.12)"/><circle class="cls-18" cx="270.7" cy="419.15" r="7.63" transform="rotate(-24.41 203.12 439.3)"/><path class="cls-17" d="M292.27 438l-2.18-1c1.17-.49 3.35-.63 7.43-.86-4 .16-6.13.23-7.36-.1l4.3-2.14-4.78 2a1.79 1.79 0 01-.55-.38l.81-2.61-1 2.33a6.41 6.41 0 01-.55-2.59 7 7 0 01-.26 2.54l-2.23-4.48 2 4.86a1.77 1.77 0 01-.5.44l-2.53-.79 2.18 1c-1.17.49-3.35.63-7.43.86 4-.16 6.13-.23 7.36.1l-4.3 2.14 4.78-2a1.79 1.79 0 01.55.38l-.81 2.61 1-2.33a6.41 6.41 0 01.55 2.59A7 7 0 01289 438l2.23 4.48-2-4.86a1.77 1.77 0 01.5-.44z" transform="translate(-14.37 -26.12)"/><circle class="cls-18" cx="288.51" cy="436.36" r="4.29" transform="rotate(-24.41 220.932 456.51)"/><circle class="cls-18" cx="140.77" cy="239.23" r="2.84" transform="rotate(-63.94 112.651 237.675)"/><path class="cls-17" d="M433.89 131.72c3.47 6.47 5.7 7.15 12.17 3.68-6.47 3.47-7.15 5.7-3.68 12.17-3.47-6.47-5.7-7.15-12.17-3.68 6.47-3.47 7.15-5.7 3.68-12.17z" transform="translate(-14.37 -26.12)"/><path class="cls-17" d="M429.97 125.11l-5.8-11.8-6.61-11.37 5.8 11.8 6.61 11.37z"/><path class="cls-17" d="M435.36 107.32l-11.81 5.8-11.37 6.61m0 0l11.81-5.8 11.37-6.61"/><path class="cls-17" d="M429.88 143.72c1.62 3 2.67 3.35 5.7 1.72-3 1.62-3.35 2.67-1.72 5.7-1.62-3-2.67-3.35-5.7-1.72 3.02-1.62 3.34-2.67 1.72-5.7z" transform="translate(-14.37 -26.12)"/><path class="cls-17" d="M420.4 126.74l-2.71-5.53-3.1-5.33 2.72 5.53 3.09 5.33z"/><path class="cls-17" d="M422.93 118.4l-5.53 2.72-5.33 3.1"/><path class="cls-17" d="M412.07 124.22l5.53-2.72 5.33-3.1"/><path class="cls-17" d="M420 142.6c.61 1.13 1 1.25 2.13.64-1.13.61-1.25 1-.64 2.13-.61-1.13-1-1.25-2.13-.64 1.17-.6 1.28-1 .64-2.13z" transform="translate(-14.37 -26.12)"/><path class="cls-17" d="M407.5 119.89l-1.01-2.06-1.16-1.99 1.01 2.06 1.16 1.99z"/><path class="cls-17" d="M408.44 116.78l-2.06 1.02-1.99 1.15m0 0l2.06-1.01 1.99-1.16"/><path class="cls-17" d="M449 146.06c.61 1.13 1 1.25 2.13.64-1.13.61-1.25 1-.64 2.13-.61-1.13-1-1.25-2.13-.64 1.13-.6 1.25-.99.64-2.13z" transform="translate(-14.37 -26.12)"/><path class="cls-17" d="M436.46 123.35l-1.02-2.06-1.15-1.99 1.01 2.06 1.16 1.99z"/><path class="cls-17" d="M437.4 120.24l-2.06 1.02-1.99 1.15m0 0l2.06-1.01 1.99-1.16"/><circle class="cls-18" cx="438.14" cy="139.65" r="6.17" transform="rotate(-63.94 410.013 138.1)"/><path class="cls-17" d="M414.23 352.9c-.27-10.34-2.65-12.6-13-12.34 10.34-.27 12.6-2.65 12.34-13 .27 10.34 2.65 12.6 13 12.34-10.34.28-12.57 2.66-12.34 13z" transform="translate(-14.37 -26.12)"/><path class="cls-17" d="M399.06 295.6l-.17 18.53 1.12 18.5.17-18.53-1.12-18.5z"/><path class="cls-17" d="M381.02 314.59l18.53.17 18.5-1.12"/><path class="cls-17" d="M418.05 313.64l-18.53-.17-18.5 1.12"/><path class="cls-17" d="M426.88 340.34c-.12-4.84-1.24-5.9-6.08-5.78 4.84-.12 5.9-1.24 5.78-6.08.12 4.84 1.24 5.9 6.08 5.78-4.85.12-5.91 1.23-5.78 6.08z" transform="translate(-14.37 -26.12)"/><path class="cls-17" d="M412.14 299.61l-.08 8.68.52 8.66.08-8.67-.52-8.67z"/><path class="cls-17" d="M403.69 308.51l8.68.08 8.66-.53m0 0l-8.68-.08-8.66.53"/><path class="cls-17" d="M438.55 348c0-1.81-.46-2.2-2.27-2.16 1.81 0 2.2-.46 2.16-2.27 0 1.81.46 2.2 2.27 2.16-1.81.02-2.2.43-2.16 2.27z" transform="translate(-14.37 -26.12)"/><path class="cls-17" d="M424.05 316.4l-.03 3.24.19 3.23.03-3.24-.19-3.23z"/><path class="cls-17" d="M420.89 319.72l3.24.03 3.24-.2"/><path class="cls-17" d="M427.37 319.55l-3.24-.03-3.24.2"/><path class="cls-17" d="M404.29 325.28c0-1.81-.46-2.2-2.27-2.16 1.81 0 2.2-.46 2.16-2.27 0 1.81.46 2.2 2.27 2.16-1.81.05-2.21.47-2.16 2.27z" transform="translate(-14.37 -26.12)"/><path class="cls-17" d="M389.78 293.71l-.03 3.24.2 3.23.03-3.24-.2-3.23z"/><path class="cls-17" d="M386.63 297.03l3.24.03 3.23-.2"/><path class="cls-17" d="M393.1 296.86l-3.24-.03-3.23.2"/><circle class="cls-18" cx="412.1" cy="340.83" r="11.52" transform="rotate(-37.24 366.158 349.095)"/><path class="cls-17" d="M288.41 141.74c1.27-10.26-.75-12.85-11-14.12 10.26 1.27 12.85-.75 14.12-11-1.27 10.26.75 12.85 11 14.12-10.26-1.29-12.85.73-14.12 11z" transform="translate(-14.37 -26.12)"/><path class="cls-17" d="M277.87 84.67l-2.91 18.3-1.63 18.45 2.91-18.3 1.63-18.45z"/><path class="cls-17" d="M257.22 100.78l18.3 2.91 18.46 1.62"/><path class="cls-17" d="M293.98 105.31l-18.3-2.91-18.46-1.62"/><path class="cls-17" d="M302.78 131.18c.59-4.81-.35-6-5.16-6.61 4.81.59 6-.35 6.61-5.16-.59 4.81.35 6 5.16 6.61-4.8-.59-6.01.36-6.61 5.16z" transform="translate(-14.37 -26.12)"/><path class="cls-17" d="M290.21 90.56l-1.37 8.58-.76 8.64 1.36-8.57.77-8.65z"/><path class="cls-17" d="M280.54 98.11l8.57 1.36 8.64.77m0 0l-8.57-1.37-8.64-.76"/><path class="cls-17" d="M313.2 140.46c.22-1.79-.13-2.25-1.93-2.47 1.79.22 2.25-.13 2.47-1.93-.22 1.79.13 2.25 1.93 2.47-1.79-.22-2.25.14-2.47 1.93z" transform="translate(-14.37 -26.12)"/><path class="cls-17" d="M299.5 108.93l-.51 3.2-.28 3.22.51-3.2.28-3.22z"/><path class="cls-17" d="M295.89 111.74l3.2.51 3.23.29"/><path class="cls-17" d="M302.32 112.54l-3.2-.51-3.23-.29"/><path class="cls-17" d="M282.67 113c.22-1.79-.13-2.25-1.93-2.47 1.79.22 2.25-.13 2.47-1.93-.22 1.79.13 2.25 1.93 2.47-1.79-.26-2.25.09-2.47 1.93z" transform="translate(-14.37 -26.12)"/><path class="cls-17" d="M268.97 81.42l-.51 3.2-.28 3.23.51-3.2.28-3.23z"/><path class="cls-17" d="M265.36 84.24l3.2.51 3.23.28"/><path class="cls-17" d="M271.79 85.03l-3.2-.51-3.23-.28"/><circle class="cls-18" cx="288.1" cy="129.48" r="11.52" transform="rotate(-28.74 229.88 144.454)"/><path class="cls-17" d="M227.07 239.78c-5.49 6.13-5.34 8.74.78 14.22-6.13-5.49-8.74-5.34-14.22.78 5.49-6.13 5.34-8.74-.78-14.22 6.15 5.49 8.73 5.35 14.22-.78z" transform="translate(-14.37 -26.12)"/><path class="cls-17" d="M196.16 232.13l10.21-10.63 9.44-11.31-10.21 10.63-9.44 11.31z"/><path class="cls-17" d="M216.95 230.99l-10.62-10.21-11.32-9.44"/><path class="cls-17" d="M195.01 211.34l10.63 10.2 11.31 9.45"/><path class="cls-17" d="M212.9 240.15c-2.57 2.87-2.5 4.09.37 6.66-2.87-2.57-4.09-2.5-6.66.37 2.57-2.87 2.5-4.09-.37-6.66 2.86 2.56 4.09 2.48 6.66-.37z" transform="translate(-14.37 -26.12)"/><path class="cls-17" d="M190.78 222.68l4.78-4.98 4.43-5.3-4.79 4.98-4.42 5.3z"/><path class="cls-17" d="M200.52 222.14l-4.98-4.78-5.3-4.42m0 0l4.98 4.78 5.3 4.42"/><path class="cls-17" d="M210.31 229.36c-1 1.07-.93 1.53.14 2.49-1.07-1-1.53-.93-2.49.14 1-1.07.93-1.53-.14-2.49 1.07.96 1.53.93 2.49-.14z" transform="translate(-14.37 -26.12)"/><path class="cls-17" d="M193.05 206.47l1.78-1.86 1.65-1.98-1.78 1.86-1.65 1.98z"/><path class="cls-17" d="M196.68 206.27l-1.85-1.79-1.98-1.65m0 0l1.86 1.79 1.97 1.65"/><path class="cls-17" d="M217.75 261.18c-1 1.07-.93 1.53.14 2.49-1.07-1-1.53-.93-2.49.14 1-1.07.93-1.53-.14-2.49 1.07.96 1.53.93 2.49-.14z" transform="translate(-14.37 -26.12)"/><path class="cls-17" d="M200.49 238.29l1.79-1.86 1.65-1.98-1.79 1.86-1.65 1.98z"/><path class="cls-17" d="M204.13 238.09l-1.86-1.79-1.98-1.65m0 0l1.86 1.79 1.98 1.65"/><circle class="cls-18" cx="221.71" cy="247.93" r="9.16" transform="rotate(-83.91 200.022 242.862)"/><circle class="cls-18" cx="428.22" cy="312.8" r="3.19" transform="rotate(-63.94 400.088 311.237)"/><circle class="cls-18" cx="467.24" cy="258.42" r="3.19" transform="rotate(-63.94 439.11 256.868)"/></svg>