<svg id="Слой_1" data-name="Слой 1" xmlns="http://www.w3.org/2000/svg" viewBox="0 0 114.03 93.63"><defs><style>.cls-4{fill:#8de7ff}.cls-5{fill:#19d26e}.cls-6{fill:#64b9ed}.cls-7{fill:#1ebaa3}.cls-8{fill:#eaac78}.cls-9{fill:#85a188}</style></defs><ellipse cx="12.88" cy="86.27" rx="7.41" ry="7.36" fill="#f27c79"/><path d="M12.88 93.63a7.29 7.29 0 007.39-7.27 8 8 0 00-.27-2.19 23.07 23.07 0 01-12.24 7.4 7.41 7.41 0 005.12 2.06z" fill="#e65b57"/><path d="M8.73 92.33a.23.23 0 01-.08-.45L11.2 91a75.33 75.33 0 017.69-2.51.23.23 0 01.28.17.23.23 0 01-.17.28 73.94 73.94 0 00-7.64 2.49l-2.55.93zm2.27.9a.23.23 0 01-.21-.14.23.23 0 01.12-.3l.13-.06a24.58 24.58 0 017.08-2.28.23.23 0 11.06.46 23.88 23.88 0 00-7 2.25l-.13.06zm-3.93-2.68a.23.23 0 01-.07-.46c3.79-1 8-2.18 12.73-3.74a.23.23 0 01.29.15.23.23 0 01-.15.29c-4.79 1.56-9 2.73-12.76 3.75z" fill="#ffc83e"/><ellipse class="cls-4" cx="39.1" cy="39" rx="37.88" ry="38.09" transform="rotate(-55.4 39.099 39.005)"/><path class="cls-4" d="M9.5 64.33A39 39 0 01.69 46 38.78 38.78 0 0131.95.63a39.28 39.28 0 0145.56 31.42 38.78 38.78 0 01-31.26 45.32A39 39 0 0117 71a39.59 39.59 0 01-7.5-6.67zM67.1 15A37.44 37.44 0 0060 8.69a36.9 36.9 0 00-27.68-6A36.68 36.68 0 002.76 45.57a37.18 37.18 0 0043.11 29.74A36.48 36.48 0 0069.59 60a36.48 36.48 0 005.86-27.59A36.87 36.87 0 0067.1 15z"/><path class="cls-5" d="M68.41 40.67A12.63 12.63 0 0063.25 46c-1.6 2.87-2.83 6.48-5.94 7.54-1.79.61-3.74.18-5.63.08-5.4-.28-10.65 2.31-14.57 6S30.44 68.16 28 73a34.35 34.35 0 0117.77-3.29c4.38.37 9.64 1.26 12.42-2.14 1.63-2 1.9-5 4.05-6.45s5-.43 7.32.67c.29-.38.57-.77.85-1.16a37.54 37.54 0 006.62-19.54l-1.48-.26a7.34 7.34 0 00-7.14-.16z"/><path class="cls-5" d="M27.25 73.69a1.05 1.05 0 01-.15-1.15c2.22-4.5 5.06-9.64 9.28-13.64 4.52-4.29 10.11-6.6 15.35-6.33.47 0 1 .07 1.43.12a9.25 9.25 0 003.84-.15c2.12-.73 3.26-3 4.47-5.35.3-.58.59-1.16.89-1.71a13.48 13.48 0 015.61-5.75 8.44 8.44 0 018 .1l1.27.22a1 1 0 01.87 1.09 38.68 38.68 0 01-6.8 20.08c-.27.4-.56.78-.85 1.17a1.09 1.09 0 01-1.3.35c-2.15-1-4.58-1.87-6.3-.74a6.94 6.94 0 00-2.12 3.19A12.82 12.82 0 0159 68.24c-2.87 3.5-7.74 3-12 2.63l-1.28-.12a33.14 33.14 0 00-17.22 3.2 1.05 1.05 0 01-1.2-.21zm41.63-32.08a11.59 11.59 0 00-4.71 4.89c-.29.53-.57 1.08-.86 1.64-1.28 2.52-2.73 5.38-5.66 6.39a10.92 10.92 0 01-4.69.24c-.45 0-.9-.09-1.34-.11-4.67-.24-9.69 1.85-13.79 5.75a40.52 40.52 0 00-7.52 10.46 35.24 35.24 0 0115.59-2.2l1.3.12c4 .37 8.06.76 10.22-1.87a11.08 11.08 0 001.4-2.57 8.57 8.57 0 012.89-4.09c2.33-1.53 5.17-.78 7.55.24l.32-.46A36.59 36.59 0 0076 42l-.55-.1a1.07 1.07 0 01-.4-.16 6.27 6.27 0 00-6.14-.1zM7.75 17.38a37.75 37.75 0 00-4.64 33.68l13.12-9A23.48 23.48 0 0022.17 37c1.56-2.11 2.36-5 1.41-7.4-1.74-4.43-8.28-5.75-9.43-10.37-.9-3.62 3.13-7.43 6.69-6.33 2.82.87 4.35 3.8 5.83 6.35s3.74 5.25 6.68 5.06c2.22-.14 3.94-1.89 5.83-3.06 2.55-1.57 5.58-2.13 8.42-3.1s5.73-2.54 7-5.28.49-7.6-2.48-8l-.3-1.58A37.92 37.92 0 007.75 17.38z"/><path class="cls-5" d="M2.32 51.75a1 1 0 01-.2-.35 38.55 38.55 0 014.76-34.62A39 39 0 0152.14 2.31a1.05 1.05 0 01.68.79L53 4a4.23 4.23 0 012.28 2 8.81 8.81 0 01.26 7.25c-1.16 2.56-3.71 4.53-7.59 5.84-.82.28-1.65.52-2.49.77a23 23 0 00-5.72 2.23c-.48.3-.95.63-1.42 1a9.54 9.54 0 01-4.9 2.25c-2.83.18-5.4-1.7-7.65-5.58l-.28-.49c-1.33-2.31-2.7-4.69-5-5.38a4.15 4.15 0 00-4 1.16A4.15 4.15 0 0015.16 19c.51 2 2.38 3.41 4.36 4.85s4.09 3 5 5.38A9 9 0 0123 37.61 24.55 24.55 0 0116.83 43L3.71 52a1.05 1.05 0 01-1.39-.18zM50.87 4.09A36.89 36.89 0 008.61 18a36.43 36.43 0 00-4.93 31.4l12-8.17a22.62 22.62 0 005.68-4.87c1.19-1.62 2.16-4.15 1.28-6.4-.72-1.83-2.46-3.11-4.31-4.45-2.2-1.6-4.47-3.26-5.16-6a6.25 6.25 0 012-6 6.25 6.25 0 016.05-1.64c3 .94 4.69 3.81 6.15 6.34l.28.48c1.25 2.16 3.26 4.7 5.71 4.54a7.9 7.9 0 003.81-1.86c.51-.36 1-.73 1.54-1a24.93 24.93 0 016.23-2.46c.81-.24 1.61-.47 2.4-.74 3.3-1.12 5.44-2.71 6.35-4.72a6.72 6.72 0 00-.18-5.36A2 2 0 0052 5.92a1 1 0 01-.9-.84z"/><path class="cls-6" d="M59.58 71.08C40.88 62.44 18 49 2.09 30.12a38.17 38.17 0 0057.49 41z"/><path class="cls-6" d="M9.45 64.29a38.8 38.8 0 01-8.38-34.41 1.05 1.05 0 011.82-.45c16.28 19.32 40 32.8 57.13 40.69a1.05 1.05 0 01.12 1.88A39.09 39.09 0 0117 71a39.84 39.84 0 01-7.55-6.71zM2.69 32.42A37.13 37.13 0 0057.34 71.2C40.72 63.35 18.57 50.52 2.69 32.42z"/><path class="cls-7" d="M3.11 51.06l11.76-8A118 118 0 012.09 30.12a38 38 0 001.02 20.94z"/><path class="cls-7" d="M2.32 51.75a1 1 0 01-.2-.35 39 39 0 01-1-21.52 1 1 0 01.78-.78 1.1 1.1 0 011 .35 118 118 0 0012.66 12.8 1.05 1.05 0 01-.1 1.66l-11.76 8a1.05 1.05 0 01-1.39-.18zm.37-19.33a36.87 36.87 0 001 17l9.48-6.47A120.74 120.74 0 012.69 32.42zm53.18 36.91c-5.92-2.86-12.17-6.18-18.43-10l-.34.3C33.19 63.38 30.44 68.16 28 73a34.35 34.35 0 0117.77-3.29c3.38.29 7.23.87 10.1-.38z"/><path class="cls-7" d="M27.25 73.69a1.05 1.05 0 01-.15-1.15c2.22-4.5 5.06-9.64 9.28-13.64l.23-.21.12-.11a1 1 0 011.27-.12c5.72 3.47 11.89 6.81 18.34 9.93a1.05 1.05 0 010 1.91c-2.77 1.2-6.24.87-9.31.58l-1.26-.12a33.14 33.14 0 00-17.27 3.19 1.05 1.05 0 01-1.2-.21zm10.32-13a41.12 41.12 0 00-7.26 10.22 35.24 35.24 0 0115.59-2.24l1.28.12a31.64 31.64 0 005.62.21c-5.32-2.66-10.42-5.45-15.22-8.34z"/><ellipse class="cls-8" cx="102.53" cy="33.24" rx="10.52" ry="10.36" transform="rotate(-40.81 102.515 33.239)"/><path class="cls-8" d="M93.78 40.79A11.57 11.57 0 11110 41.87a11.5 11.5 0 01-16.22-1.08zM109.7 27a9.47 9.47 0 10-1.08 13.23A9.4 9.4 0 00109.7 27z"/><path class="cls-9" d="M92.28 31.42a10.28 10.28 0 002.3 8.69A10.38 10.38 0 00107 42.57a56.72 56.72 0 01-14.72-11.15z"/><path class="cls-9" d="M93.78 40.79a11.31 11.31 0 01-2.53-9.57l.39-2.06 1.41 1.55a55.38 55.38 0 0014.48 10.93l1.78 1-1.82.89a11.44 11.44 0 01-13.71-2.74zm-.63-7a9.15 9.15 0 002.22 5.59 9.29 9.29 0 009.15 2.94 58 58 0 01-11.37-8.48z"/></svg>