<svg id="Слой_1" data-name="Слой 1" xmlns="http://www.w3.org/2000/svg" viewBox="0 0 41.9 54.22"><defs><style>.cls-3{fill:#ffc83e}</style></defs><circle cx="19.89" cy="40.32" r="13.9" transform="rotate(-30.04 19.88 40.332)" fill="#ce599e"/><path d="M6.71 35.9a13.9 13.9 0 0024 13.19c-7.93-1.09-17.37-4.36-24-13.19z" fill="#a74be2"/><path class="cls-3" d="M.36 50.84A2.6 2.6 0 01.06 49c.59-2.88 5.7-5.44 6.28-5.72a.65.65 0 01.57 1.18c-1.42.69-5.18 2.9-5.57 4.81a1.35 1.35 0 00.36 1.23c1.56 1.79 11.87-.88 18.44-4.19 8.67-4.37 18.28-10.2 19.26-13.49a1.09 1.09 0 00-.06-.93c-1.9-3.29-8.56-.47-8.63-.44a.65.65 0 01-.52-1.2c.32-.14 7.8-3.31 10.28 1a2.4 2.4 0 01.18 2c-1.35 4.52-14.38 11.5-19.92 14.29S3.17 54.16.71 51.33a3.16 3.16 0 01-.35-.49z"/><ellipse cx="34.27" cy="7.53" rx="7.63" ry="7.53" fill="#f27c79"/><path d="M34.27 15.05a7.48 7.48 0 007.61-7.43 8.07 8.07 0 00-.29-2.24A23.78 23.78 0 0129 12.95a7.66 7.66 0 005.27 2.1z" fill="#e65b57"/><path class="cls-3" d="M30 13.72a.24.24 0 01-.23-.16.24.24 0 01.14-.3l2.62-.95a78 78 0 017.92-2.56.24.24 0 01.29.17.24.24 0 01-.17.29 76.55 76.55 0 00-7.87 2.55l-2.63.95zm2.29.93a.24.24 0 01-.22-.14.23.23 0 01.12-.31l.14-.06a25.45 25.45 0 017.3-2.34.24.24 0 11.06.47 24.72 24.72 0 00-7.16 2.3l-.14.06zm-4.01-2.75a.24.24 0 01-.23-.17.24.24 0 01.17-.29c3.9-1 8.19-2.23 13.12-3.83a.24.24 0 01.3.15.24.24 0 01-.15.3c-4.93 1.6-9.23 2.79-13.14 3.84z"/></svg>