<svg version="1.0" xmlns="http://www.w3.org/2000/svg" width="933.333" height="933.333" viewBox="0 0 700 700"><path d="M327.8.4c-.1.2-4.2.6-8.9 1s-9.5.8-10.5 1c-1 .2-4.6.7-7.9 1.1-3.2.4-6.8.9-8 1.1-1.1.2-4.5.8-7.5 1.4-8.3 1.5-8.6 1.6-22 5-30.5 7.7-60.1 19.8-88.5 36.3-10.3 6-26.5 16.5-31.5 20.4-.8.6-5.1 4-9.5 7.4-42.5 33-81.3 82.5-102.1 130.1-2.4 5.7-4.9 11.2-5.4 12.3-4.6 9.6-15.3 43.9-17.7 56.5-.2 1.4-.9 4.5-1.4 7-1.6 6.7-1.8 7.8-2.3 12.4-.3 2.2-.8 5.2-1.1 6.6-.5 2.8-1 7-2.2 20-1.5 15.9-.8 60.5 1.1 70.7.2 1 .7 4.3 1 7.3.7 6.2 1.2 9.4 2.6 16.5.6 2.7 1.2 5.9 1.4 7 4.8 25.3 16.1 57.7 29.3 84 17.5 35 37.3 62.4 65.3 90.6 27.6 27.7 52.6 46.3 86.4 64 26.5 13.8 60.2 26.2 85.1 31.3 10.7 2.2 23.8 4.5 28.5 5.1 3 .4 6.6.9 8 1.1 17.5 2.3 65.3 2.4 79 0 1.4-.3 4.8-.7 7.5-1.1 42.8-5.2 92.7-22.3 130-44.6 36.7-21.9 69.8-50.5 95.6-82.4 25.8-32 46.6-69.9 59.5-108.5 4-12.1 8.6-28.9 10.9-40.5.9-4.4 1.9-8.9 2.1-10 .9-4.1 3.5-25.3 4.1-33.5 1.3-16.2.7-53.7-1.1-67-.2-1.4-.7-5-1.1-8-.6-4.9-2.3-14.7-4-23.5-7.4-37.7-24.5-80-46.8-115.5-6-9.4-21-30.2-25.3-35-1.2-1.4-4.8-5.6-8-9.3-7.1-8.4-25.1-26.2-36.3-35.8-39.4-33.6-88.9-59.2-139.4-72C425 8 412.7 5.4 406 4.5c-1.9-.3-4.6-.7-6-1-1.3-.2-5.4-.7-9-1.1-3.6-.3-7.6-.8-9-1.1-2.7-.5-53.6-1.4-54.2-.9zm47.5 51.1c7.9.6 9.8.9 23.7 3 30.3 4.7 68.5 17.9 94.4 32.7 3.9 2.2 8.7 4.9 10.6 6 15.7 8.9 38.5 26.7 55.1 42.9 30.6 30 53.8 64.8 69.2 103.9 4.2 10.6 11.1 31.8 12.1 37.2.2 1.3.9 4.1 1.4 6.3 1.6 5.9 5 26.1 5.7 34.1.4 3.8.9 8.5 1.1 10.4.5 4.4.5 39.5 0 43.5-.2 1.6-.7 6.1-1 10-4.5 48.8-25.8 103.9-55.8 144.3-38.7 52.2-89.2 88.9-149.8 108.9-5.8 1.9-11.2 3.6-12 3.8-.8.2-6.2 1.5-12 2.8-5.8 1.4-13.9 3.1-18 3.7-4.1.7-8.2 1.4-9 1.5-.8.2-4.4.6-8 1-3.6.3-8.3.8-10.5 1-5.4.6-38.7.6-45 0-12.3-1.1-15.1-1.5-37-5.1-5.9-1-23.2-5.6-33.8-9-30-9.7-61.3-26.2-87.2-45.9-14.3-10.8-18.8-14.8-31.6-27.6-50.4-50.4-81.4-117.8-86.6-188.4-1.2-16.1-.6-48.6 1.1-58.5.3-1.4.7-4.3 1.1-6.5 1.9-12.9 3-18.2 6.5-31.9 5.9-23.1 11.7-38.5 22.7-60.6 14.7-29.2 31.5-52.3 55.8-76.5 32.8-32.9 69.8-56.3 112.8-71.4 16.6-5.8 29-9 47.2-12.1 15.3-2.6 17.6-2.9 29.5-3.6 5.8-.4 10.6-.7 10.8-.9.5-.4 29.7.3 36.5 1z"/><path d="M339.7 129.6c-.1.1-4 .5-8.7.9-8.1.6-30.7 4.2-32 5-.4.2-1.7.6-3.1.9-12.4 2.6-31.3 9.8-46.9 17.8-72.8 37.4-119 112.7-119.3 194.1-.1 60.6 22.9 116 65.7 158.1 37.1 36.4 82.4 57.4 135.1 62.5 7.9.8 39.1.6 43-.2 1.1-.3 4.7-.8 8-1.2 3.2-.3 6.2-.8 6.5-1 .3-.2 2.4-.6 4.8-1 13.7-2 36.7-9.9 54.2-18.6 45-22.5 79.8-57.6 101.1-102.4 14.7-31.1 21.3-59.8 21.4-94 0-11.6-.9-27.1-2-32.8-.3-1.5-.7-3.7-.9-5-.2-1.2-.7-4-1.1-6.2-5.3-29.2-20.6-63.2-40.6-89.9-7.1-9.4-23.7-27.2-31.4-33.6-28.4-23.7-57.9-38.8-91.5-47-6.6-1.6-11-2.5-22.7-4.5-6.2-1.1-38.7-2.6-39.6-1.9zM374 163c55.1 7.6 102 37 132.8 83.1 7.1 10.6 15.2 26.6 19.4 38.4 5.8 15.9 6.2 17.6 10.4 40.5.3 1.9.7 11.6.9 21.5.5 25.6-2.9 46.2-11.2 68.5-21.3 57-69.1 100.6-127.7 116.5-5.5 1.5-10.9 2.9-12 3-18 2.7-24.2 3.3-36.1 3.3-50.2.3-96.4-18.5-132.7-53.9-27.3-26.7-45.2-60-53.3-99.5-2.7-13.2-3.9-43-2.1-55.2.3-2.3.8-6.1 1.1-8.5 1.1-8.3 6.5-29.2 9.4-36.2 5.2-12.5 9.3-21.1 13.5-28.6 19.1-33.2 49.1-60.7 84.7-77.3 9.8-4.6 31.1-11.6 41.4-13.6 17.9-3.6 44.2-4.5 61.5-2z"/><path d="M308.5 203c-43.6 9.7-77.3 36.9-96.7 78-8.4 17.7-12.8 38.2-13.3 61.5-.5 21.2 1.7 36.1 8.1 55.3 9.5 28.7 27.8 54.1 51.9 72.1 28.3 21.2 58.8 31.2 93.5 30.6 8.5-.1 16.6-.5 18-.8 1.4-.3 4.2-.8 6.2-1.1 12.8-1.9 30.9-8 43.8-14.8 27.8-14.7 51.4-38.7 65.5-66.8 13.7-27.4 18.9-60.5 14-90.5-3.3-20.8-6.4-19.9-27.3 8-22.3 29.6-37.5 46-52.6 56.7-25.8 18.2-52.6 22.6-70 11.5-18.5-11.7-20.3-41.4-4.6-75.2 8.7-18.9 16.6-43.2 18.6-57.5 1-7.1 1-22.2.1-28.3-1.7-10.7-7.1-21.4-14.1-28-11.1-10.6-25.1-14.2-41.1-10.7z"/></svg>