<svg id="Слой_1" data-name="Слой 1" xmlns="http://www.w3.org/2000/svg" xmlns:xlink="http://www.w3.org/1999/xlink" viewBox="0 0 448.79 584.06"><defs><style>.cls-1{fill:#f45e1c;}.cls-2{fill:#ff811a;}.cls-3{fill:#e73f48;}.cls-4{fill:#f25a27;}.cls-5{fill:#d94037;}.cls-6{fill:#f7d857;}.cls-7{fill:#efe925;opacity:0.6;}.cls-10,.cls-14,.cls-19,.cls-23,.cls-7{isolation:isolate;}.cls-8{fill:#eff3fa;}.cls-9{fill:#19d26e;}.cls-10{fill:#283051;opacity:0.16;}.cls-11,.cls-19{fill:#fff;}.cls-12{fill:#f397bb;}.cls-13,.cls-14{opacity:0.72;}.cls-14,.cls-15,.cls-18{fill:none;stroke-miterlimit:10;}.cls-14,.cls-15{stroke:#6c2400;stroke-linecap:round;}.cls-14{stroke-width:0.52px;}.cls-15{stroke-width:1.04px;}.cls-16{fill:#a12532;}.cls-17{fill:#720107;}.cls-18{stroke:#f4a127;}.cls-19{opacity:0.27;}.cls-20{fill:url(#Безымянный_градиент);}.cls-21{fill:url(#Безымянный_градиент_2);}.cls-22{fill:#f9ff7b;}.cls-23,.cls-27{fill:#fff252;}.cls-23{opacity:0.3;}.cls-24{fill:#00a368;}.cls-25{fill:#efbb16;}.cls-26{fill:#fff27d;}.cls-28{fill:#ffde68;}.cls-29{fill:url(#Безымянный_градиент_3);}</style><linearGradient id="Безымянный_градиент" x1="237.63" y1="258.2" x2="308.57" y2="252.31" gradientTransform="matrix(1, 0, 0, -1, 0, 576)" gradientUnits="userSpaceOnUse"><stop offset="0" stop-color="#f9ff7b"/><stop offset="0.03" stop-color="#faf25f"/><stop offset="0.08" stop-color="#fbe33d"/><stop offset="0.13" stop-color="#fcd722"/><stop offset="0.18" stop-color="#fdcf0f"/><stop offset="0.23" stop-color="#fdca04"/><stop offset="0.28" stop-color="#fdc800"/><stop offset="0.67" stop-color="#f18f34"/><stop offset="0.89" stop-color="#e95f32"/><stop offset="1" stop-color="#e3312d"/></linearGradient><linearGradient id="Безымянный_градиент_2" x1="167.76" y1="525.73" x2="197.99" y2="521.29" xlink:href="#Безымянный_градиент"/><linearGradient id="Безымянный_градиент_3" x1="116.07" y1="12.89" x2="144.54" y2="35.92" gradientTransform="matrix(1, 0, 0, -1, 0, 576)" gradientUnits="userSpaceOnUse"><stop offset="0" stop-color="#f9ff7b"/><stop offset="0.14" stop-color="#faf25f"/><stop offset="0.3" stop-color="#fbe33d"/><stop offset="0.73" stop-color="#f18f34"/><stop offset="0.89" stop-color="#e95f32"/><stop offset="1" stop-color="#e3312d"/></linearGradient></defs><title>cat_2</title><path class="cls-1" d="M7.57,277.8C-12.19,175.1,30.05,66.63,119.42,18.62c83.94-45.08,180.25-2.49,248.45,65.64,65.91,65.76,103.59,161.9,66,248.45-39.42,90.84-134.21,139.64-229.23,127.44C108.23,447.61,26.79,376.88,7.57,277.8Z"/><path class="cls-2" d="M16.54,281C-2.68,180.59,37.17,74.57,122.19,27.93,202-15.86,294,26.23,359.1,93.11c63,64.61,99.24,158.69,63.73,243.21C385.6,424.93,295.48,472.37,204.92,460.08A222.27,222.27,0,0,1,16.54,281Z"/><path class="cls-3" d="M302.48,69.87C363.07,106,416.17,164,403.58,229.62c-13.36,69.72-80.36,115.11-154,115.87-65.7.76-115.44-52.88-142.26-112.72-26.71-59.51-33.56-131,14.77-171.25C171,20.68,244.38,35.23,302.48,69.87Z"/><path class="cls-4" d="M297.59,77.58c57.77,34.53,108.38,89.81,96.32,152.36C381.1,296.4,317.25,339.73,247.09,340.49c-62.66.65-110-50.39-135.63-107.4-25.52-56.79-32-124.78,14.12-163.33C172.27,30.67,242.21,44.57,297.59,77.58Z"/><path class="cls-5" d="M225.37,306.5c-1.63-5.65-5.1-11.08-8.47-16.4l-21.28-33.88-29.43-46.8c-6.73-10.64-13.57-21.5-17.81-32.9-3.37-8.9-5.1-18-8.36-27s-8.47-18.24-16.51-24.22c-7.49,1-10.21,9.34-8.8,17.38s6.08,15.75,9.56,23.57,5.76,16.72,2.61,22.91c-1.85,3.58-5.32,6-6.3,10.1-1.19,5,1.85,11.18,6.08,15.75S136,223.1,140.89,227c19.55,15.75,33.56,39,36.92,61.36,1,6.3,1.09,12.49,2.93,18.79C188.45,333.21,232.87,332.13,225.37,306.5Z"/><path class="cls-6" d="M195.73,298.14c4.24-3.26,4.45-5,1.19-9.23,3.26,4.24,5,4.45,9.23,1.19-4.24,3.26-4.45,5-1.19,9.23C201.7,295.1,200,294.88,195.73,298.14Z"/><path class="cls-6" d="M208.54,288.26l-7.82,5.65-7.38,6.19,7.82-5.65Z"/><path class="cls-6" d="M195,286.52l5.65,7.82,6.19,7.49"/><path class="cls-6" d="M206.81,301.83l-5.65-7.93L195,286.52"/><path class="cls-6" d="M205.28,306.93c.76-.54.76-.87.22-1.63.54.76.87.76,1.63.22-.76.54-.76.87-.22,1.63C206.26,306.39,206,306.28,205.28,306.93Z"/><path class="cls-6" d="M207.46,305.2l-1.3,1-1.3,1.09,1.41-1.09Z"/><path class="cls-6" d="M205.18,304.87l1,1.3,1.09,1.3"/><path class="cls-6" d="M207.24,307.48l-1-1.3-1.09-1.3"/><path class="cls-6" d="M204.2,285.54c.76-.54.76-.87.22-1.63.54.76.87.76,1.63.22-.76.54-.76.87-.22,1.63C205.28,285,205,284.89,204.2,285.54Z"/><path class="cls-6" d="M206.48,283.8l-1.41,1-1.3,1.09,1.41-1Z"/><path class="cls-6" d="M204.09,283.48l1,1.41,1.09,1.19"/><path class="cls-6" d="M206.15,286.08l-1-1.3-1.09-1.3"/><path class="cls-5" d="M237.75,107.45c-1.09,12.16,6.73,23.35,15.75,31.6s19.65,14.66,27.47,24.11c11.18,13.57,15.2,31.6,21.29,48.22a176.84,176.84,0,0,0,33.77,56c3.47,3.91,7.6,7.82,12.81,8.14,8.58.43,14.23-9.77,13.36-18.35s-6-16-9.23-24a57.54,57.54,0,0,1-2.28-35.73c2.28-8.47,6.41-17.16,4.13-25.63-3.26-12.16-17.59-16.83-27.8-24.22-16.07-11.51-23-31.6-30.95-49.74C292.92,90.62,289,83,282,79.54c-10.1-4.78-16.51,5.1-24,8.9C248.72,93.22,238.95,93.76,237.75,107.45Z"/><path class="cls-5" d="M216.25,188.35c4.78-2.93,12.81-3.15,13.25-10.53.22-5.21-3-10.21-6.41-14.44-8.36-10.86-18.24-21.83-19.87-35.07-1.09-8.47.76-18.24-5.43-24.32-4.34-4.24-11-4.89-16.83-6.63a42.08,42.08,0,0,1-20.85-13.9c-3.8-4.67-6.62-10.1-11.51-13.68S135.68,65.86,133.18,71c-1.52,3-.54,6.84.65,10.21a125.13,125.13,0,0,0,22.8,39c8,9.34,17.59,17.92,22.15,29.1,3.15,7.71,3.58,16.07,5.54,24.11s6.19,16.4,13.9,20.09C206.81,197.36,210.39,192,216.25,188.35Z"/><path class="cls-5" d="M243.51,253.51c5.43,9.56,3.48,19.66,5.32,29.65,1.85,10.42,8.25,21.18,17.27,29,2.82,2.5,7.28,4.89,9.56,2.82,2.71-2.39-.76-8.14,1.85-10.64,3.15-3.15,9.56,2.71,14.77,3.69,4.67.87,8.25-2.82,8.25-7.17s-2.61-8.9-5.76-12.81-6.84-7.49-9.77-11.51c-13.14-18.14-7.71-49.84-32.69-61.14-8.58-3.91-17.92-.65-22.91,4.78C219.08,230.81,237.21,242.43,243.51,253.51Z"/><path class="cls-5" d="M220.81,78.24c-2.71-3.37-2.61-7.6-3.91-11.4a21.41,21.41,0,0,0-8.58-10.43c-1.3-.76-3.15-1.41-3.91-.54-.87,1.09.76,3.15-.11,4.34-1.09,1.41-3.91-.43-6.08-.54A2.84,2.84,0,0,0,195.4,63a8,8,0,0,0,3,4.67c1.52,1.3,3.15,2.5,4.56,3.91,6.3,6.3,6.08,19.22,16.72,22.15a8.35,8.35,0,0,0,8.8-3.26C231.89,85.62,224,82.14,220.81,78.24Z"/><path class="cls-7" d="M106,263.82a61.42,61.42,0,1,1,44.85-74.39A61.45,61.45,0,0,1,106,263.82Z"/><path class="cls-8" d="M77.58,461.57a9.8,9.8,0,0,0,5-5.43,21.59,21.59,0,0,0,1.3-7.38,50.82,50.82,0,0,0-3.58-18.9,77.53,77.53,0,0,0-6.62-13.46c0-.22-.22-.43-.33-.65a32.56,32.56,0,0,1-5-13.68,20,20,0,0,1,4-14.55,26.52,26.52,0,0,1,6.3-5.76c1.85-1.3,3.91-2.5,5.86-3.91A44.11,44.11,0,0,0,95.71,368a25.78,25.78,0,0,0,5.21-12.27,30.73,30.73,0,0,0,.22-7.06L94,347.44s2.61,6.84-4,15.2a38.52,38.52,0,0,1-8.25,7.49c-.87.54-1.74,1.19-2.61,1.74a63.5,63.5,0,0,0-13.46,11.84,23.62,23.62,0,0,0-5.43,16.4,42.09,42.09,0,0,0,3.26,13.57c.43,1.19,1,2.39,1.41,3.48,2.93,6.84,5.54,11.62,7.6,15.64,2.93,5.86,4.45,9.67,3,15.31A23.92,23.92,0,0,1,74.1,452C70.63,460.59,74,463.09,77.58,461.57Z"/><path class="cls-9" d="M95.71,368.07A46.31,46.31,0,0,1,84.53,378l-5.43-5.86,2.61-1.74A34,34,0,0,0,90,362.86Z"/><path class="cls-9" d="M72.37,387.51a19.48,19.48,0,0,0-4,14.55l-8-1.85a23.62,23.62,0,0,1,5.43-16.4Z"/><path class="cls-9" d="M80.29,429.75l-7.82,3c-2-3.91-4.67-8.8-7.6-15.64l8.36-1.52.43.65A73.75,73.75,0,0,1,80.29,429.75Z"/><path class="cls-9" d="M83.88,448.76a21.59,21.59,0,0,1-1.3,7.38c-3.15,8-13.79,8.8-8.36-4,.54-1.3,1-2.61,1.41-3.91Z"/><path class="cls-10" d="M77.58,461.57a41.92,41.92,0,0,1,1.19-13.25c3.15-13.57-7.6-23.13-13.25-38.77s.11-25.85,14.55-34,17.7-19.76,17.7-19.76l3.26-.11a30.73,30.73,0,0,0,.22-7.06l-7.17-1.19s2.61,6.84-4,15.2a38.49,38.49,0,0,1-8.25,7.49c-.87.54-1.74,1.19-2.61,1.74a63.53,63.53,0,0,0-13.47,11.84,23.62,23.62,0,0,0-5.43,16.4,42.09,42.09,0,0,0,3.26,13.57c.43,1.19,1,2.39,1.41,3.48,2.93,6.84,5.54,11.62,7.6,15.64,2.93,5.86,4.45,9.67,3,15.31A23.83,23.83,0,0,1,74.21,452C70.63,460.59,74,463.09,77.58,461.57Z"/><path class="cls-11" d="M77,252.85s-10.75,37.68-2.82,66S93.43,353.41,106.46,351c8.58-1.52,13.47,13.25,19.22,22.48,3,4.78,6.3,8,10.43,6.63a5.17,5.17,0,0,0,3.58-4.56A19.59,19.59,0,0,0,138,367a60.34,60.34,0,0,0-4.24-8.36,100,100,0,0,0-6.73-10.1c-.76-1.09-1.3-1.74-1.3-1.74a16.46,16.46,0,0,0,3.26-.22c3.58-.65,10.1-2.72,19-9,0,0,6.95,2.5,11,15.09a25.37,25.37,0,0,0,1.19,3c3.15,6.41,8.47,8.58,11.51,6.3,1.52-1.08,2.39-3.26,2.06-6.41a30.61,30.61,0,0,0-1.09-6.3,44.1,44.1,0,0,0-12.05-20s18.79-15.1,4-42.35a352.87,352.87,0,0,0-34.1-50.6s15.1-11.29,8.36-33.12-24.32-24.87-24.32-24.87S102.45,152.73,97,153.6s-1.63,23.78-1.63,23.78h-.11l-2,.11-.43.11c-21.61,2-25.3,8.58-25.3,8.58s-13.36-21.94-17.38-17.27,3.47,28.78,3.47,28.78-11.95,9.56-6,31.49S77,252.85,77,252.85Z"/><path class="cls-10" d="M77,252.85s-10.75,37.68-2.82,66S93.43,353.41,106.46,351c8.58-1.52,13.47,13.25,19.22,22.48,3,4.78,6.3,8,10.43,6.62a5.17,5.17,0,0,0,3.58-4.56c-4.24,2.06-8.36.22-15.2-15.85-11.4-26.61-21,2.82-31.49-41.59S80,269.58,89.52,257c6.3-8.25,18.24-11.4,22.26-13.68-29.43,15.64-57-.33-54.73-30.73,2-25.19,29-34.21,35.84-35.07-21.61,2-25.3,8.58-25.3,8.58s-13.36-21.83-17.38-17.16,3.47,28.78,3.47,28.78-11.95,9.56-6,31.49S77,252.85,77,252.85Z"/><path class="cls-9" d="M136.22,380.13c-4.13,1.41-7.38-1.74-10.43-6.62A32,32,0,0,0,138,367.09C140.45,373.07,141,378.5,136.22,380.13Z"/><path class="cls-9" d="M172.82,349.29a42.44,42.44,0,0,1,1.09,6.3c.65,9.66-8.8,9.77-13.57.11A52.31,52.31,0,0,0,172.82,349.29Z"/><path class="cls-12" d="M58.25,194.1A21.74,21.74,0,0,1,64,189.44s-6.52-13.36-8.9-11.95S58.25,194.1,58.25,194.1Z"/><path class="cls-12" d="M101.14,177.16a13.79,13.79,0,0,1,7.28.43s-5.86-15.85-8.69-15.85S101.14,177.16,101.14,177.16Z"/><path class="cls-8" d="M158.26,287.28c3-1.09,5.86-5.54,4.45-12.6-.22-.65-.33-1.41-.54-2.17-2.39-8.36-10.64-15.31-17-19.65-2.28-1.52-4.67-2.93-7.06-4.24l-1.09-.54,1,1c7.93,8,10.64,17.7,12.27,25.52.76,3.48,1.3,6.62,2,9.12C153.27,287.06,155.87,288.15,158.26,287.28Z"/><path class="cls-9" d="M162.72,274.68c2.5,12.6-8.36,16.72-10.42,9-.65-2.5-1.2-5.54-2-9.12A94.2,94.2,0,0,0,162.72,274.68Z"/><path class="cls-9" d="M78.45,235.7a17.29,17.29,0,1,1,12.6-21A17.34,17.34,0,0,1,78.45,235.7Z"/><g class="cls-13"><path class="cls-14" d="M104.08,212.35s1.52,3.26-.54,4.89-5.32-1-5.32-1a4.53,4.53,0,0,1-1.63,2.39,4.17,4.17,0,0,1-2.72,1c-4.23,0-2.82-4.34-2.82-4.34"/><path class="cls-14" d="M96.26,209.2a31.23,31.23,0,0,1,1.85,6.95"/></g><path class="cls-15" d="M81.92,210.39s1.85,11.94-4.89,13-9.88-9.77-9.88-9.77"/><path class="cls-15" d="M126.34,199.21s1.52,9.66-3.91,10.53-7.93-7.93-7.93-7.93"/><path class="cls-16" d="M96.58,210.5c-1.85.76-8.91-1.19-2-3.26S102.23,208,96.58,210.5Z"/><path class="cls-12" d="M69,234.07c-3.37.87-6.41.43-6.73-.87s2.17-3,5.65-3.91,6.41-.43,6.73.87S72.37,233.2,69,234.07Z"/><path class="cls-12" d="M129.81,215.72c-3.37.87-6.41.43-6.73-.87s2.17-3,5.65-3.91,6.41-.43,6.73.87S133.18,214.85,129.81,215.72Z"/><path class="cls-10" d="M148.06,337.56s6.95,2.5,11,15.09a25.37,25.37,0,0,0,1.19,3c3.15,6.41,8.47,8.58,11.51,6.3-7.49-3.15-14.88-38.33-25.19-30.84a181.1,181.1,0,0,0-17.48,15.42C132.64,345.92,139.15,343.86,148.06,337.56Z"/><path class="cls-10" d="M127.1,348.63a71,71,0,0,0,6.73,10.1A100,100,0,0,0,127.1,348.63Z"/><path class="cls-10" d="M158.26,287.28c-2.82-2.93-3.15-10.32-5-18.35a43.45,43.45,0,0,0-8-16,62.92,62.92,0,0,0-6.08-7.06,17.47,17.47,0,0,0-.87,2.82l-.11.43c7.93,8,10.64,17.7,12.27,25.52.76,3.48,1.3,6.62,2,9.12C153.27,287.06,155.87,288.15,158.26,287.28Z"/><path class="cls-16" d="M75.19,272.94c1.19.32,2.71.65,4.67,1a74.51,74.51,0,0,0,8.47.76,74.59,74.59,0,0,0,30-6.08,70.19,70.19,0,0,0,9-4.56,101.26,101.26,0,0,0,9.12-6,63.33,63.33,0,0,0,5.43-4.34c.32-.32.76-.65,1.09-1a4.89,4.89,0,0,0,1.09-1.41,4.56,4.56,0,0,0,.43-1.63,4.93,4.93,0,0,0-.33-1.74,3.31,3.31,0,0,0-1-1.41,23.9,23.9,0,0,0-2.5-2.17,26.15,26.15,0,0,1-2.93,2.39c-1.3,1.09-3.15,2.39-5.32,3.91a81.28,81.28,0,0,1-9.34,5.54,69.31,69.31,0,0,1-8,4,72.57,72.57,0,0,1-9.34,3.15A76.21,76.21,0,0,1,97,264.8a54,54,0,0,1-11.08-.22,49.07,49.07,0,0,1-8.9-1.41,40.7,40.7,0,0,1-4.89-1.3,27.1,27.1,0,0,0-.43,7.28,4.68,4.68,0,0,0,1,2.39A7.33,7.33,0,0,0,75.19,272.94Z"/><path class="cls-17" d="M138,246.77c1.3,2.17,2.71,4.56,4,6.84.33-.33.76-.65,1.09-1a4.85,4.85,0,0,0,1.09-1.41,4.55,4.55,0,0,0,.43-1.63,4.92,4.92,0,0,0-.33-1.74,3.29,3.29,0,0,0-1-1.41,23.76,23.76,0,0,0-2.5-2.17C140.89,244.38,139.8,245.36,138,246.77Z"/><path class="cls-17" d="M123.3,256.22c1.41,2.61,2.82,5.21,4,7.71a101.27,101.27,0,0,0,9.12-6c-1.3-2.61-2.61-5.1-3.8-7.27A72.93,72.93,0,0,1,123.3,256.22Z"/><path class="cls-17" d="M105.81,263.28c1,2.93,1.85,5.65,2.93,8.58a76.94,76.94,0,0,0,9.56-3.37c-1.09-3-2.17-5.76-3.15-8.25A72,72,0,0,1,105.81,263.28Z"/><path class="cls-17" d="M99.41,273.81c-.87-3.37-1.52-6-2.17-8.8A64.17,64.17,0,0,1,86,264.69c.65,3.26,1.41,6.63,2.17,9.88A63.82,63.82,0,0,0,99.41,273.81Z"/><path class="cls-17" d="M75.19,272.94c1.19.33,2.71.65,4.67,1-.87-3.58-1.74-7.28-2.61-10.53a40.69,40.69,0,0,1-4.89-1.3,31.81,31.81,0,0,0-.44,7.17,4.68,4.68,0,0,0,1,2.39A6,6,0,0,0,75.19,272.94Z"/><path class="cls-18" d="M106,263.82a61.42,61.42,0,1,1,44.85-74.39A61.45,61.45,0,0,1,106,263.82Z"/><path class="cls-19" d="M140,207.46c10.64-11-1.41-39.09-19.76-49.41s-19.87,2.39-15.42,6.3S127.21,180,129.16,194.1,136.55,211.15,140,207.46Z"/><path class="cls-19" d="M88.22,161.2a6,6,0,1,1,4.45-7.28A6,6,0,0,1,88.22,161.2Z"/><path class="cls-9" d="M77.36,184.66c-1-.65-8.58-14.12-8.58-14.12L74.43,186Z"/><path class="cls-9" d="M69.22,172.49a3.24,3.24,0,1,1,2.39-3.91A3.24,3.24,0,0,1,69.22,172.49Z"/><path class="cls-9" d="M93.22,179.34c-.76-1-3.58-16.07-3.58-16.07l.43,16.4Z"/><path class="cls-9" d="M89.2,165.11a3.21,3.21,0,1,1,3.47-2.93A3.2,3.2,0,0,1,89.2,165.11Z"/><path class="cls-20" d="M312.77,272l-77,88a3.4,3.4,0,0,0-1,1.19l-.11.11a4.42,4.42,0,0,0-.87,2.61,5.54,5.54,0,0,0,5.1,6.08,6.13,6.13,0,0,0,4.67-1.74l.22.11Z"/><path class="cls-21" d="M201.16,32.74l-35.4,35.62c-.22.11-.33.33-.43.43a1.93,1.93,0,0,0-.43,1.09A2.3,2.3,0,0,0,167,72.59a2.4,2.4,0,0,0,2.06-.65l.11.11Z"/><path class="cls-22" d="M141.54,130.9c-2.28-11-5.32-12.92-16.29-10.64,11-2.28,12.92-5.32,10.64-16.29,2.28,11,5.32,12.92,16.29,10.64C141.21,116.89,139.26,119.94,141.54,130.9Z"/><path class="cls-22" d="M134.7,97.78l3.37,19.87,4.78,19.44-3.37-19.76Z"/><path class="cls-22" d="M119.06,121.56l19.87-3.37,19.55-4.89"/><path class="cls-22" d="M158.48,113.31l-19.87,3.48-19.55,4.78"/><path class="cls-22" d="M152.62,115c-1.09-5.1-2.5-6.08-7.6-5,5.1-1.09,6.08-2.5,5-7.6,1.09,5.1,2.5,6.08,7.6,5C152.51,108.53,151.53,109.94,152.62,115Z"/><path class="cls-22" d="M149.36,99.52l1.63,9.23,2.28,9.23-1.63-9.34Z"/><path class="cls-22" d="M142.08,110.7l9.34-1.63,9.12-2.28"/><path class="cls-22" d="M160.54,106.8l-9.34,1.63-9.12,2.28"/><path class="cls-22" d="M166.63,120.91c-.43-2-.87-2.28-2.82-1.85,2-.43,2.28-.87,1.85-2.82.43,2,.87,2.28,2.82,1.85C166.52,118.52,166.19,119,166.63,120.91Z"/><path class="cls-22" d="M165.43,115.16l.54,3.47.87,3.37-.65-3.47Z"/><path class="cls-22" d="M162.61,119.28l3.48-.54,3.47-.87"/><path class="cls-22" d="M169.56,117.87l-3.47.54-3.48.87"/><path class="cls-22" d="M125.58,103.43c-.43-2-.87-2.28-2.82-1.85,2-.43,2.28-.87,1.85-2.82.43,2,.87,2.28,2.82,1.85C125.47,100.93,125.14,101.47,125.58,103.43Z"/><path class="cls-22" d="M124.38,97.57l.54,3.48.87,3.37-.54-3.47Z"/><path class="cls-22" d="M121.67,101.69l3.48-.54,3.37-.87"/><path class="cls-22" d="M128.51,100.28l-3.47.54-3.37.87"/><path class="cls-23" d="M146.19,126.79a12.49,12.49,0,1,0-17.64.79A12.49,12.49,0,0,0,146.19,126.79Z"/><path class="cls-11" d="M375.84,51.64,352,63.68l2.45,4.85,23.85-12Z"/><path class="cls-24" d="M306,65.42,315.4,84.1l.11.11L325,102.89h-.11l-25.52,5.76a5.61,5.61,0,0,1-6.19-2.93L289,97.57v-.22l-4.13-8.14a5.62,5.62,0,0,1,1.3-6.62Z"/><path class="cls-9" d="M334.19,51.2l18.89,37.25-28.34,14.33L306,65.53Z"/><path class="cls-25" d="M414.76,52.61a4.5,4.5,0,0,1-1.85,6L385.66,72.37l-4-7.93L408.9,50.65A4.35,4.35,0,0,1,414.76,52.61Z"/><path class="cls-26" d="M414.76,52.72a4.35,4.35,0,0,1-2,5.86L385.55,72.37l-.87-1.74,27.26-13.79C414.22,55.76,415.41,53.91,414.76,52.72Z"/><path class="cls-27" d="M414.76,52.61c-.65-1.19-2.82-1.3-5-.22L382.51,66.18l-.87-1.74L408.9,50.65A4.35,4.35,0,0,1,414.76,52.61Z"/><path class="cls-25" d="M399.78,22.85a4.5,4.5,0,0,1-1.85,6L370.56,42.51l-4-7.93L393.8,20.9A4.48,4.48,0,0,1,399.78,22.85Z"/><path class="cls-26" d="M399.78,22.85a4.35,4.35,0,0,1-2,5.86L370.56,42.51l-.87-1.74L397,27C399.12,26,400.43,24.16,399.78,22.85Z"/><path class="cls-27" d="M399.78,22.85c-.65-1.19-2.82-1.3-5-.22L367.52,36.43l-.87-1.74L393.8,20.9A4.48,4.48,0,0,1,399.78,22.85Z"/><path class="cls-9" d="M329,43.7l27.15,53.64,30.73-15.64a3.73,3.73,0,0,0,1.63-5l-23.89-47a3.73,3.73,0,0,0-5-1.63Z"/><path class="cls-9" d="M314.1,61.4l13.47-20.52,5.43,11Z"/><path class="cls-9" d="M333.75,98.22l18.13-9.12,5.65,11Z"/><path class="cls-24" d="M320.07,46.53l28.34,56.36a5.74,5.74,0,0,0,3.69,3,6.07,6.07,0,0,0,4.34-.43l.54-.22.22-.11a5.92,5.92,0,0,0,2.82-3l.11-.22a5.77,5.77,0,0,0-.22-5L331.47,40.66a5.59,5.59,0,0,0-3.91-3l-.22-.11a6.3,6.3,0,0,0-4,.43l-.33.22A5.32,5.32,0,0,0,320.29,41l-.22.43A6,6,0,0,0,320.07,46.53Z"/><path class="cls-9" d="M323.33,37.95a6.55,6.55,0,0,1,2.06-.65l.33.33,33.12,65.7a.65.65,0,0,1,.11.43,5.24,5.24,0,0,1-1.74,1.3l-.22.11-.54.22a3.09,3.09,0,0,1-1.41.43,1.08,1.08,0,0,1-.43-.54l-33.12-65.7a1,1,0,0,1-.11-.54,8.18,8.18,0,0,1,1.52-1.19Z"/><path class="cls-24" d="M369.41,38.89,338.49,54.5,353,83.19,383.9,67.58Z"/><path class="cls-24" d="M329.36,64.93l-18.9,9.55,9.79,19.39,18.9-9.55Z"/><path class="cls-9" d="M306,65.42l9.12,18,.32.65.11.11.43.76,9,17.81-7.49,1.52-8.15-16.07L296,95l6.52,12.81-3,.65a5.55,5.55,0,0,1-6.19-2.93l-3.69-7.28-.11-.11-.33-.65v-.22l-.33-.54,3.26-1.63L285.86,82.9l5.76-5,7,13.9,3.26-1.63-7.38-14.66,5.76-5,8.25,16.29L312,85.08l-8.69-17.16.87-.76Z"/><path class="cls-9" d="M305.63,90.07l7.82,15.31-7.39,1.74-6.95-13.68Z"/><path class="cls-25" d="M375.62,51,351.29,63.3l3,5.91L378.6,56.93Z"/><path class="cls-25" d="M377.07,54,353.22,66l1.22,2.42,23.85-12Z"/><path class="cls-27" d="M375.91,51.62l-23.85,12,1.22,2.42,23.85-12Z"/><path class="cls-24" d="M254.91,205.83c-.76-7.17-11.29-14.23-34.32-23.13a24.45,24.45,0,0,1-9.77-6.62,18.69,18.69,0,0,1-4.89-16.83c1.41-7.28,6.52-15,15.75-23.67A200.14,200.14,0,0,1,249,114.72a419.36,419.36,0,0,1,37.79-21.39l3.26,6.84a379.31,379.31,0,0,0-37,21c-10.86,7.06-19.66,13.68-26.28,20-7.82,7.38-12.38,14-13.47,19.55a11,11,0,0,0,3,10.21,19.6,19.6,0,0,0,7,4.67c12.7,4.89,21.5,9.12,27.69,13.36,7.17,5,11,10.21,11.51,16.07.43,4.24-.87,8.47-3.8,13.14A57.3,57.3,0,0,1,249.27,229c-1,.87-2,1.74-2.93,2.71-7.71,6.73-18.35,14.44-34.21,24.87l-1.3-1.41c16-10.43,26.61-18.24,34.21-25l2.93-2.61a61,61,0,0,0,9.12-10.42c2.71-4.24,3.91-8.14,3.48-11.95-.54-5.21-4-10-10.75-14.66-6-4.13-14.66-8.36-27.26-13.14a20.86,20.86,0,0,1-7.6-5.1,12.77,12.77,0,0,1-3.47-11.84c1.19-6,5.86-12.92,14-20.63a1.47,1.47,0,0,1,.43-.33,181.34,181.34,0,0,1,26.17-19.76,403.06,403.06,0,0,1,35.51-20.2L286,96A382.83,382.83,0,0,0,250,116.46c-11,7.06-20,13.9-26.71,20.31l-.33.33c-8.9,8.36-13.79,15.85-15.2,22.7a17,17,0,0,0,4.45,15.2,23.67,23.67,0,0,0,9,6.08c24.11,9.23,34.75,16.61,35.62,24.65.54,5.21-3.26,11.51-11.51,19.22-.87.87-1.85,1.63-2.82,2.5-7.6,6.62-18.24,14.44-34.42,25l-1.3-1.41c16.18-10.53,26.82-18.35,34.42-25C251,217.56,255.46,210.94,254.91,205.83Z"/><path class="cls-9" d="M242.53,227.44l2.82-2.5c8.25-7.71,12.05-14,11.51-19.22-.76-8-11.4-15.42-35.62-24.65a23.67,23.67,0,0,1-9-6.08,16.79,16.79,0,0,1-4.45-15.2c1.3-6.84,6.3-14.33,15.2-22.7l.33-.33A195.35,195.35,0,0,1,250,116.46,369.18,369.18,0,0,1,286,96l1.63,3.48a373,373,0,0,0-35.51,20.2,189.65,189.65,0,0,0-26.17,19.76,1.51,1.51,0,0,1-.43.33c-8.15,7.71-12.81,14.66-14,20.63a13.05,13.05,0,0,0,3.47,11.84,20.43,20.43,0,0,0,7.6,5.1c12.6,4.89,21.28,9,27.26,13.14,6.73,4.67,10.21,9.45,10.75,14.66.33,3.8-.76,7.71-3.48,11.95A57.17,57.17,0,0,1,248,227.55a35.58,35.58,0,0,1-2.93,2.61c-7.71,6.73-18.35,14.44-34.21,25l-2.61-2.82C224.29,241.89,234.93,234.07,242.53,227.44Z"/><path class="cls-24" d="M202.14,251.66l3.8-2.71a1.68,1.68,0,0,1,2.28.33l4.45,6.08a1.69,1.69,0,0,1-.33,2.28l-3.8,2.71Z"/><path class="cls-9" d="M188.24,238.41a5.74,5.74,0,0,1,8,1.3l21.39,29.65a5.74,5.74,0,0,1-1.3,8l-90,64.94a5.74,5.74,0,0,1-8-1.3L96.91,311.39a5.74,5.74,0,0,1,1.3-8Z"/><path class="cls-28" d="M192.15,244.6a2.42,2.42,0,0,1-.54,3.37l-84.49,61a2.41,2.41,0,1,1-2.82-3.91l84.49-61A2.33,2.33,0,0,1,192.15,244.6Z"/><path class="cls-24" d="M174.77,248.08l13.36-9.67a5.74,5.74,0,0,1,8,1.3l21.39,29.65a5.74,5.74,0,0,1-1.3,8l-13.36,9.67ZM96.91,311.39,118.3,341a5.74,5.74,0,0,0,8,1.3L140,332.45l-28.13-39-13.68,9.88A5.74,5.74,0,0,0,96.91,311.39Zm46,19,3.69-2.71-28.13-39-3.69,2.71Zm53.21-38.44,3.69-2.71-28.13-39L168,253Z"/><path class="cls-24" d="M151.86,287l3.37,4.67-19.11,10.53,28.67-5.1-3.37-4.67,19.22-10.53Z"/><path class="cls-8" d="M94.41,311.06c4.24,3.91,9,5.1,11.62,3.58,7.27-4.13,4.13-8.36-2.28-15.09-1.19-1.3-2.5-2.61-3.91-4A49.68,49.68,0,0,1,89.09,277.4c-.33-1.09-.54-1.74-.54-1.74a1.82,1.82,0,0,1-.22.54C82.79,293.25,87.9,305.3,94.41,311.06Z"/><path class="cls-9" d="M105.92,314.75c-2.71,1.52-7.49.33-11.62-3.58a47.74,47.74,0,0,0,9.34-11.51C110,306.39,113.2,310.52,105.92,314.75Z"/><path class="cls-10" d="M94.41,311.06c4.24,3.91,9,5.1,11.62,3.58-18.68-4-16.83-36.05-16.72-37.36l-.65-1.19C82.79,293.25,87.9,305.3,94.41,311.06Z"/><path class="cls-6" d="M300.3,179.66c-2.93-9.12-5.65-10.53-14.77-7.49,9.12-2.93,10.53-5.65,7.49-14.77,2.93,9.12,5.65,10.53,14.77,7.49C298.78,167.83,297.37,170.54,300.3,179.66Z"/><path class="cls-6" d="M291.4,152.19l4.78,16.51,5.76,16.07-4.67-16.51Z"/><path class="cls-6" d="M280.43,173.8l16.4-4.78L313,163.16"/><path class="cls-6" d="M313,163.16l-16.51,4.78-16.07,5.86"/><path class="cls-6" d="M320.61,168.91c-.54-1.63-1-1.85-2.61-1.3,1.63-.54,1.85-1,1.3-2.61.54,1.63,1,1.85,2.61,1.3C320.39,166.85,320.07,167.28,320.61,168.91Z"/><path class="cls-6" d="M319.09,164l.76,2.93,1.09,2.82-.87-2.93Z"/><path class="cls-6" d="M317.14,167.83l2.93-.76,2.71-1.09"/><path class="cls-6" d="M322.78,166l-2.82.87-2.82,1"/><path class="cls-6" d="M284.23,157.73c-.54-1.63-1-1.85-2.61-1.3,1.63-.54,1.85-1,1.3-2.61.54,1.63,1,1.85,2.61,1.3C283.91,155.66,283.69,156.1,284.23,157.73Z"/><path class="cls-6" d="M282.71,152.95l.76,2.82,1.09,2.82-.87-2.82Z"/><path class="cls-6" d="M280.76,156.75l2.82-.87,2.82-1"/><path class="cls-6" d="M286.4,154.9l-2.82.76-2.82,1.09"/><path class="cls-6" d="M187.69,217.67c0-7.49-1.63-9.12-9.12-9.12,7.49,0,9.12-1.63,9.12-9.12,0,7.49,1.63,9.12,9.12,9.12C189.32,208.55,187.69,210.29,187.69,217.67Z"/><path class="cls-6" d="M187.69,195.19l-.43,13.36.43,13.36.43-13.36Z"/><path class="cls-6" d="M174.34,208.55l13.36.54,13.36-.54"/><path class="cls-6" d="M201,208.55l-13.36-.43-13.36.43"/><path class="cls-6" d="M205.28,214.63c0-1.3-.32-1.63-1.63-1.63,1.3,0,1.63-.33,1.63-1.63,0,1.3.33,1.63,1.63,1.63C205.61,213,205.28,213.33,205.28,214.63Z"/><path class="cls-6" d="M205.28,210.72v4.67l.11-2.39Z"/><path class="cls-6" d="M203,213l2.28.11,2.39-.11"/><path class="cls-6" d="M207.67,213l-2.39-.11L203,213"/><path class="cls-6" d="M181.07,197.58c0-1.3-.33-1.63-1.63-1.63,1.3,0,1.63-.33,1.63-1.63,0,1.3.33,1.63,1.63,1.63C181.29,196.06,181.07,196.28,181.07,197.58Z"/><path class="cls-6" d="M181.07,193.67l-.11,2.39.11,2.28v-4.67Z"/><path class="cls-6" d="M183.35,196.06l-2.28-.11-2.39.11"/><path class="cls-6" d="M342.55,208.11c4.23-3.26,4.45-5,1.19-9.23,3.26,4.24,5,4.45,9.23,1.19-4.23,3.26-4.45,5-1.19,9.23C348.52,205,346.78,204.75,342.55,208.11Z"/><path class="cls-6" d="M355.36,198.12l-7.82,5.65L340.16,210l7.82-5.65Z"/><path class="cls-6" d="M341.9,196.39l5.65,7.82,6.08,7.49"/><path class="cls-6" d="M353.62,211.7,348,203.88l-6.08-7.49"/><path class="cls-6" d="M352.1,216.8c.76-.54.76-.87.22-1.63.54.76.87.76,1.63.22-.76.54-.76.87-.22,1.63C353.19,216.26,352.86,216.15,352.1,216.8Z"/><path class="cls-6" d="M354.38,215.06,353,216l-1.3,1.09,1.41-1Z"/><path class="cls-6" d="M352,214.74l1,1.41,1.09,1.3"/><path class="cls-6" d="M354.06,217.45l-1-1.41-1.08-1.3"/><path class="cls-6" d="M351.13,195.41c.76-.54.76-.87.22-1.63.54.76.87.76,1.63.22-.76.54-.76.87-.22,1.63C352.1,194.87,351.78,194.87,351.13,195.41Z"/><path class="cls-6" d="M353.3,193.67l-1.3,1-1.3,1.09,1.3-1Z"/><path class="cls-6" d="M350.91,193.34l1,1.41,1.09,1.3"/><path class="cls-6" d="M353,196.06l-1-1.41-1.09-1.3"/><path class="cls-22" d="M222.77,70.74l-2.39-1.09c1.3-.54,3.69-.65,8.14-1-4.34.22-6.73.22-8-.11l4.67-2.39-5.21,2.17a1.08,1.08,0,0,1-.54-.43l.87-2.82-1.09,2.5a6.34,6.34,0,0,1-.65-2.82,6.33,6.33,0,0,1-.33,2.82l-2.39-4.89L218,68a1.09,1.09,0,0,1-.54.43l-2.71-.87,2.39,1.09c-1.3.54-3.69.65-8.14,1,4.34-.22,6.73-.22,8,.11L212.23,72l5.21-2.17a1.09,1.09,0,0,1,.54.43l-.87,2.82,1.09-2.5a6.34,6.34,0,0,1,.65,2.82,6.33,6.33,0,0,1,.32-2.82l2.39,4.89L219.4,70.2a1.08,1.08,0,0,1,.54-.43Z"/><path class="cls-23" d="M220.58,73.27a4.67,4.67,0,1,0-6.18-2.32A4.67,4.67,0,0,0,220.58,73.27Z"/><path class="cls-1" d="M35.31,15.83a18.34,18.34,0,0,1,.13,15.73c-2.3,5.34-6.29,10.1-11.94,11.66S11.64,43.07,7,39.44.27,30.52,0,24.82c-.25-5.94,1-12.31,5.71-16.1s11.12-3.39,16.87-2C28,8,32.81,11,35.31,15.83Z"/><path class="cls-2" d="M31.83,20.68a15.74,15.74,0,0,1,.11,13.5c-2,4.58-5.4,8.67-10.25,10A16.17,16.17,0,0,1,7.53,41a16.5,16.5,0,0,1-6-12.55c-.21-5.1.85-10.57,4.9-13.82S16,11.67,20.92,12.86C25.54,14,29.68,16.52,31.83,20.68Z"/><path class="cls-1" d="M65.78,5a5.89,5.89,0,0,1,4.67,2.54,6.74,6.74,0,0,1,1.16,5.51,6.35,6.35,0,0,1-3.5,3.83c-1.59.86-3.38,1.55-5,.78A6.35,6.35,0,0,1,60,13.05a7.15,7.15,0,0,1,1-5.63A5.81,5.81,0,0,1,65.78,5Z"/><path class="cls-2" d="M64.78,7a4.89,4.89,0,0,1,3.89,2.15,5.77,5.77,0,0,1,1,4.67,5.34,5.34,0,0,1-2.91,3.24c-1.32.73-2.81,1.31-4.17.66a5.37,5.37,0,0,1-2.62-3.9A6.13,6.13,0,0,1,60.78,9,4.82,4.82,0,0,1,64.78,7Z"/><path class="cls-1" d="M174.17,491.34c15.83,13.86,18.71,36.1,9.48,55.11-10.13,20.89-30,38.42-53.89,36.42-25.87-2.16-47.23-20.9-50.56-45.16-3-22,16.33-39.54,37.51-49.88C135.82,478.5,158.81,477.89,174.17,491.34Z"/><path class="cls-2" d="M172,497.32c15,13.12,17.69,34.15,9,52.14-9.59,19.76-28.34,36.35-51,34.45-24.47-2-44.68-19.77-47.83-42.72-2.85-20.76,15.45-37.4,35.48-47.19C135.7,485.18,157.45,484.61,172,497.32Z"/><path class="cls-3" d="M178.08,517.42c3.71,14.19-3.32,29.93-18.35,38.18-14.46,7.94-32.22,5.14-44.24-3.84-11.07-8.27-13.27-22.12-7.18-34.57,6.28-12.83,19.68-23.05,35.36-23C160.38,494.24,174.46,503.59,178.08,517.42Z"/><path class="cls-4" d="M173.54,520.45c3.5,13.36-2.88,28.12-16.65,35.78-13.26,7.38-29.61,4.64-40.71-3.87-10.23-7.84-12.34-20.87-6.81-32.54,5.7-12,18-21.55,32.39-21.41C157.12,498.56,170.13,507.43,173.54,520.45Z"/><path class="cls-6" d="M144.6,511.1c-4.45,3-4.8,4.64-1.78,9.07-3-4.45-4.64-4.8-9.07-1.77,4.45-3,4.8-4.64,1.77-9.07C138.47,513.72,140.14,514.07,144.6,511.1Z"/><path class="cls-6" d="M131.2,520.07l8.14-5.08,7.75-5.54-8.15,5Z"/><path class="cls-6" d="M144.47,522.67l-5.06-8.08-5.61-7.8"/><path class="cls-6" d="M133.8,506.79l5.08,8.14,5.6,7.74"/><path class="cls-6" d="M135.73,501.84c-.79.54-.84.81-.3,1.6-.54-.79-.81-.84-1.6-.3.79-.54.84-.81.3-1.6C134.66,502.27,134.94,502.38,135.73,501.84Z"/><path class="cls-6" d="M133.34,503.4l1.46-.85,1.35-1-1.44.91Z"/><path class="cls-6" d="M135.68,503.87l-.85-1.46-1-1.29"/><path class="cls-6" d="M133.83,501.12l.9,1.38,1,1.37"/><path class="cls-6" d="M135.26,523.07c-.79.54-.84.81-.3,1.6-.54-.79-.81-.84-1.6-.3.79-.54.84-.8.3-1.6C134.2,523.56,134.47,523.61,135.26,523.07Z"/><path class="cls-6" d="M132.93,524.62l1.4-.84,1.35-1-1.38.9Z"/><path class="cls-6" d="M135.27,525.09l-.9-1.38-1-1.37"/><path class="cls-6" d="M133.42,522.34l.84,1.4,1,1.35"/><path class="cls-29" d="M163.42,512.26l-46.79,53.87a2.08,2.08,0,0,0-.59.73l-.07.07a2.72,2.72,0,0,0-.53,1.6,3.39,3.39,0,0,0,3.1,3.72,3.71,3.71,0,0,0,2.84-1.06l.13.07Z"/><path class="cls-1" d="M210.28,480a10.41,10.41,0,0,1,8.17,4.3,11.12,11.12,0,0,1,2,9.33c-.8,3.09-3.4,5-6.12,6.48s-5.91,2.62-8.76,1.33-4.78-4.48-5.49-7.81a11.77,11.77,0,0,1,1.76-9.53A10.29,10.29,0,0,1,210.28,480Z"/><path class="cls-2" d="M208.78,483a8.9,8.9,0,0,1,7,3.72,9.66,9.66,0,0,1,1.74,8.06c-.69,2.67-2.91,4.36-5.25,5.59s-5.06,2.27-7.51,1.15-4.1-3.87-4.71-6.74a10.23,10.23,0,0,1,1.51-8.23A8.8,8.8,0,0,1,208.78,483Z"/><path class="cls-1" d="M214.78,549a5.9,5.9,0,0,1,4.67,2.54,6.74,6.74,0,0,1,1.16,5.51,6.36,6.36,0,0,1-3.5,3.83c-1.59.86-3.38,1.55-5,.78a6.35,6.35,0,0,1-3.14-4.61,7.15,7.15,0,0,1,1-5.63A5.82,5.82,0,0,1,214.78,549Z"/><path class="cls-2" d="M214.78,551a4.89,4.89,0,0,1,3.89,2.15,5.77,5.77,0,0,1,1,4.67,5.34,5.34,0,0,1-2.91,3.24c-1.32.73-2.81,1.31-4.17.66a5.38,5.38,0,0,1-2.62-3.9,6.13,6.13,0,0,1,.84-4.77A4.82,4.82,0,0,1,214.78,551Z"/></svg>