<svg id="Слой_1" data-name="Слой 1" xmlns="http://www.w3.org/2000/svg" viewBox="0 0 3427.5 3223.93"><defs><style>.cls-1{fill:#57caae}.cls-2{fill:#2bb7ae}</style></defs><path class="cls-1" d="M1794.11 440.95c-19.95-56.44-7.66-116.64 20.51-169.47 26-48.72 71.94-76.83 122.62-98.8 71.09-30.78 148-85.52 215.67-47.73 72.85 40.72 102.51 136.8 91.79 219.55-9.43 72.81-82.51 110.09-140.37 155.29-55 43-107.83 105.22-176.42 92.21-69.54-13.2-110.2-84.33-133.8-151.05zM288.17 1432.16c11.66 33 4.49 68.18-12 99.06-15.19 28.48-42.05 44.91-71.67 57.75-41.55 18-86.53 50-126.05 27.9-42.58-23.8-59.93-80-53.66-128.33 5.51-42.56 48.24-64.35 82.05-90.77 32.16-25.12 63-61.5 103.13-53.9 40.65 7.71 64.42 49.29 78.2 88.29zm314.5-1018.67c-45.77 48.86-111.85 67.68-178.8 66.9-61.75-.72-113.32-31.86-161.2-70.86-67.15-54.7-161.11-102.92-158.41-189.53 2.91-93.28 83-172.2 170.69-204.16 77.13-28.12 151.78 25.24 226.43 59.4 71 32.49 160 52.88 182.36 127.67 22.7 75.83-26.98 152.83-81.07 210.58zm482.85 572.29c248.32-5.1 429.25 206.72 583.52 401.4 153.46 193.65 289.83 412.16 255 656.8-38.24 268.93-194.52 520-439.18 638s-530.94 70-773-53.5C477.38 2508.82 276.93 2306.4 238.3 2046c-36-242.73 139.78-443.73 293-635.42 152.85-191.36 309.39-419.78 554.22-424.8zM762 2853.89c24.79 100.83 2.28 212.1-68.54 288.05-68.77 73.76-175.06 85.29-275.83 81.29-102.2-4.06-204.2-27.25-272.82-103.09-79.18-87.51-132.56-202.93-108.64-318.5 25.71-124.24 109.72-243.78 232-277.57 112-30.94 208.49 64.63 305.12 129.16 80.29 53.65 165.6 106.85 188.71 200.66zM397.69 597.95C505.3 602.84 621.92 596 695 675.2c78.12 84.66 103.74 210.72 70.13 320.9-31.35 102.6-134.13 153.34-229.73 202.07-99.77 50.85-209.74 121.71-310.76 73.39s-110.57-179.62-138.4-288.24C56.87 868.68-9.88 738.61 64.51 646.56c74.22-91.83 215.22-53.97 333.18-48.61z"/><path class="cls-2" d="M351.28 2724.67c72.14-10.2 150.79-30.44 207.15 15.73 62 50.8 87.88 136.58 75.44 215.77-12 76.66-66.3 141.31-136.68 174-62.25 28.9-134.37 12.63-194.68-20.13-49.74-27-68.07-81.92-89.56-134.29-24.66-60.08-71.13-124-39.79-180.88 32.4-58.82 111.64-60.81 178.12-70.2zM277 948c-11.29-72-32.71-150.32 12.61-207.36 49.86-62.77 135.24-89.93 214.61-78.69 76.82 10.89 142.29 64.16 176 134 29.84 61.81 14.67 134.16-17.18 195-26.27 50.15-80.88 69.3-132.92 91.58-59.71 25.56-122.9 73-180.26 42.51C290.54 1093.5 287.35 1014.3 277 948zm671.82 1521.45c-139.51-46.33-271.15-106.56-350-230.6-99.86-157-205.54-348.22-124.62-515.8 82.53-170.91 299.93-205.38 487.34-235.33 178.4-28.52 375.44-45.09 509.53 76 131.57 118.8 129.14 314.35 118.75 491.31-10 170.6-30.81 362.26-174.32 455.05-137.98 89.19-310.78 11.14-466.68-40.63z"/><path class="cls-1" d="M161.34 1852.33c1.3 24.95-.68 50.77-17.65 69-17.52 18.78-43.64 27.51-69 23.91-24.53-3.48-43.83-20.79-57.21-41.81-13.51-21.24-22.7-46.76-14.2-70.45 8.39-23.4 32.46-34.35 55.24-44 25.41-10.73 54.12-26.66 77.66-12.15s23.71 47.61 25.16 75.5zM5.82 2294.07c5-46.51 37-87.15 79.19-107.38s93.06-18.39 133.12 5.66c36.45 21.89 45.18 66.46 55.6 107.64 10.88 43 29 90 3.63 126.38-26.55 38.08-77.94 52-124.08 46.43-40.62-4.9-65.4-40.89-91.42-72.43C35 2367.85 1.29 2336 5.82 2294.07zm1014.4 684.06c5-46.51 37-87.15 79.19-107.38s93.06-18.39 133.12 5.66c36.45 21.89 45.18 66.46 55.6 107.64 10.88 43 29 90 3.63 126.38-26.55 38.08-77.94 52-124.08 46.43-40.62-4.9-65.4-40.89-91.42-72.43-26.82-32.52-60.58-64.43-56.04-106.3zM867.6 126.23c100.78-95.79 262.7-58.21 396-18.78 112.43 33.25 201.86 109.49 258.3 212.27 56.84 103.54 80.74 222.71 41.75 334.21C1521.37 775 1436.57 888 1312.23 919.34c-121.59 30.61-242.16-36-337.81-117.05-85.47-72.43-122-176.75-139.44-287.4-21.34-135.1-66.52-294.42 32.62-388.66z"/><path class="cls-2" d="M1463.36 468.24c13.07 85.81 36.5 187.23-27.06 246-61.72 57-157 16.78-239.26 0-65.04-13.24-128.14-31.72-170.18-83.35C979 572.1 938.49 497 961.25 424.67s102.55-99.59 171.49-130.34c76-33.91 158.3-88.45 232.07-49.64 75.63 39.78 85.65 138.82 98.55 223.55zm620.08-28.55c-36.59 30.28-77.59 69.82-123 56.51-44.12-12.92-52.06-69-67.35-112.26-12.1-34.26-21.18-69.06-8.78-103.31 14.12-39 38-79.14 78.31-88.82s75.59 20.1 109.42 43.8c37.31 26.14 86.05 49.39 88.6 94.93 2.59 46.68-41.06 79.25-77.2 109.15zM233.09 155c24.43-34.63 62.64-61.85 105-59.87 40.94 1.92 69.82 36.24 94.2 69.19 23.19 31.35 44.6 67.72 35 105.52-9.42 37.27-44.74 60.31-80.52 74.38-32.45 12.78-67.77 11.14-99.41-3.62-32.51-15.17-59.35-40.72-69.42-75.15C207 227.92 210.56 187 233.09 155z"/><path class="cls-1" d="M3082.05 1778.38c-11.66-33-4.48-68.18 12-99.06 15.19-28.48 42-44.91 71.67-57.75 41.55-18 86.53-50 126.06-27.9 42.58 23.8 59.92 80 53.65 128.33-5.51 42.56-48.23 64.35-82.05 90.77-32.16 25.12-63 61.5-103.12 53.9-40.65-7.67-64.42-49.29-78.21-88.29zm-179.14 956.41c45.77-48.87 111.85-67.68 178.8-66.9 61.75.71 113.32 31.85 161.2 70.85 67.16 54.71 161.12 102.92 158.42 189.5-2.91 93.28-83 172.2-170.69 204.17-77.13 28.11-151.77-25.24-226.42-59.41-71-32.48-160-52.88-182.37-127.66-22.7-75.8 26.98-152.81 81.06-210.55zm-447.12-706.44c-197.56 4.06-341.5-164.46-464.23-319.34-122.09-154.06-230.58-327.9-202.9-522.53 30.42-214 154.75-413.71 349.4-507.56s422.4-55.69 615 42.56c186.58 95.19 346 256.23 376.78 463.43 28.63 193.11-111.2 353-233.08 505.52-121.65 152.2-246.19 333.93-440.97 337.92zM2665.55 370c-24.8-100.83-2.28-212.1 68.53-288.05C2802.85 8.23 2909.14-3.31 3009.91.69c102.2 4.06 204.2 27.25 272.82 103.09 79.19 87.51 132.56 202.93 108.64 318.5-25.71 124.23-109.72 243.78-232 277.56-112 30.95-208.5-64.62-305.12-129.16-80.33-53.68-165.64-106.84-188.7-200.68zm364.26 2256c-107.61-4.88-224.23 1.92-297.28-77.24-78.12-84.66-103.74-210.72-70.12-320.9 31.3-102.61 134.1-153.35 229.69-202.08 99.77-50.85 209.74-121.71 310.76-73.39s110.56 179.61 138.39 288.21c29.38 114.65 96.12 244.71 21.73 336.76-74.21 91.84-215.21 53.97-333.17 48.64z"/><path class="cls-2" d="M3076.22 499.26c-72.14 10.2-150.79 30.43-207.15-15.74-62-50.8-87.88-136.58-75.44-215.77 12-76.65 66.3-141.31 136.68-174 62.25-28.9 134.36-12.64 194.68 20.13 49.74 27 68.06 81.92 89.55 134.29 24.66 60.09 71.14 124 39.79 180.88-32.4 58.82-111.63 60.81-178.11 70.21zM3150.54 2276c11.29 72 32.71 150.32-12.61 207.37-49.86 62.76-135.23 89.93-214.6 78.68-76.83-10.88-142.29-64.16-176-134-29.84-61.81-14.67-134.16 17.19-195 26.26-50.15 80.88-69.3 132.91-91.58 59.71-25.56 122.91-73 180.26-42.51 59.26 31.46 62.45 110.66 72.85 177.04zm-586-1428c111 36.86 215.73 84.77 278.48 183.46 79.45 124.93 163.53 277 99.14 410.35-65.66 136-238.61 163.39-387.71 187.22-141.93 22.69-298.69 35.87-405.36-60.46-104.67-94.51-102.74-250.09-94.47-390.87 8-135.72 24.51-288.2 138.68-362 109.7-70.98 247.22-8.9 371.24 32.3z"/><path class="cls-1" d="M3266.16 1371.59c-1.3-24.95.68-50.77 17.65-69 17.52-18.78 43.64-27.51 69-23.91 24.53 3.48 43.84 20.79 57.21 41.81 13.51 21.24 22.7 46.76 14.2 70.45-8.39 23.4-32.46 34.35-55.24 44-25.41 10.73-54.12 26.66-77.66 12.15s-23.71-47.61-25.16-75.5zm155.52-441.74c-5 46.51-37 87.15-79.2 107.38s-93.06 18.39-133.12-5.66c-36.45-21.89-45.18-66.46-55.6-107.64-10.88-43-29-90-3.63-126.37 26.55-38.09 77.94-52 124.08-46.43 40.62 4.9 65.4 40.89 91.42 72.43 26.83 32.51 60.58 64.44 56.05 106.29zm-861.79 2167.84c-100.78 95.8-262.7 58.21-396 18.78-112.43-33.24-201.86-109.49-258.3-212.26-56.84-103.54-80.74-222.71-41.75-334.21 42.33-121 127.12-234.11 251.47-265.42 121.59-30.61 242.16 36 337.81 117 85.47 72.43 122 176.75 139.44 287.4 21.3 135.16 66.44 294.48-32.67 388.71z"/><path class="cls-2" d="M1964.14 2755.68c-13.07-85.81-36.5-187.23 27.06-245.95 61.72-57 157-16.78 239.26 0 65.06 13.23 128.14 31.71 170.18 83.34 47.87 58.79 88.37 133.88 65.61 206.23s-102.55 99.59-171.49 130.33c-76 33.92-158.3 88.45-232.07 49.65-75.63-39.83-85.69-138.87-98.55-223.6zm1308.36 237.58c-24.43 34.63-62.64 61.85-105 59.87-40.94-1.91-69.82-36.24-94.2-69.19-23.19-31.35-44.6-67.72-35-105.52 9.42-37.27 44.74-60.31 80.52-74.38 32.47-12.76 67.81-11.12 99.44 3.64 32.52 15.17 59.35 40.71 69.42 75.15 10.94 37.52 7.32 78.49-15.18 110.43z"/></svg>